<svg width="1620" height="261" viewBox="0 0 1620 261" fill="none" xmlns="http://www.w3.org/2000/svg">
<mask id="mask0_438_2550" style="mask-type:alpha" maskUnits="userSpaceOnUse" x="0" y="0" width="1620" height="261">
<rect x="-6.10352e-05" width="1620" height="261" rx="14" fill="#21627D"/>
</mask>
<g mask="url(#mask0_438_2550)">
<circle cx="395.5" cy="382.5" r="164.5" fill="#1C7768"/>
<circle cx="-6.10352e-05" cy="-27" r="143" fill="#248877"/>
<circle cx="1474.5" cy="-26.5" r="135.5" fill="#248877"/>
<circle r="31" transform="matrix(-1 0 0 1 160 72)" fill="#248877"/>
<circle cx="493.945" cy="250.621" r="1.94536" transform="rotate(-90 493.945 250.621)" fill="white"/>
<circle cx="493.945" cy="241.283" r="1.94536" transform="rotate(-90 493.945 241.283)" fill="white"/>
<circle cx="493.945" cy="231.946" r="1.94536" transform="rotate(-90 493.945 231.946)" fill="white"/>
<circle cx="503.283" cy="250.621" r="1.94536" transform="rotate(-90 503.283 250.621)" fill="white"/>
<circle cx="503.283" cy="241.283" r="1.94536" transform="rotate(-90 503.283 241.283)" fill="white"/>
<circle cx="503.283" cy="231.946" r="1.94536" transform="rotate(-90 503.283 231.946)" fill="white"/>
<circle cx="512.621" cy="250.621" r="1.94536" transform="rotate(-90 512.621 250.621)" fill="white"/>
<circle cx="512.621" cy="241.283" r="1.94536" transform="rotate(-90 512.621 241.283)" fill="white"/>
<circle cx="512.621" cy="231.946" r="1.94536" transform="rotate(-90 512.621 231.946)" fill="white"/>
<circle cx="521.958" cy="250.621" r="1.94536" transform="rotate(-90 521.958 250.621)" fill="white"/>
<circle cx="521.958" cy="241.283" r="1.94536" transform="rotate(-90 521.958 241.283)" fill="white"/>
<circle cx="521.958" cy="231.946" r="1.94536" transform="rotate(-90 521.958 231.946)" fill="white"/>
<circle cx="531.296" cy="250.621" r="1.94536" transform="rotate(-90 531.296 250.621)" fill="white"/>
<circle cx="531.296" cy="241.283" r="1.94536" transform="rotate(-90 531.296 241.283)" fill="white"/>
<circle cx="531.296" cy="231.946" r="1.94536" transform="rotate(-90 531.296 231.946)" fill="white"/>
<circle cx="1579.95" cy="241.229" r="3.6747" transform="rotate(180 1579.95 241.229)" fill="white" fill-opacity="0.17"/>
<circle cx="1562.31" cy="241.229" r="3.6747" transform="rotate(180 1562.31 241.229)" fill="white" fill-opacity="0.17"/>
<circle cx="1544.67" cy="241.229" r="3.6747" transform="rotate(180 1544.67 241.229)" fill="white" fill-opacity="0.17"/>
<circle cx="1579.95" cy="223.59" r="3.6747" transform="rotate(180 1579.95 223.59)" fill="white" fill-opacity="0.17"/>
<circle cx="1562.31" cy="223.59" r="3.6747" transform="rotate(180 1562.31 223.59)" fill="white" fill-opacity="0.17"/>
<circle cx="1544.67" cy="223.59" r="3.6747" transform="rotate(180 1544.67 223.59)" fill="white" fill-opacity="0.17"/>
<circle cx="1579.95" cy="205.952" r="3.6747" transform="rotate(180 1579.95 205.952)" fill="white" fill-opacity="0.17"/>
<circle cx="1562.31" cy="205.952" r="3.6747" transform="rotate(180 1562.31 205.952)" fill="white" fill-opacity="0.17"/>
<circle cx="1544.67" cy="205.952" r="3.6747" transform="rotate(180 1544.67 205.952)" fill="white" fill-opacity="0.17"/>
<circle cx="1579.95" cy="188.314" r="3.6747" transform="rotate(180 1579.95 188.314)" fill="white" fill-opacity="0.17"/>
<circle cx="1562.31" cy="188.314" r="3.6747" transform="rotate(180 1562.31 188.314)" fill="white" fill-opacity="0.17"/>
<circle cx="1544.67" cy="188.314" r="3.6747" transform="rotate(180 1544.67 188.314)" fill="white" fill-opacity="0.17"/>
<circle cx="1579.95" cy="170.675" r="3.6747" transform="rotate(180 1579.95 170.675)" fill="white" fill-opacity="0.17"/>
<circle cx="1562.31" cy="170.675" r="3.6747" transform="rotate(180 1562.31 170.675)" fill="white" fill-opacity="0.17"/>
<circle cx="1544.67" cy="170.675" r="3.6747" transform="rotate(180 1544.67 170.675)" fill="white" fill-opacity="0.17"/>
</g>
</svg>
