<svg width="18" height="18" viewBox="0 0 18 18" fill="none" xmlns="http://www.w3.org/2000/svg">
<path d="M17.2115 6.99142C17.1676 6.8604 17.0883 6.74407 16.9824 6.65527C16.8766 6.56646 16.7482 6.50863 16.6115 6.48817L11.825 5.75692L9.67703 1.18192C9.61646 1.05307 9.52047 0.944124 9.40028 0.867812C9.28008 0.791501 9.14065 0.750977 8.99828 0.750977C8.85591 0.750977 8.71648 0.791501 8.59628 0.867812C8.47609 0.944124 8.3801 1.05307 8.31953 1.18192L6.17153 5.75692L1.38503 6.48817C1.2487 6.50895 1.12073 6.56692 1.0152 6.6557C0.909674 6.74449 0.830669 6.86065 0.786872 6.99142C0.743076 7.12219 0.736183 7.26251 0.766952 7.39694C0.797722 7.53137 0.864962 7.65472 0.96128 7.75342L4.44953 11.3249L3.62453 16.3784C3.60202 16.5171 3.61891 16.6593 3.67329 16.7889C3.72768 16.9184 3.81736 17.0301 3.93211 17.1112C4.04687 17.1922 4.18209 17.2394 4.32237 17.2474C4.46265 17.2553 4.60234 17.2237 4.72553 17.1562L9.00053 14.7952L13.2755 17.1562C13.3987 17.2243 13.5386 17.2564 13.6792 17.2488C13.8197 17.2412 13.9553 17.1941 14.0704 17.1131C14.1855 17.032 14.2755 16.9202 14.33 16.7904C14.3845 16.6606 14.4014 16.5181 14.3788 16.3792L13.5538 11.3257L17.0398 7.75342C17.1356 7.65444 17.2024 7.53096 17.2327 7.39654C17.263 7.26212 17.2557 7.12195 17.2115 6.99142Z" fill="url(#paint0_linear_702_1079)"/>
<defs>
<linearGradient id="paint0_linear_702_1079" x1="14.363" y1="0.0552394" x2="0.302973" y2="16.1395" gradientUnits="userSpaceOnUse">
<stop stop-color="#FF827A"/>
<stop offset="1" stop-color="#FFA825"/>
</linearGradient>
</defs>
</svg>
