<svg width="83" height="58" viewBox="0 0 83 58" fill="none" xmlns="http://www.w3.org/2000/svg">
<path d="M79.4285 6.00874C78.3749 5.44588 77.1885 5.17899 75.9953 5.23644C74.8022 5.29388 73.6469 5.67352 72.6523 6.33499L60.416 14.4912V10.3212C60.413 7.81686 59.4168 5.41589 57.646 3.64502C55.8751 1.87415 53.4741 0.87797 50.9698 0.874992H9.86226C7.35788 0.87797 4.95692 1.87415 3.18605 3.64502C1.41518 5.41589 0.418993 7.81686 0.416016 10.3212V47.6787C0.418993 50.1831 1.41518 52.5841 3.18605 54.355C4.95692 56.1258 7.35788 57.122 9.86226 57.125H50.9698C53.4741 57.122 55.8751 56.1258 57.646 54.355C59.4168 52.5841 60.413 50.1831 60.416 47.6787V43.5087L72.6523 51.665C73.6467 52.3271 74.8021 52.7071 75.9954 52.7644C77.1888 52.8217 78.3753 52.5542 79.4286 51.9905C80.4819 51.4267 81.3626 50.5877 81.9767 49.5629C82.5908 48.5381 82.9155 47.366 82.916 46.1712V11.8287C82.9152 10.634 82.5904 9.46178 81.9763 8.43692C81.3622 7.41207 80.4817 6.5729 79.4285 6.00874ZM52.916 47.6787C52.916 48.1949 52.711 48.69 52.346 49.0549C51.981 49.4199 51.4859 49.625 50.9698 49.625H9.86226C9.34609 49.625 8.85105 49.4199 8.48606 49.0549C8.12107 48.69 7.91601 48.1949 7.91601 47.6787V10.3212C7.91601 9.80507 8.12107 9.31003 8.48606 8.94503C8.85105 8.58004 9.34609 8.37499 9.86226 8.37499H50.9698C51.4859 8.37499 51.981 8.58004 52.346 8.94503C52.711 9.31003 52.916 9.80507 52.916 10.3212V47.6787ZM75.416 44.495L60.416 34.4937V23.5062L75.416 13.505V44.495Z" fill="#1B8271"/>
</svg>
