<svg width="234" height="73" viewBox="0 0 234 73" fill="none" xmlns="http://www.w3.org/2000/svg">
<rect width="73" height="73" rx="14" fill="#121E31"/>
<path d="M19.7434 31.8399C19.0772 31.1758 18.2934 30.6788 17.4375 30.3735V19.5C17.4375 16.0886 14.6614 13.3125 11.25 13.3125C7.83862 13.3125 5.0625 16.0886 5.0625 19.5V42.1875C5.0625 43.8767 5.92875 45.9722 7.125 47.1664L16.5836 56.625H15.375V66.9375H33.9375V60.75V56.625V50.4375C33.9375 47.583 32.3824 43.9448 30.3219 41.9709L19.7434 31.8399ZM9.1875 19.5C9.1875 18.3615 10.1136 17.4375 11.25 17.4375C12.3864 17.4375 13.3125 18.3615 13.3125 19.5V30.3714C12.4586 30.6767 11.6769 31.1717 11.019 31.8296C9.897 32.9372 9.2535 34.3892 9.1875 35.9464V19.5ZM21.5625 56.625V55.7711L10.0414 44.25C9.62681 43.8354 9.1875 42.7753 9.1875 42.1875V36.4723C9.2535 38.0233 9.89288 39.4774 10.9922 40.5767L19.4691 49.2268L22.4164 46.3414L13.923 37.6727C13.5229 37.2746 13.3043 36.7528 13.3063 36.2021C13.3063 35.6597 13.5229 35.1503 13.9251 34.7563C14.715 33.9623 15.9999 33.9313 16.8559 34.7893L27.4674 44.9513C28.6946 46.1248 29.8125 48.7401 29.8125 50.4375V56.625H21.5625Z" fill="white"/>
<path d="M60.75 13.3125C57.3386 13.3125 54.5625 16.0886 54.5625 19.5V30.3714C53.7107 30.6726 52.9352 31.1614 52.2896 31.8069L41.676 41.9689C39.6156 43.9447 38.0625 47.583 38.0625 50.4375V56.625V60.75V66.9375H56.625V56.625H55.4164L64.875 47.1664C66.0712 45.9722 66.9375 43.8767 66.9375 42.1875V19.5C66.9375 16.0886 64.1614 13.3125 60.75 13.3125ZM62.8125 42.1875C62.8125 42.7753 62.3732 43.8354 61.9586 44.25L50.4375 55.7711V56.625H42.1875V50.4375C42.1875 48.7401 43.3054 46.1228 44.5305 44.9513L55.1771 34.7563C55.9629 33.9664 57.2706 33.9519 58.0853 34.7687C58.4751 35.1544 58.6916 35.6638 58.6916 36.2042C58.6937 36.7549 58.4751 37.2767 58.0584 37.6912L49.5816 46.3434L52.5289 49.2289L60.9892 40.5932C62.1051 39.4774 62.7465 38.0233 62.8104 36.4723V42.1875H62.8125ZM62.8125 35.9464C62.7465 34.3892 62.103 32.9372 60.9913 31.842C60.3272 31.1779 59.5414 30.6808 58.6875 30.3756V19.5C58.6875 18.3615 59.6136 17.4375 60.75 17.4375C61.8864 17.4375 62.8125 18.3615 62.8125 19.5V35.9464Z" fill="white"/>
<path d="M52.5 15.5874C52.5 12.7824 51.4048 10.1383 49.4207 8.15419C47.4469 6.16388 44.8089 5.07075 41.9874 5.07075C39.8115 5.07075 37.7387 5.72044 35.9938 6.93113C34.2448 5.72869 32.1473 5.0625 30.0167 5.0625C27.2096 5.0625 24.5676 6.15769 22.5855 8.13975C20.6014 10.1074 19.5062 12.7412 19.5 15.5524C19.4959 18.378 20.589 21.0304 22.5793 23.0207L35.9979 36.4393L49.4145 23.0207C51.3759 21.0572 52.5 18.3471 52.5 15.5874V15.5874Z" fill="#FF7468"/>
<path d="M97.3388 57.49C96.3458 57.49 95.5609 57.8289 94.984 58.5066C94.4113 59.18 94.1249 60.1039 94.1249 61.2783C94.1249 62.4863 94.401 63.4208 94.9531 64.0816C95.5094 64.7382 96.3005 65.0665 97.3265 65.0665C97.9569 65.0665 98.6759 64.9508 99.4835 64.7193V65.66C98.8572 65.9 98.0846 66.0199 97.1658 66.0199C95.8349 66.0199 94.8068 65.6074 94.0816 64.7824C93.3605 63.9574 93 62.7852 93 61.2657C93 60.3144 93.1731 59.481 93.5192 58.7654C93.8694 58.0499 94.3721 57.4985 95.0273 57.1112C95.6865 56.724 96.4612 56.5304 97.3512 56.5304C98.2989 56.5304 99.1271 56.7071 99.8358 57.0607L99.3908 57.9825C98.7068 57.6542 98.0228 57.49 97.3388 57.49Z" fill="#D7D7D7"/>
<path d="M104.391 58.8475C104.692 58.8475 104.962 58.8728 105.201 58.9233L105.059 59.8956C104.778 59.8324 104.531 59.8009 104.317 59.8009C103.769 59.8009 103.299 60.0282 102.908 60.4828C102.52 60.9373 102.327 61.5035 102.327 62.1812V65.8936H101.301V58.9738H102.147L102.265 60.2555H102.314C102.566 59.8051 102.868 59.4578 103.223 59.2137C103.577 58.9696 103.967 58.8475 104.391 58.8475Z" fill="#D7D7D7"/>
<path d="M112.315 62.4274C112.315 63.5554 112.037 64.4373 111.48 65.0729C110.924 65.7042 110.156 66.0199 109.175 66.0199C108.569 66.0199 108.031 65.8747 107.562 65.5843C107.092 65.2938 106.729 64.8771 106.474 64.3341C106.218 63.7912 106.091 63.1556 106.091 62.4274C106.091 61.2993 106.367 60.4217 106.919 59.7946C107.471 59.1632 108.237 58.8475 109.218 58.8475C110.166 58.8475 110.918 59.1695 111.474 59.8135C112.034 60.4575 112.315 61.3288 112.315 62.4274ZM107.154 62.4274C107.154 63.3113 107.327 63.9848 107.673 64.4478C108.019 64.9108 108.528 65.1423 109.2 65.1423C109.871 65.1423 110.38 64.9129 110.726 64.4541C111.076 63.9911 111.252 63.3155 111.252 62.4274C111.252 61.5477 111.076 60.8805 110.726 60.4259C110.38 59.9671 109.867 59.7377 109.187 59.7377C108.516 59.7377 108.009 59.9629 107.667 60.4133C107.325 60.8637 107.154 61.535 107.154 62.4274Z" fill="#D7D7D7"/>
<path d="M119.651 65.8936L118.409 61.8339C118.331 61.5856 118.184 61.0215 117.97 60.1418H117.921C117.756 60.8784 117.611 61.4467 117.488 61.8465L116.208 65.8936H115.022L113.174 58.9738H114.249C114.686 60.7122 115.018 62.0359 115.244 62.9451C115.475 63.8543 115.607 64.4667 115.64 64.7824H115.689C115.735 64.5425 115.807 64.2331 115.906 63.8543C116.009 63.4713 116.097 63.1682 116.171 62.9451L117.414 58.9738H118.526L119.738 62.9451C119.968 63.6691 120.125 64.2773 120.207 64.7698H120.257C120.273 64.6183 120.317 64.3847 120.387 64.069C120.461 63.7533 120.891 62.0549 121.678 58.9738H122.741L120.869 65.8936H119.651Z" fill="#D7D7D7"/>
<path d="M128.582 64.9655H128.527C128.053 65.6684 127.344 66.0199 126.4 66.0199C125.515 66.0199 124.824 65.7105 124.33 65.0918C123.84 64.473 123.594 63.5933 123.594 62.4526C123.594 61.312 123.842 60.4259 124.336 59.7946C124.831 59.1632 125.519 58.8475 126.4 58.8475C127.319 58.8475 128.024 59.1884 128.514 59.8703H128.595L128.551 59.3715L128.527 58.8854V56.0695H129.553V65.8936H128.718L128.582 64.9655ZM126.53 65.1423C127.231 65.1423 127.738 64.9487 128.051 64.5614C128.368 64.17 128.527 63.5407 128.527 62.6736V62.4526C128.527 61.4719 128.366 60.7732 128.044 60.3565C127.727 59.9356 127.218 59.7251 126.518 59.7251C125.916 59.7251 125.455 59.965 125.133 60.4449C124.816 60.9205 124.657 61.594 124.657 62.4653C124.657 63.3492 124.816 64.0164 125.133 64.4667C125.451 64.9171 125.916 65.1423 126.53 65.1423Z" fill="#D7D7D7"/>
<path d="M134.788 59.7882H133.063V65.8936H132.037V59.7882H130.826V59.3147L132.037 58.9359V58.5508C132.037 56.8503 132.764 56 134.219 56C134.577 56 134.998 56.0737 135.48 56.221L135.214 57.0607C134.819 56.9302 134.481 56.865 134.2 56.865C133.813 56.865 133.527 56.9976 133.341 57.2627C133.156 57.5237 133.063 57.9446 133.063 58.5255V58.9738H134.788V59.7882Z" fill="#D7D7D7"/>
<path d="M136.988 58.9738V63.4628C136.988 64.0269 137.114 64.4478 137.365 64.7256C137.616 65.0034 138.01 65.1423 138.545 65.1423C139.254 65.1423 139.771 64.9445 140.097 64.5488C140.426 64.1531 140.591 63.507 140.591 62.6105V58.9738H141.617V65.8936H140.771L140.622 64.9655H140.567C140.356 65.3065 140.064 65.5674 139.689 65.7484C139.318 65.9294 138.894 66.0199 138.416 66.0199C137.592 66.0199 136.974 65.82 136.561 65.4201C136.154 65.0202 135.95 64.3804 135.95 63.5007V58.9738H136.988Z" fill="#D7D7D7"/>
<path d="M148.435 65.8936V61.4172C148.435 60.8532 148.309 60.4322 148.058 60.1544C147.806 59.8766 147.413 59.7377 146.877 59.7377C146.168 59.7377 145.649 59.9335 145.32 60.3249C144.99 60.7164 144.825 61.3625 144.825 62.2632V65.8936H143.799V58.9738H144.633L144.8 59.9208H144.85C145.06 59.5799 145.355 59.3168 145.734 59.1316C146.113 58.9422 146.535 58.8475 147.001 58.8475C147.817 58.8475 148.43 59.0495 148.843 59.4536C149.255 59.8535 149.461 60.4954 149.461 61.3793V65.8936H148.435Z" fill="#D7D7D7"/>
<path d="M156.185 64.9655H156.13C155.656 65.6684 154.947 66.0199 154.003 66.0199C153.117 66.0199 152.427 65.7105 151.933 65.0918C151.443 64.473 151.197 63.5933 151.197 62.4526C151.197 61.312 151.445 60.4259 151.939 59.7946C152.433 59.1632 153.122 58.8475 154.003 58.8475C154.922 58.8475 155.627 59.1884 156.117 59.8703H156.198L156.154 59.3715L156.13 58.8854V56.0695H157.156V65.8936H156.321L156.185 64.9655ZM154.133 65.1423C154.834 65.1423 155.34 64.9487 155.654 64.5614C155.971 64.17 156.13 63.5407 156.13 62.6736V62.4526C156.13 61.4719 155.969 60.7732 155.647 60.3565C155.33 59.9356 154.821 59.7251 154.121 59.7251C153.519 59.7251 153.058 59.965 152.736 60.4449C152.419 60.9205 152.26 61.594 152.26 62.4653C152.26 63.3492 152.419 64.0164 152.736 64.4667C153.054 64.9171 153.519 65.1423 154.133 65.1423Z" fill="#D7D7D7"/>
<path d="M160.363 65.8936H159.337V58.9738H160.363V65.8936ZM159.251 57.0986C159.251 56.8587 159.308 56.684 159.424 56.5746C159.539 56.4609 159.683 56.4041 159.856 56.4041C160.021 56.4041 160.163 56.4609 160.283 56.5746C160.402 56.6882 160.462 56.8629 160.462 57.0986C160.462 57.3343 160.402 57.5111 160.283 57.6289C160.163 57.7426 160.021 57.7994 159.856 57.7994C159.683 57.7994 159.539 57.7426 159.424 57.6289C159.308 57.5111 159.251 57.3343 159.251 57.0986Z" fill="#D7D7D7"/>
<path d="M167.174 65.8936V61.4172C167.174 60.8532 167.049 60.4322 166.797 60.1544C166.546 59.8766 166.153 59.7377 165.617 59.7377C164.908 59.7377 164.389 59.9335 164.059 60.3249C163.73 60.7164 163.565 61.3625 163.565 62.2632V65.8936H162.539V58.9738H163.373L163.54 59.9208H163.59C163.8 59.5799 164.094 59.3168 164.473 59.1316C164.853 58.9422 165.275 58.8475 165.741 58.8475C166.556 58.8475 167.17 59.0495 167.582 59.4536C167.994 59.8535 168.2 60.4954 168.2 61.3793V65.8936H167.174Z" fill="#D7D7D7"/>
<path d="M175.858 58.9738V59.6367L174.604 59.7882C174.719 59.9356 174.822 60.1292 174.913 60.3691C175.003 60.6048 175.049 60.8721 175.049 61.171C175.049 61.8486 174.822 62.3895 174.369 62.7936C173.915 63.1977 173.293 63.3997 172.502 63.3997C172.3 63.3997 172.111 63.3829 171.934 63.3492C171.497 63.5849 171.278 63.8817 171.278 64.2394C171.278 64.4288 171.355 64.5699 171.507 64.6625C171.66 64.7508 171.921 64.795 172.292 64.795H173.491C174.225 64.795 174.787 64.9529 175.178 65.2686C175.574 65.5843 175.772 66.0431 175.772 66.645C175.772 67.411 175.471 67.994 174.869 68.3939C174.268 68.798 173.39 69 172.236 69C171.351 69 170.667 68.8316 170.184 68.4949C169.706 68.1582 169.467 67.6825 169.467 67.068C169.467 66.6471 169.599 66.283 169.863 65.9757C170.127 65.6684 170.498 65.4601 170.976 65.3507C170.802 65.2707 170.656 65.1465 170.537 64.9781C170.421 64.8098 170.364 64.6141 170.364 64.391C170.364 64.1384 170.43 63.9174 170.561 63.728C170.693 63.5386 170.901 63.3555 171.186 63.1787C170.835 63.0314 170.549 62.781 170.327 62.4274C170.108 62.0738 169.999 61.6697 169.999 61.2152C169.999 60.4575 170.221 59.8745 170.667 59.4662C171.112 59.0537 171.742 58.8475 172.558 58.8475C172.912 58.8475 173.231 58.8896 173.516 58.9738H175.858ZM170.456 67.0554C170.456 67.43 170.611 67.7141 170.92 67.9077C171.229 68.1013 171.672 68.1982 172.249 68.1982C173.11 68.1982 173.747 68.0656 174.159 67.8004C174.575 67.5394 174.783 67.1837 174.783 66.7334C174.783 66.3588 174.67 66.0978 174.443 65.9505C174.216 65.8074 173.79 65.7358 173.164 65.7358H171.934C171.468 65.7358 171.105 65.8494 170.846 66.0767C170.586 66.304 170.456 66.6302 170.456 67.0554ZM171.013 61.1899C171.013 61.674 171.147 62.0401 171.414 62.2885C171.682 62.5368 172.055 62.661 172.533 62.661C173.534 62.661 174.035 62.1643 174.035 61.171C174.035 60.1313 173.528 59.6115 172.515 59.6115C172.032 59.6115 171.662 59.7441 171.402 60.0092C171.142 60.2744 171.013 60.668 171.013 61.1899Z" fill="#D7D7D7"/>
<path d="M182.008 58.5002C182.008 58.7907 182.082 59.0685 182.231 59.3337C182.379 59.5946 182.632 59.9103 182.991 60.2807C183.522 59.965 183.891 59.6746 184.097 59.4094C184.307 59.14 184.412 58.8307 184.412 58.4813C184.412 58.1572 184.305 57.8941 184.091 57.6921C183.881 57.4858 183.599 57.3827 183.244 57.3827C182.877 57.3827 182.579 57.4837 182.348 57.6858C182.121 57.8878 182.008 58.1593 182.008 58.5002ZM182.966 65.0792C183.959 65.0792 184.783 64.7551 185.438 64.1068L182.737 61.4298C182.28 61.716 181.957 61.9539 181.767 62.1433C181.577 62.3285 181.437 62.5284 181.347 62.7431C181.256 62.9577 181.211 63.2019 181.211 63.4755C181.211 63.9679 181.369 64.3594 181.687 64.6498C182.008 64.9361 182.435 65.0792 182.966 65.0792ZM180.148 63.5007C180.148 62.9535 180.29 62.4695 180.574 62.0486C180.863 61.6277 181.378 61.2025 182.119 60.7732C181.769 60.3733 181.53 60.0703 181.402 59.864C181.279 59.6578 181.18 59.4431 181.106 59.22C181.032 58.9969 180.994 58.7654 180.994 58.5255C180.994 57.8941 181.196 57.4017 181.6 57.0481C182.004 56.6945 182.566 56.5177 183.287 56.5177C183.955 56.5177 184.48 56.6945 184.864 57.0481C185.247 57.3974 185.438 57.8857 185.438 58.5129C185.438 58.9633 185.298 59.38 185.018 59.763C184.738 60.1418 184.274 60.527 183.627 60.9184L186.143 63.3871C186.374 63.1261 186.557 62.8209 186.693 62.4716C186.833 62.118 186.951 61.7329 187.045 61.3162H188.084C187.803 62.52 187.381 63.4334 186.817 64.0563L188.665 65.8936H187.249L186.106 64.7698C185.62 65.216 185.125 65.5359 184.622 65.7295C184.12 65.9231 183.559 66.0199 182.941 66.0199C182.055 66.0199 181.367 65.7968 180.877 65.3507C180.391 64.9045 180.148 64.2878 180.148 63.5007Z" fill="#D7D7D7"/>
<path d="M197.095 57.49C196.102 57.49 195.317 57.8289 194.74 58.5066C194.168 59.18 193.881 60.1039 193.881 61.2783C193.881 62.4863 194.157 63.4208 194.709 64.0816C195.266 64.7382 196.057 65.0665 197.083 65.0665C197.713 65.0665 198.432 64.9508 199.24 64.7193V65.66C198.614 65.9 197.841 66.0199 196.922 66.0199C195.591 66.0199 194.563 65.6074 193.838 64.7824C193.117 63.9574 192.756 62.7852 192.756 61.2657C192.756 60.3144 192.929 59.481 193.275 58.7654C193.626 58.0499 194.128 57.4985 194.784 57.1112C195.443 56.724 196.217 56.5304 197.107 56.5304C198.055 56.5304 198.883 56.7071 199.592 57.0607L199.147 57.9825C198.463 57.6542 197.779 57.49 197.095 57.49Z" fill="#D7D7D7"/>
<path d="M205.692 65.8936V61.4172C205.692 60.8532 205.567 60.4322 205.315 60.1544C205.064 59.8766 204.671 59.7377 204.135 59.7377C203.422 59.7377 202.901 59.9356 202.571 60.3312C202.246 60.7269 202.083 61.3751 202.083 62.2759V65.8936H201.057V56.0695H202.083V59.0432C202.083 59.401 202.066 59.6977 202.033 59.9335H202.095C202.297 59.6009 202.584 59.34 202.954 59.1506C203.329 58.9569 203.756 58.8601 204.234 58.8601C205.062 58.8601 205.682 59.0622 206.094 59.4662C206.51 59.8661 206.718 60.5038 206.718 61.3793V65.8936H205.692Z" fill="#D7D7D7"/>
<path d="M212.998 65.8936L212.794 64.9087H212.745C212.407 65.3422 212.069 65.6369 211.731 65.7926C211.397 65.9441 210.979 66.0199 210.476 66.0199C209.805 66.0199 209.277 65.8431 208.894 65.4896C208.515 65.136 208.325 64.633 208.325 63.9806C208.325 62.5831 209.419 61.8507 211.607 61.7834L212.757 61.7455V61.3162C212.757 60.7732 212.642 60.3733 212.411 60.1166C212.184 59.8556 211.82 59.7251 211.317 59.7251C210.752 59.7251 210.114 59.9019 209.401 60.2555L209.086 59.4536C209.419 59.2684 209.784 59.1232 210.18 59.018C210.579 58.9127 210.979 58.8601 211.379 58.8601C212.186 58.8601 212.784 59.0432 213.171 59.4094C213.563 59.7756 213.758 60.3628 213.758 61.171V65.8936H212.998ZM210.68 65.1549C211.319 65.1549 211.82 64.976 212.182 64.6183C212.549 64.2605 212.732 63.7596 212.732 63.1156V62.4905L211.706 62.5347C210.89 62.5642 210.301 62.6947 209.939 62.9262C209.58 63.1535 209.401 63.5091 209.401 63.9932C209.401 64.372 209.512 64.6604 209.735 64.8582C209.961 65.056 210.276 65.1549 210.68 65.1549Z" fill="#D7D7D7"/>
<path d="M218.969 58.8475C219.269 58.8475 219.539 58.8728 219.778 58.9233L219.636 59.8956C219.356 59.8324 219.109 59.8009 218.894 59.8009C218.346 59.8009 217.877 60.0282 217.485 60.4828C217.098 60.9373 216.904 61.5035 216.904 62.1812V65.8936H215.878V58.9738H216.725L216.842 60.2555H216.892C217.143 59.8051 217.446 59.4578 217.8 59.2137C218.155 58.9696 218.544 58.8475 218.969 58.8475Z" fill="#D7D7D7"/>
<path d="M222.071 65.8936H221.045V58.9738H222.071V65.8936ZM220.959 57.0986C220.959 56.8587 221.016 56.684 221.132 56.5746C221.247 56.4609 221.391 56.4041 221.564 56.4041C221.729 56.4041 221.871 56.4609 221.991 56.5746C222.11 56.6882 222.17 56.8629 222.17 57.0986C222.17 57.3343 222.11 57.5111 221.991 57.6289C221.871 57.7426 221.729 57.7994 221.564 57.7994C221.391 57.7994 221.247 57.7426 221.132 57.6289C221.016 57.5111 220.959 57.3343 220.959 57.0986Z" fill="#D7D7D7"/>
<path d="M226.435 65.1549C226.616 65.1549 226.791 65.1423 226.96 65.117C227.129 65.0876 227.263 65.0581 227.362 65.0287V65.8305C227.251 65.8852 227.086 65.9294 226.867 65.9631C226.653 66.001 226.46 66.0199 226.286 66.0199C224.976 66.0199 224.321 65.3149 224.321 63.9048V59.7882H223.351V59.2831L224.321 58.8475L224.754 57.3701H225.347V58.9738H227.312V59.7882H225.347V63.8606C225.347 64.2773 225.444 64.5972 225.638 64.8203C225.831 65.0434 226.097 65.1549 226.435 65.1549Z" fill="#D7D7D7"/>
<path d="M227.646 58.9738H228.746L230.23 62.9199C230.555 63.8206 230.757 64.4709 230.835 64.8708H230.885C230.939 64.6561 231.05 64.2899 231.219 63.7722C231.392 63.2503 231.952 61.6508 232.9 58.9738H234L231.089 66.8533C230.8 67.632 230.463 68.1834 230.075 68.5075C229.692 68.8358 229.22 69 228.66 69C228.347 69 228.038 68.9642 227.733 68.8927V68.0529C227.959 68.1034 228.213 68.1287 228.493 68.1287C229.198 68.1287 229.7 67.7246 230.001 66.9165L230.378 65.9315L227.646 58.9738Z" fill="#D7D7D7"/>
<path d="M115.359 39.6578H123.068L112.25 9.62567H103.818L93 39.6578H100.623L102.412 34.3529H113.57L115.359 39.6578ZM111.697 28.7059H104.329L107.991 17.7112L111.697 28.7059Z" fill="white"/>
<path d="M126.36 39.6578H133.643V29.6471L140.883 39.6578H149.912L139.946 27.7647L149.827 15.7861H140.84L133.643 25.4973V8H126.36V39.6578Z" fill="white"/>
<path d="M151.239 27.7219C151.239 35.2941 156.179 40 163.164 40C169.127 40 173.343 36.5348 174.578 31.016H166.827C166.188 32.7701 165.038 33.754 163.036 33.754C160.438 33.754 158.65 31.7005 158.65 27.7219C158.65 23.7433 160.438 21.6898 163.036 21.6898C165.038 21.6898 166.23 22.7594 166.827 24.4278H174.578C173.343 18.738 169.127 15.4438 163.164 15.4438C156.179 15.4438 151.239 20.1925 151.239 27.7219Z" fill="white"/>
<path d="M188.95 21.3048C191.378 21.3048 193.422 22.8021 193.422 25.4118H184.308C184.734 22.7594 186.565 21.3048 188.95 21.3048ZM200.322 31.7433H192.57C191.974 33.0267 190.824 34.0535 188.78 34.0535C186.438 34.0535 184.521 32.5989 184.266 29.4759H200.748C200.833 28.7487 200.875 28.0214 200.875 27.3369C200.875 20.0642 195.978 15.4438 189.036 15.4438C181.966 15.4438 177.025 20.1497 177.025 27.7219C177.025 35.2941 182.051 40 189.036 40C194.955 40 199.172 36.4064 200.322 31.7433Z" fill="white"/>
<path d="M204.717 39.6578H212V8H204.717V39.6578Z" fill="white"/>
</svg>

