<svg width="22" height="22" viewBox="0 0 22 22" fill="none" xmlns="http://www.w3.org/2000/svg">
<path d="M21.5355 16.832C21.5164 16.6633 21.4591 16.5012 21.3681 16.3579C21.2771 16.2147 21.1546 16.094 21.01 16.0051L17.2571 13.6813C16.898 13.4577 16.4738 13.3626 16.0536 13.4114C15.6335 13.4602 15.2423 13.6501 14.9441 13.9501L13.6983 15.1963C13.652 15.2434 13.5936 15.2767 13.5295 15.2926C13.4655 15.3085 13.3982 15.3063 13.3353 15.2863C12.6538 15.0563 11.2391 14.3986 9.42033 12.58C7.60158 10.7614 6.94402 9.34599 6.71385 8.66447C6.6939 8.60162 6.69176 8.53448 6.70764 8.47048C6.72353 8.40649 6.75683 8.34815 6.80385 8.30192L8.04971 7.05606C8.34979 6.75792 8.53977 6.36673 8.58854 5.94653C8.6373 5.52634 8.54196 5.10204 8.31813 4.74309L5.99482 0.99002C5.90557 0.845735 5.78484 0.723514 5.64166 0.632509C5.49848 0.541504 5.33656 0.484075 5.16803 0.464524C4.99951 0.444972 4.82874 0.463805 4.66853 0.519611C4.50832 0.575417 4.36281 0.66675 4.2429 0.78677L1.88595 3.1438C1.12739 3.90311 0.640444 4.89141 0.500546 5.95555C0.360648 7.01968 0.575613 8.10026 1.11213 9.02983C2.50464 11.4978 4.22951 13.7629 6.23838 15.7615C8.23705 17.7704 10.5022 19.4953 12.9703 20.8878C13.8998 21.4246 14.9804 21.6397 16.0446 21.4998C17.1088 21.3599 18.0971 20.8728 18.8563 20.1139L21.2132 17.757C21.3335 17.6373 21.425 17.4919 21.4809 17.3316C21.5367 17.1714 21.5554 17.0005 21.5355 16.832Z" fill="white"/>
</svg>
