<svg width="58" height="58" viewBox="0 0 58 58" fill="none" xmlns="http://www.w3.org/2000/svg">
<path d="M28.802 24.4878C26.3048 24.4878 24.2906 26.5025 24.2906 29.0002C24.2906 31.4979 26.3048 33.5126 28.802 33.5126C31.2991 33.5126 33.3134 31.4979 33.3134 29.0002C33.3134 26.5025 31.2991 24.4878 28.802 24.4878ZM28.802 31.9339C27.1882 31.9339 25.869 30.6182 25.869 29.0002C25.869 27.3822 27.1843 26.0665 28.802 26.0665C30.4196 26.0665 31.735 27.3822 31.735 29.0002C31.735 30.6182 30.4157 31.9339 28.802 31.9339ZM34.5502 24.3032C34.5502 24.8884 34.079 25.3557 33.4979 25.3557C32.9129 25.3557 32.4456 24.8844 32.4456 24.3032C32.4456 23.722 32.9168 23.2507 33.4979 23.2507C34.079 23.2507 34.5502 23.722 34.5502 24.3032ZM37.5382 25.3714C37.4714 23.9615 37.1494 22.7127 36.1168 21.6837C35.0881 20.6548 33.8395 20.3327 32.4299 20.262C30.9772 20.1796 26.6228 20.1796 25.1701 20.262C23.7644 20.3288 22.5158 20.6508 21.4832 21.6798C20.4506 22.7087 20.1325 23.9576 20.0618 25.3675C19.9794 26.8206 19.9794 31.1759 20.0618 32.629C20.1286 34.0389 20.4506 35.2877 21.4832 36.3167C22.5158 37.3456 23.7605 37.6677 25.1701 37.7383C26.6228 37.8208 30.9772 37.8208 32.4299 37.7383C33.8395 37.6716 35.0881 37.3495 36.1168 36.3167C37.1455 35.2877 37.4675 34.0389 37.5382 32.629C37.6206 31.1759 37.6206 26.8245 37.5382 25.3714ZM35.6613 34.1881C35.3551 34.9578 34.7622 35.5509 33.9887 35.8611C32.8304 36.3206 30.082 36.2146 28.802 36.2146C27.522 36.2146 24.7696 36.3167 23.6152 35.8611C22.8456 35.5548 22.2528 34.9618 21.9426 34.1881C21.4832 33.0296 21.5892 30.2805 21.5892 29.0002C21.5892 27.7199 21.4871 24.9669 21.9426 23.8123C22.2488 23.0425 22.8417 22.4495 23.6152 22.1393C24.7735 21.6798 27.522 21.7858 28.802 21.7858C30.082 21.7858 32.8344 21.6837 33.9887 22.1393C34.7583 22.4456 35.3512 23.0386 35.6613 23.8123C36.1207 24.9708 36.0147 27.7199 36.0147 29.0002C36.0147 30.2805 36.1207 33.0335 35.6613 34.1881Z" fill="#72737C"/>
</svg>
