<svg width="20" height="20" viewBox="0 0 20 20" fill="none" xmlns="http://www.w3.org/2000/svg">
<path d="M17.8286 0.799805H1.36714C0.612857 0.799805 0 1.39534 0 2.12641V17.8732C0 18.6043 0.612857 19.1998 1.36714 19.1998H17.8286C18.5829 19.1998 19.2 18.6043 19.2 17.8732V2.12641C19.2 1.39534 18.5829 0.799805 17.8286 0.799805ZM5.80286 16.5712H2.95714V7.79016H5.80714V16.5712H5.80286ZM4.38 6.59088C3.46714 6.59088 2.73 5.88034 2.73 5.00963C2.73 4.13891 3.46714 3.42838 4.38 3.42838C5.28857 3.42838 6.03 4.13891 6.03 5.00963C6.03 5.88445 5.29286 6.59088 4.38 6.59088V6.59088ZM16.47 16.5712H13.6243V12.2998C13.6243 11.2812 13.6029 9.97105 12.1457 9.97105C10.6629 9.97105 10.4357 11.08 10.4357 12.2259V16.5712H7.59V7.79016H10.32V8.98945H10.3586C10.74 8.29945 11.67 7.57248 13.0543 7.57248C15.9343 7.57248 16.47 9.39195 16.47 11.7577V16.5712V16.5712Z" fill="white"/>
</svg>
