<svg width="58" height="58" viewBox="0 0 58 58" fill="none" xmlns="http://www.w3.org/2000/svg">
<path d="M41.4776 23.0166C41.1901 21.908 40.3429 21.0349 39.2673 20.7386C37.3177 20.2002 29.5 20.2002 29.5 20.2002C29.5 20.2002 21.6823 20.2002 19.7327 20.7386C18.6571 21.0349 17.8099 21.908 17.5224 23.0166C17 25.026 17 29.2184 17 29.2184C17 29.2184 17 33.4108 17.5224 35.4202C17.8099 36.5288 18.6571 37.3655 19.7327 37.6618C21.6823 38.2002 29.5 38.2002 29.5 38.2002C29.5 38.2002 37.3177 38.2002 39.2673 37.6618C40.3429 37.3655 41.1901 36.5288 41.4776 35.4202C42 33.4108 42 29.2184 42 29.2184C42 29.2184 42 25.026 41.4776 23.0166ZM26.9432 33.0248V25.412L33.4772 29.2185L26.9432 33.0248Z" fill="#72737C"/>
</svg>
