<svg width="18" height="16" viewBox="0 0 18 16" fill="none" xmlns="http://www.w3.org/2000/svg">
<path d="M15.7908 4.0894C15.802 4.25995 15.802 4.43054 15.802 4.60109C15.802 9.80309 12.1726 15.797 5.53908 15.797C3.49542 15.797 1.59696 15.1513 0 14.0305C0.290366 14.0671 0.569525 14.0793 0.871063 14.0793C2.55733 14.0793 4.10963 13.458 5.34923 12.3981C3.76344 12.3615 2.43451 11.2285 1.97663 9.6691C2.2 9.70563 2.42333 9.73 2.65788 9.73C2.98172 9.73 3.3056 9.68125 3.60711 9.59601C1.95432 9.2305 0.714691 7.64676 0.714691 5.73408V5.68536C1.19488 5.97775 1.7533 6.16049 2.34513 6.18483C1.37356 5.47821 0.737034 4.27214 0.737034 2.90766C0.737034 2.17671 0.915681 1.50666 1.22839 0.921888C3.00403 3.3097 5.67308 4.86906 8.66594 5.03965C8.61011 4.74726 8.5766 4.44273 8.5766 4.13815C8.5766 1.9696 10.1847 0.203125 12.1837 0.203125C13.2223 0.203125 14.1603 0.67825 14.8192 1.44576C15.6344 1.27521 16.4162 0.946263 17.1086 0.495513C16.8405 1.40924 16.271 2.17675 15.5228 2.66403C16.2487 2.57879 16.9522 2.35945 17.5999 2.05491C17.1086 2.83458 16.4944 3.52896 15.7908 4.0894V4.0894Z" fill="#72737C"/>
</svg>
