<svg width="16" height="20" viewBox="0 0 16 20" fill="none" xmlns="http://www.w3.org/2000/svg">
<path d="M14.7848 4.36242C14.2161 3.24114 13.3747 2.28082 12.3378 1.56975C11.3009 0.85867 10.102 0.419658 8.85111 0.29307C8.28526 0.236295 7.71514 0.236295 7.14929 0.29307C5.89845 0.419741 4.6995 0.858741 3.66261 1.56973C2.62572 2.28072 1.78415 3.2409 1.21521 4.36204C0.499406 5.79256 0.222919 7.4029 0.420577 8.99025C0.618235 10.5776 1.2812 12.071 2.32596 13.2822L7.42064 19.4763C7.49099 19.5619 7.57944 19.6309 7.67962 19.6782C7.7798 19.7255 7.88922 19.7501 8.00001 19.7501C8.11081 19.7501 8.22023 19.7255 8.32041 19.6782C8.42058 19.6309 8.50903 19.5619 8.57939 19.4763L13.6741 13.2822C14.7188 12.071 15.3818 10.5777 15.5794 8.99044C15.7771 7.40315 15.5006 5.79287 14.7848 4.36242ZM8.00001 10.7499C7.40667 10.7499 6.82665 10.5739 6.3333 10.2443C5.83995 9.91463 5.45544 9.4461 5.22837 8.89792C5.00131 8.34974 4.9419 7.74654 5.05766 7.1646C5.17341 6.58266 5.45913 6.04811 5.87869 5.62855C6.29825 5.20899 6.8328 4.92327 7.41474 4.80751C7.99668 4.69176 8.59988 4.75117 9.14806 4.97823C9.69624 5.20529 10.1648 5.58981 10.4944 6.08316C10.8241 6.57651 11 7.15653 11 7.74987C10.9991 8.54523 10.6827 9.30775 10.1203 9.87016C9.55789 10.4326 8.79537 10.7489 8.00001 10.7499Z" fill="white"/>
</svg>
