<svg width="246" height="241" viewBox="0 0 246 241" fill="none" xmlns="http://www.w3.org/2000/svg">
<g filter="url(#filter0_d_409_29)">
<rect x="50" y="25" width="146" height="141" rx="24" fill="white"/>
</g>
<path d="M90.6692 131.347C84.3721 125.05 80.0836 117.027 78.3463 108.293C76.6089 99.5582 77.5006 90.5048 80.9086 82.2771C84.3166 74.0495 90.0878 67.0172 97.4925 62.0696C104.897 57.1219 113.603 54.4811 122.508 54.4811C131.414 54.4811 140.119 57.1219 147.524 62.0696C154.929 67.0172 160.7 74.0495 164.108 82.2771C167.516 90.5048 168.408 99.5582 166.67 108.293C164.933 117.027 160.644 125.05 154.347 131.347L140.229 117.229C143.733 113.724 146.12 109.259 147.087 104.397C148.054 99.5361 147.558 94.4973 145.661 89.9181C143.764 85.3389 140.552 81.425 136.431 78.6714C132.31 75.9177 127.465 74.448 122.508 74.448C117.552 74.448 112.707 75.9177 108.585 78.6714C104.464 81.425 101.252 85.3389 99.3555 89.9181C97.4588 94.4973 96.9625 99.5361 97.9294 104.397C98.8964 109.259 101.283 113.724 104.788 117.229L90.6692 131.347Z" fill="#E8ECFF"/>
<path d="M90.6693 131.347C85.6733 126.351 81.9232 120.25 79.722 113.536C77.5209 106.823 76.9305 99.6851 77.9986 92.701C79.0668 85.7169 81.7634 79.0822 85.8706 73.3333C89.9778 67.5844 95.3801 62.8827 101.641 59.6084C107.902 56.3341 114.845 54.579 121.91 54.4851C128.974 54.3912 135.962 55.9611 142.308 59.0678C148.653 62.1746 154.179 66.731 158.437 72.3687C162.696 78.0064 165.568 84.5671 166.821 91.5203L147.129 95.0701C146.433 91.2068 144.837 87.5616 142.471 84.4292C140.105 81.2968 137.035 78.7652 133.509 77.039C129.983 75.3129 126.101 74.4406 122.176 74.4928C118.251 74.545 114.393 75.5201 110.914 77.3394C107.436 79.1587 104.434 81.771 102.152 84.9652C99.8699 88.1593 98.3716 91.8456 97.7782 95.7261C97.1847 99.6065 97.5127 103.572 98.7357 107.302C99.9587 111.033 102.042 114.423 104.818 117.198L90.6693 131.347Z" fill="url(#paint0_linear_409_29)"/>
<circle cx="122.643" cy="99.6425" r="6.78891" fill="#FD5353"/>
<g filter="url(#filter1_d_409_29)">
<path fill-rule="evenodd" clip-rule="evenodd" d="M145.9 93.7521L122.404 98.6379L122.962 101.322L148.799 96.237L165.16 92.8919L170.931 91.7687C170.654 91.2745 170.106 89.8036 169.774 89.27C169.713 89.1731 169.652 89.0765 169.591 88.9801L165.956 89.6878L145.9 93.7521Z" fill="#FD5353"/>
</g>
<defs>
<filter id="filter0_d_409_29" x="0" y="0" width="246" height="241" filterUnits="userSpaceOnUse" color-interpolation-filters="sRGB">
<feFlood flood-opacity="0" result="BackgroundImageFix"/>
<feColorMatrix in="SourceAlpha" type="matrix" values="0 0 0 0 0 0 0 0 0 0 0 0 0 0 0 0 0 0 127 0" result="hardAlpha"/>
<feOffset dy="25"/>
<feGaussianBlur stdDeviation="25"/>
<feColorMatrix type="matrix" values="0 0 0 0 0 0 0 0 0 0 0 0 0 0 0 0 0 0 0.1 0"/>
<feBlend mode="normal" in2="BackgroundImageFix" result="effect1_dropShadow_409_29"/>
<feBlend mode="normal" in="SourceGraphic" in2="effect1_dropShadow_409_29" result="shape"/>
</filter>
<filter id="filter1_d_409_29" x="75.4038" y="41.9801" width="142.527" height="106.342" filterUnits="userSpaceOnUse" color-interpolation-filters="sRGB">
<feFlood flood-opacity="0" result="BackgroundImageFix"/>
<feColorMatrix in="SourceAlpha" type="matrix" values="0 0 0 0 0 0 0 0 0 0 0 0 0 0 0 0 0 0 127 0" result="hardAlpha"/>
<feOffset/>
<feGaussianBlur stdDeviation="23.5"/>
<feColorMatrix type="matrix" values="0 0 0 0 1 0 0 0 0 0.368627 0 0 0 0 0.294118 0 0 0 1 0"/>
<feBlend mode="normal" in2="BackgroundImageFix" result="effect1_dropShadow_409_29"/>
<feBlend mode="normal" in="SourceGraphic" in2="effect1_dropShadow_409_29" result="shape"/>
</filter>
<linearGradient id="paint0_linear_409_29" x1="96.9972" y1="129.767" x2="160.775" y2="117.835" gradientUnits="userSpaceOnUse">
<stop stop-color="#1B8271"/>
<stop offset="1" stop-color="#41C294"/>
</linearGradient>
</defs>
</svg>
