<svg width="22" height="22" viewBox="0 0 22 22" fill="none" xmlns="http://www.w3.org/2000/svg">
<path d="M21.5355 16.8319C21.5164 16.6632 21.4591 16.5011 21.3681 16.3579C21.2771 16.2146 21.1546 16.0939 21.01 16.005L17.2571 13.6812C16.898 13.4577 16.4738 13.3625 16.0536 13.4114C15.6335 13.4602 15.2423 13.6501 14.9441 13.95L13.6983 15.1962C13.652 15.2433 13.5936 15.2767 13.5295 15.2926C13.4655 15.3085 13.3982 15.3063 13.3353 15.2862C12.6538 15.0562 11.2391 14.3985 9.42033 12.5799C7.60158 10.7613 6.94402 9.34593 6.71385 8.66441C6.6939 8.60156 6.69176 8.53442 6.70764 8.47042C6.72353 8.40643 6.75683 8.34808 6.80385 8.30186L8.04971 7.056C8.34979 6.75785 8.53977 6.36667 8.58854 5.94647C8.6373 5.52628 8.54196 5.10198 8.31813 4.74303L5.99482 0.989959C5.90557 0.845674 5.78484 0.723452 5.64166 0.632448C5.49848 0.541443 5.33656 0.484014 5.16803 0.464463C4.99951 0.444911 4.82874 0.463744 4.66853 0.51955C4.50832 0.575356 4.36281 0.666689 4.2429 0.786709L1.88595 3.14373C1.12739 3.90305 0.640444 4.89135 0.500546 5.95548C0.360648 7.01962 0.575613 8.1002 1.11213 9.02977C2.50464 11.4978 4.22951 13.7628 6.23838 15.7615C8.23705 17.7704 10.5022 19.4953 12.9703 20.8877C13.8998 21.4245 14.9804 21.6397 16.0446 21.4998C17.1088 21.3598 18.0971 20.8727 18.8563 20.1139L21.2132 17.757C21.3335 17.6373 21.425 17.4918 21.4809 17.3315C21.5367 17.1713 21.5554 17.0004 21.5355 16.8319Z" fill="#1B8271"/>
</svg>
