<svg width="21" height="11" viewBox="0 0 21 11" fill="none" xmlns="http://www.w3.org/2000/svg">
<path d="M19.66 2.75001L10.66 10.75C10.4775 10.9103 10.2429 10.9988 9.99999 10.9988C9.75709 10.9988 9.52248 10.9103 9.33999 10.75L0.339993 2.75001C0.15416 2.57151 0.0443991 2.32817 0.0335951 2.07073C0.0227911 1.81329 0.111778 1.56161 0.282002 1.36817C0.452226 1.17473 0.690547 1.05447 0.947275 1.03246C1.204 1.01044 1.45932 1.08837 1.65999 1.25L9.99999 8.66001L18.34 1.25C18.4373 1.15649 18.5526 1.08366 18.6789 1.0359C18.8051 0.988132 18.9398 0.966426 19.0746 0.972086C19.2095 0.977746 19.3418 1.01066 19.4637 1.06883C19.5855 1.127 19.6942 1.20924 19.7834 1.31058C19.8726 1.41192 19.9403 1.53027 19.9826 1.65849C20.0248 1.78671 20.0406 1.92215 20.0291 2.05665C20.0175 2.19115 19.9789 2.32192 19.9155 2.44108C19.852 2.56024 19.7651 2.66533 19.66 2.75001Z" fill="#1B8271"/>
</svg>