<svg width="22" height="22" viewBox="0 0 22 22" fill="none" xmlns="http://www.w3.org/2000/svg">
<path d="M21.5356 16.8319C21.5165 16.6632 21.4592 16.5011 21.3682 16.3579C21.2771 16.2146 21.1547 16.0939 21.0101 16.005L17.2571 13.6812C16.8981 13.4577 16.4738 13.3625 16.0537 13.4114C15.6335 13.4602 15.2424 13.6501 14.9442 13.95L13.6983 15.1962C13.6521 15.2433 13.5937 15.2767 13.5296 15.2926C13.4655 15.3085 13.3983 15.3063 13.3354 15.2862C12.6539 15.0562 11.2391 14.3985 9.42039 12.5799C7.60164 10.7613 6.94408 9.34593 6.71391 8.66441C6.69396 8.60156 6.69182 8.53442 6.7077 8.47042C6.72359 8.40643 6.75689 8.34808 6.80391 8.30186L8.04977 7.056C8.34986 6.75785 8.53983 6.36667 8.5886 5.94647C8.63736 5.52628 8.54202 5.10198 8.31819 4.74303L5.99488 0.989959C5.90564 0.845674 5.7849 0.723452 5.64172 0.632448C5.49854 0.541443 5.33662 0.484014 5.16809 0.464463C4.99957 0.444911 4.82881 0.463744 4.66859 0.51955C4.50838 0.575356 4.36287 0.666689 4.24296 0.786709L1.88601 3.14373C1.12746 3.90305 0.640505 4.89135 0.500607 5.95548C0.360709 7.01962 0.575674 8.1002 1.11219 9.02977C2.5047 11.4978 4.22957 13.7628 6.23844 15.7615C8.23712 17.7704 10.5022 19.4953 12.9703 20.8877C13.8998 21.4245 14.9805 21.6397 16.0447 21.4998C17.1089 21.3598 18.0972 20.8727 18.8563 20.1139L21.2133 17.757C21.3336 17.6373 21.4251 17.4918 21.4809 17.3315C21.5368 17.1713 21.5555 17.0004 21.5356 16.8319Z" fill="white"/>
</svg>
