<svg width="24" height="24" viewBox="0 0 24 24" fill="none" xmlns="http://www.w3.org/2000/svg">
<path d="M12 11.25C9.81196 11.25 7.71354 12.1192 6.16637 13.6664C4.61919 15.2135 3.75 17.312 3.75 19.5V21C3.75 21.5967 3.98705 22.169 4.40901 22.591C4.83097 23.0129 5.40326 23.25 6 23.25H18C18.5967 23.25 19.169 23.0129 19.591 22.591C20.0129 22.169 20.25 21.5967 20.25 21V19.5C20.25 17.312 19.3808 15.2135 17.8336 13.6664C16.2865 12.1192 14.188 11.25 12 11.25Z" fill="#FF7468"/>
<path d="M12 9.75C14.4853 9.75 16.5 7.73528 16.5 5.25C16.5 2.76472 14.4853 0.75 12 0.75C9.51472 0.75 7.5 2.76472 7.5 5.25C7.5 7.73528 9.51472 9.75 12 9.75Z" fill="#FF7468"/>
</svg>
