<svg width="20" height="20" viewBox="0 0 20 20" fill="none" xmlns="http://www.w3.org/2000/svg">
<path d="M7.59 11H1C0.734784 11 0.48043 10.8946 0.292893 10.7071C0.105357 10.5196 0 10.2652 0 10C0 9.73478 0.105357 9.48043 0.292893 9.29289C0.48043 9.10536 0.734784 9 1 9H7.59L7.29 8.71C7.1017 8.5217 6.99591 8.2663 6.99591 8C6.99591 7.7337 7.1017 7.4783 7.29 7.29C7.4783 7.1017 7.7337 6.99591 8 6.99591C8.2663 6.99591 8.5217 7.1017 8.71 7.29L10.71 9.29C10.8037 9.38296 10.8781 9.49356 10.9289 9.61542C10.9797 9.73728 11.0058 9.86799 11.0058 10C11.0058 10.132 10.9797 10.2627 10.9289 10.3846C10.8781 10.5064 10.8037 10.617 10.71 10.71L8.71 12.71C8.61704 12.8037 8.50644 12.8781 8.38458 12.9289C8.26272 12.9797 8.13201 13.0058 8 13.0058C7.86799 13.0058 7.73728 12.9797 7.61542 12.9289C7.49356 12.8781 7.38296 12.8037 7.29 12.71C7.19627 12.617 7.12188 12.5064 7.07111 12.3846C7.02034 12.2627 6.9942 12.132 6.9942 12C6.9942 11.868 7.02034 11.7373 7.07111 11.6154C7.12188 11.4936 7.19627 11.383 7.29 11.29L7.59 11ZM17 0H7C6.20435 0 5.44129 0.316071 4.87868 0.87868C4.31607 1.44129 4 2.20435 4 3V6C4 6.26522 4.10536 6.51957 4.29289 6.70711C4.48043 6.89464 4.73478 7 5 7C5.26522 7 5.51957 6.89464 5.70711 6.70711C5.89464 6.51957 6 6.26522 6 6V3C6 2.73478 6.10536 2.48043 6.29289 2.29289C6.48043 2.10536 6.73478 2 7 2H17C17.2652 2 17.5196 2.10536 17.7071 2.29289C17.8946 2.48043 18 2.73478 18 3V17C18 17.2652 17.8946 17.5196 17.7071 17.7071C17.5196 17.8946 17.2652 18 17 18H7C6.73478 18 6.48043 17.8946 6.29289 17.7071C6.10536 17.5196 6 17.2652 6 17V14C6 13.7348 5.89464 13.4804 5.70711 13.2929C5.51957 13.1054 5.26522 13 5 13C4.73478 13 4.48043 13.1054 4.29289 13.2929C4.10536 13.4804 4 13.7348 4 14V17C4 17.7956 4.31607 18.5587 4.87868 19.1213C5.44129 19.6839 6.20435 20 7 20H17C17.7956 20 18.5587 19.6839 19.1213 19.1213C19.6839 18.5587 20 17.7956 20 17V3C20 2.20435 19.6839 1.44129 19.1213 0.87868C18.5587 0.316071 17.7956 0 17 0Z" fill="#1B8271"/>
</svg>
