<svg width="18" height="18" viewBox="0 0 18 18" fill="none" xmlns="http://www.w3.org/2000/svg">
<path d="M17.2108 6.99142C17.1669 6.8604 17.0876 6.74407 16.9817 6.65527C16.8758 6.56646 16.7475 6.50863 16.6108 6.48817L11.8243 5.75692L9.67633 1.18192C9.61576 1.05307 9.51977 0.944124 9.39958 0.867812C9.27938 0.791501 9.13995 0.750977 8.99758 0.750977C8.85521 0.750977 8.71577 0.791501 8.59558 0.867812C8.47539 0.944124 8.3794 1.05307 8.31883 1.18192L6.17083 5.75692L1.38433 6.48817C1.24799 6.50895 1.12003 6.56692 1.0145 6.6557C0.908972 6.74449 0.829967 6.86065 0.786171 6.99142C0.742374 7.12219 0.735481 7.26251 0.766251 7.39694C0.79702 7.53137 0.86426 7.65472 0.960578 7.75342L4.44883 11.3249L3.62383 16.3784C3.60131 16.5171 3.61821 16.6593 3.67259 16.7889C3.72697 16.9184 3.81665 17.0301 3.93141 17.1112C4.04617 17.1922 4.18139 17.2394 4.32167 17.2474C4.46195 17.2553 4.60164 17.2237 4.72483 17.1562L8.99983 14.7952L13.2748 17.1562C13.398 17.2243 13.5379 17.2564 13.6785 17.2488C13.819 17.2412 13.9546 17.1941 14.0697 17.1131C14.1848 17.032 14.2748 16.9202 14.3293 16.7904C14.3838 16.6606 14.4007 16.5181 14.3781 16.3792L13.5531 11.3257L17.0391 7.75342C17.1349 7.65444 17.2017 7.53096 17.232 7.39654C17.2623 7.26212 17.255 7.12195 17.2108 6.99142Z" fill="url(#paint0_linear_438_2452)"/>
<defs>
<linearGradient id="paint0_linear_438_2452" x1="14.3623" y1="0.0552394" x2="0.302271" y2="16.1395" gradientUnits="userSpaceOnUse">
<stop stop-color="#FF827A"/>
<stop offset="1" stop-color="#FFA825"/>
</linearGradient>
</defs>
</svg>
