<svg width="86" height="90" viewBox="0 0 86 90" fill="none" xmlns="http://www.w3.org/2000/svg">
<path d="M74.9048 11.2466C67.7676 4.07054 58.2691 0.0767919 48.159 0.00103022C37.2349 -0.0777198 26.7568 4.64587 19.4291 12.97C19.2159 13.2122 19.0025 13.4606 18.7898 13.7107H3.53711C1.59543 13.7107 0.0214844 15.2847 0.0214844 17.2264V38.6717C0.0214844 40.3822 1.24352 41.8059 2.86176 42.1209C2.40121 43.3069 1.95508 44.4976 1.52986 45.6868C0.723379 47.9431 1.06545 50.4594 2.44551 52.4181C3.82557 54.377 6.08031 55.5465 8.47692 55.5465H9.86524V62.1383C9.86524 69.8438 16.1343 76.1129 23.8398 76.1129H27.2676C29.2061 76.1129 30.7832 77.69 30.7832 79.6285V86.484C30.7832 88.4257 32.3572 89.9996 34.2988 89.9996H73.4981C75.4397 89.9996 77.0137 88.4257 77.0137 86.484V75.6156C77.0137 73.8643 77.1137 72.0949 77.3108 70.3568C77.5298 68.4276 76.1432 66.6861 74.214 66.4673C72.2834 66.2479 70.5434 67.635 70.3245 69.5642C70.0974 71.5644 69.9824 73.6005 69.9824 75.6156V82.9684H37.8145V79.6285C37.8145 73.813 33.0831 69.0817 27.2676 69.0817H23.8398C20.0113 69.0817 16.8965 65.9668 16.8965 62.1383V52.0309C16.8965 50.0892 15.3225 48.5153 13.3809 48.5153H8.47674C8.42752 48.5153 8.29692 48.5153 8.19356 48.3687C8.09037 48.2224 8.13432 48.0997 8.15084 48.0537C8.85221 46.0918 9.61035 44.1255 10.4073 42.1871H31.0822C32.3441 46.0596 35.987 48.8668 40.2752 48.8668H76.8806C76.5199 49.7897 76.1149 50.7048 75.6605 51.6101C74.7893 53.3454 75.4898 55.4583 77.2251 56.3293C77.7312 56.5834 78.2693 56.7037 78.7996 56.7037C80.087 56.7037 81.3273 55.9937 81.9443 54.7646C84.6178 49.439 85.9752 43.8247 85.9783 38.0779C85.9841 27.961 82.0514 18.432 74.9048 11.2466ZM7.05273 35.1561V20.742H34.8262C38.8001 20.742 42.0332 23.9751 42.0332 27.949C42.0332 31.9229 38.8001 35.1561 34.8262 35.1561H7.05273ZM55.9199 41.8357H40.2754C39.8409 41.8357 39.4316 41.7282 39.0699 41.5413C42.6003 40.4367 45.5425 37.9911 47.3008 34.8045H55.9199V41.8357ZM78.6985 41.8357H62.9512V31.2889C62.9512 29.3472 61.3772 27.7732 59.4356 27.7732H49.0601C48.9651 20.0032 42.6184 13.7107 34.8262 13.7107H28.8225C34.2514 9.41482 40.9036 7.03105 47.834 7.03105C64.8494 7.15884 78.9568 21.0851 78.9473 38.0742C78.9466 39.3356 78.8615 40.59 78.6985 41.8357Z" fill="#1B8271"/>
</svg>
