<svg width="91" height="90" viewBox="0 0 91 90" fill="none" xmlns="http://www.w3.org/2000/svg">
<path d="M53.166 7.49998H38.166C35.1823 7.49998 32.3208 8.68524 30.2111 10.795C28.1013 12.9048 26.916 15.7663 26.916 18.75V22.5H19.416C16.4323 22.5 13.5708 23.6852 11.4611 25.795C9.35128 27.9048 8.16602 30.7663 8.16602 33.75V71.25C8.16602 74.2337 9.35128 77.0952 11.4611 79.2049C13.5708 81.3147 16.4323 82.5 19.416 82.5H71.916C74.8997 82.5 77.7612 81.3147 79.871 79.2049C81.9808 77.0952 83.166 74.2337 83.166 71.25V33.75C83.166 30.7663 81.9808 27.9048 79.871 25.795C77.7612 23.6852 74.8997 22.5 71.916 22.5H64.416V18.75C64.416 15.7663 63.2308 12.9048 61.121 10.795C59.0112 8.68524 56.1497 7.49998 53.166 7.49998V7.49998ZM34.416 18.75C34.416 17.7554 34.8111 16.8016 35.5144 16.0983C36.2176 15.3951 37.1715 15 38.166 15H53.166C54.1606 15 55.1144 15.3951 55.8177 16.0983C56.5209 16.8016 56.916 17.7554 56.916 18.75V22.5H34.416V18.75ZM75.666 33.75V71.25C75.666 72.2445 75.2709 73.1984 74.5677 73.9016C73.8644 74.6049 72.9106 75 71.916 75H19.416C18.4215 75 17.4676 74.6049 16.7644 73.9016C16.0611 73.1984 15.666 72.2445 15.666 71.25V33.75C15.666 32.7554 16.0611 31.8016 16.7644 31.0983C17.4676 30.3951 18.4215 30 19.416 30H71.916C72.9106 30 73.8644 30.3951 74.5677 31.0983C75.2709 31.8016 75.666 32.7554 75.666 33.75Z" fill="#1B8271"/>
<path d="M49.416 41.25H41.916V48.75H34.416V56.25H41.916V63.75H49.416V56.25H56.916V48.75H49.416V41.25Z" fill="#1B8271"/>
</svg>
