<svg width="81" height="81" viewBox="0 0 81 81" fill="none" xmlns="http://www.w3.org/2000/svg">
<rect width="81" height="81" rx="14" fill="#F6FBFA"/>
<path d="M58.0159 22.9982C54.2094 19.1709 49.1435 17.0409 43.7515 17.0005C37.9253 16.9585 32.3369 19.4778 28.4289 23.9173C28.3152 24.0465 28.2013 24.179 28.0879 24.3124H19.9531C18.9176 24.3124 18.0781 25.1518 18.0781 26.1874V37.6249C18.0781 38.5371 18.7299 39.2964 19.5929 39.4644C19.3473 40.097 19.1094 40.732 18.8826 41.3662C18.4525 42.5696 18.6349 43.9116 19.3709 44.9563C20.107 46.001 21.3095 46.6248 22.5877 46.6248H23.3281V50.1404C23.3281 54.25 26.6716 57.5935 30.7813 57.5935H32.6094C33.6433 57.5935 34.4844 58.4346 34.4844 59.4685V63.1248C34.4844 64.1603 35.3238 64.9998 36.3594 64.9998H57.2656C58.3012 64.9998 59.1406 64.1603 59.1406 63.1248V57.3283C59.1406 56.3943 59.194 55.4506 59.2991 54.5236C59.4159 53.4947 58.6764 52.5659 57.6475 52.4492C56.6178 52.3322 55.6898 53.072 55.5731 54.1009C55.4519 55.1676 55.3906 56.2536 55.3906 57.3283V61.2498H38.2344V59.4685C38.2344 56.3669 35.711 53.8435 32.6094 53.8435H30.7813C28.7394 53.8435 27.0781 52.1823 27.0781 50.1404V44.7498C27.0781 43.7142 26.2387 42.8748 25.2031 42.8748H22.5876C22.5613 42.8748 22.4917 42.8748 22.4366 42.7966C22.3815 42.7186 22.405 42.6531 22.4138 42.6286C22.7878 41.5822 23.1922 40.5335 23.6173 39.4998H34.6438C35.3169 41.5651 37.2598 43.0623 39.5468 43.0623H59.0697C58.8773 43.5545 58.6613 44.0425 58.4189 44.5253C57.9543 45.4508 58.3279 46.5777 59.2534 47.0422C59.5233 47.1778 59.8103 47.2419 60.0931 47.2419C60.7798 47.2419 61.4413 46.8633 61.7703 46.2078C63.1962 43.3674 63.9201 40.3731 63.9218 37.3082C63.9249 31.9125 61.8274 26.8304 58.0159 22.9982V22.9982ZM21.8281 35.7499V28.0624H36.6406C38.76 28.0624 40.4844 29.7867 40.4844 31.9061C40.4844 34.0255 38.76 35.7499 36.6406 35.7499H21.8281ZM47.8906 39.3124H39.5469C39.3151 39.3124 39.0969 39.255 38.9039 39.1553C40.7868 38.5662 42.356 37.2619 43.2938 35.5624H47.8906V39.3124ZM60.0392 39.3124H51.6406V33.6874C51.6406 32.6518 50.8012 31.8124 49.7656 31.8124H44.232C44.1814 27.6683 40.7965 24.3124 36.6406 24.3124H33.4387C36.3341 22.0212 39.8819 20.7499 43.5781 20.7499C52.653 20.818 60.1769 28.2454 60.1719 37.3062C60.1715 37.979 60.1261 38.648 60.0392 39.3124V39.3124Z" fill="#1B8271"/>
</svg>
