<svg width="20" height="20" viewBox="0 0 20 20" fill="none" xmlns="http://www.w3.org/2000/svg">
<path d="M17 2.99991H16V0.999909C16 0.734692 15.8946 0.480338 15.7071 0.292802C15.5196 0.105265 15.2652 -9.15527e-05 15 -9.15527e-05C14.7348 -9.15527e-05 14.4804 0.105265 14.2929 0.292802C14.1054 0.480338 14 0.734692 14 0.999909V2.99991H6V0.999909C6 0.734692 5.89464 0.480338 5.70711 0.292802C5.51957 0.105265 5.26522 -9.15527e-05 5 -9.15527e-05C4.73478 -9.15527e-05 4.48043 0.105265 4.29289 0.292802C4.10536 0.480338 4 0.734692 4 0.999909V2.99991H3C2.20435 2.99991 1.44129 3.31598 0.87868 3.87859C0.316071 4.4412 0 5.20426 0 5.99991V6.99991H20V5.99991C20 5.20426 19.6839 4.4412 19.1213 3.87859C18.5587 3.31598 17.7957 2.99991 17 2.99991Z" fill="#2B6956"/>
<path d="M0 16.9999C0 17.7956 0.316071 18.5586 0.87868 19.1213C1.44129 19.6839 2.20435 19.9999 3 19.9999H17C17.7957 19.9999 18.5587 19.6839 19.1213 19.1213C19.6839 18.5586 20 17.7956 20 16.9999V8.99994H0V16.9999Z" fill="#2B6956"/>
</svg>
