<svg width="18" height="18" viewBox="0 0 18 18" fill="none" xmlns="http://www.w3.org/2000/svg">
<path d="M17.211 6.99142C17.1671 6.8604 17.0878 6.74407 16.9819 6.65527C16.8761 6.56646 16.7477 6.50863 16.611 6.48817L11.8245 5.75692L9.67654 1.18192C9.61598 1.05307 9.51998 0.944124 9.39979 0.867812C9.2796 0.791501 9.14016 0.750977 8.99779 0.750977C8.85542 0.750977 8.71599 0.791501 8.59579 0.867812C8.4756 0.944124 8.37961 1.05307 8.31904 1.18192L6.17104 5.75692L1.38454 6.48817C1.24821 6.50895 1.12024 6.56692 1.01471 6.6557C0.909186 6.74449 0.830181 6.86065 0.786384 6.99142C0.742587 7.12219 0.735695 7.26251 0.766464 7.39694C0.797234 7.53137 0.864473 7.65472 0.960792 7.75342L4.44904 11.3249L3.62404 16.3784C3.60153 16.5171 3.61842 16.6593 3.67281 16.7889C3.72719 16.9184 3.81687 17.0301 3.93163 17.1112C4.04638 17.1922 4.18161 17.2394 4.32188 17.2474C4.46216 17.2553 4.60185 17.2237 4.72504 17.1562L9.00004 14.7952L13.275 17.1562C13.3982 17.2243 13.5381 17.2564 13.6787 17.2488C13.8192 17.2412 13.9548 17.1941 14.0699 17.1131C14.185 17.032 14.275 16.9202 14.3295 16.7904C14.384 16.6606 14.4009 16.5181 14.3783 16.3792L13.5533 11.3257L17.0393 7.75342C17.1352 7.65444 17.2019 7.53096 17.2322 7.39654C17.2625 7.26212 17.2552 7.12195 17.211 6.99142V6.99142Z" fill="url(#paint0_linear_429_476)"/>
<defs>
<linearGradient id="paint0_linear_429_476" x1="14.3625" y1="0.0552394" x2="0.302484" y2="16.1395" gradientUnits="userSpaceOnUse">
<stop stop-color="#FF827A"/>
<stop offset="1" stop-color="#FFA825"/>
</linearGradient>
</defs>
</svg>
