<svg width="193" height="39" viewBox="0 0 193 39" fill="none" xmlns="http://www.w3.org/2000/svg">
<path d="M75.1176 30.5547H69.9062V19.9128H60.1413V30.5547H54.9131V5.89783H60.1413V15.5616H69.9062V5.89783H75.1176V30.5547Z" fill="#CACACA"/>
<path d="M80.7337 6.82541C80.7337 5.15014 81.6669 4.3125 83.5333 4.3125C85.3997 4.3125 86.3329 5.15014 86.3329 6.82541C86.3329 7.6237 86.0968 8.24771 85.6246 8.69745C85.1636 9.13595 84.4665 9.35519 83.5333 9.35519C81.6669 9.35519 80.7337 8.51193 80.7337 6.82541ZM86.0968 30.5547H80.9529V11.6995H86.0968V30.5547Z" fill="#CACACA"/>
<path d="M107.92 11.6995V14.3136L104.969 15.0725C105.509 15.9158 105.779 16.8602 105.779 17.9058C105.779 19.9297 105.07 21.5094 103.654 22.645C102.248 23.7693 100.292 24.3315 97.7844 24.3315L96.8568 24.2809L96.0979 24.1966C95.5695 24.6013 95.3052 25.0511 95.3052 25.5458C95.3052 26.2879 96.2497 26.6589 98.1386 26.6589H101.343C103.412 26.6589 104.986 27.103 106.065 27.9912C107.156 28.8795 107.701 30.1837 107.701 31.904C107.701 34.1077 106.779 35.8167 104.935 37.031C103.103 38.2453 100.466 38.8524 97.0255 38.8524C94.3945 38.8524 92.3819 38.3914 90.9877 37.4695C89.6048 36.5588 88.9133 35.277 88.9133 33.6242C88.9133 32.4886 89.2675 31.5385 89.9758 30.774C90.6842 30.0094 91.7242 29.4641 93.0959 29.1381C92.5674 28.9132 92.1065 28.5478 91.7129 28.0418C91.3194 27.5246 91.1227 26.9793 91.1227 26.4059C91.1227 25.6863 91.3307 25.0904 91.7467 24.6182C92.1627 24.1347 92.7642 23.6625 93.5513 23.2015C92.5618 22.7743 91.7748 22.0884 91.1901 21.144C90.6167 20.1995 90.33 19.0864 90.33 17.8047C90.33 15.7471 90.999 14.1562 92.337 13.0318C93.6749 11.9075 95.5863 11.3453 98.0711 11.3453C98.5996 11.3453 99.2236 11.3959 99.9432 11.4971C100.674 11.587 101.141 11.6545 101.343 11.6995H107.92ZM93.3657 33.2194C93.3657 33.9278 93.703 34.4843 94.3776 34.8891C95.0635 35.2939 96.0192 35.4962 97.2447 35.4962C99.0887 35.4962 100.533 35.2433 101.579 34.7373C102.625 34.2314 103.148 33.5399 103.148 32.6629C103.148 31.9546 102.838 31.4655 102.22 31.1956C101.602 30.9258 100.646 30.7909 99.3529 30.7909H96.6882C95.7437 30.7909 94.9511 31.0101 94.3102 31.4486C93.6805 31.8983 93.3657 32.4886 93.3657 33.2194ZM95.2378 17.8721C95.2378 18.8953 95.4683 19.7048 95.9292 20.3007C96.4015 20.8966 97.1154 21.1946 98.0711 21.1946C99.0381 21.1946 99.7464 20.8966 100.196 20.3007C100.646 19.7048 100.871 18.8953 100.871 17.8721C100.871 15.6009 99.9375 14.4653 98.0711 14.4653C96.1822 14.4653 95.2378 15.6009 95.2378 17.8721Z" fill="#CACACA"/>
<path d="M128.445 30.5547H123.301V19.5418C123.301 16.8209 122.29 15.4604 120.266 15.4604C118.827 15.4604 117.787 15.9495 117.146 16.9277C116.505 17.9058 116.184 19.4912 116.184 21.6837V30.5547H111.04V4.3125H116.184V9.65877C116.184 10.0748 116.145 11.053 116.066 12.5933L115.948 14.1112H116.218C117.365 12.2673 119.186 11.3453 121.682 11.3453C123.897 11.3453 125.578 11.9412 126.725 13.133C127.872 14.3248 128.445 16.0338 128.445 18.26V30.5547Z" fill="#CACACA"/>
<path d="M138.885 30.5547H133.741V4.3125H138.885V30.5547Z" fill="#CACACA"/>
<path d="M148.397 21.0934C148.397 22.9598 148.7 24.3708 149.308 25.3265C149.926 26.2822 150.927 26.7601 152.31 26.7601C153.681 26.7601 154.665 26.2879 155.261 25.3434C155.868 24.3877 156.172 22.971 156.172 21.0934C156.172 19.227 155.868 17.8271 155.261 16.8939C154.654 15.9607 153.659 15.4941 152.276 15.4941C150.904 15.4941 149.915 15.9607 149.308 16.8939C148.7 17.8159 148.397 19.2157 148.397 21.0934ZM161.434 21.0934C161.434 24.1628 160.624 26.5633 159.005 28.2948C157.386 30.0263 155.132 30.892 152.242 30.892C150.432 30.892 148.835 30.4985 147.452 29.7115C146.069 28.9132 145.007 27.772 144.265 26.2879C143.523 24.8037 143.152 23.0722 143.152 21.0934C143.152 18.0127 143.956 15.6178 145.564 13.9088C147.171 12.1998 149.431 11.3453 152.343 11.3453C154.154 11.3453 155.75 11.7388 157.133 12.5259C158.516 13.3129 159.578 14.4429 160.321 15.9158C161.063 17.3886 161.434 19.1145 161.434 21.0934Z" fill="#CACACA"/>
<path d="M181.183 30.5547L179.732 23.9605L177.776 15.629H177.658L174.217 30.5547H168.686L163.323 11.6995H168.45L170.625 20.0477C170.974 21.5431 171.328 23.6063 171.688 26.2373H171.789C171.834 25.3828 172.031 24.0279 172.379 22.1727L172.649 20.7392L174.976 11.6995H180.643L182.852 20.7392C182.897 20.9866 182.965 21.352 183.055 21.8354C183.156 22.3189 183.252 22.8361 183.342 23.387C183.432 23.9267 183.51 24.4608 183.578 24.9892C183.656 25.5064 183.701 25.9224 183.713 26.2373H183.814C183.915 25.4277 184.095 24.3202 184.353 22.9148C184.612 21.4981 184.798 20.5424 184.91 20.0477L187.17 11.6995H192.213L186.782 30.5547H181.183Z" fill="#CACACA"/>
<path d="M17.9342 34.54C27.8389 34.54 35.8684 26.808 35.8684 17.2701C35.8684 7.73212 27.8389 0.000114773 17.9342 0.000114655C8.02945 0.000114537 3.19678e-07 7.73218 2.05941e-07 17.2701C9.22034e-08 26.808 8.02938 34.54 17.9342 34.54ZM31.2402 17.2701L4.62818 17.2701C4.62818 10.1877 10.5805 4.45688 17.9342 4.45688C25.289 4.45688 31.2402 10.1888 31.2402 17.2701Z" fill="#CACACA"/>
</svg>
