<svg width="147" height="33" viewBox="0 0 147 33" fill="none" xmlns="http://www.w3.org/2000/svg">
<path d="M19.6155 29.3766C18.4791 30.2795 17.0001 30.9801 15.1787 31.4782C13.3572 31.9764 11.1155 32.2255 8.45336 32.2255C5.80682 32.2255 2.98903 31.9842 0 31.5016V0.723906C3.02017 0.241302 5.63557 0 7.84621 0C10.0724 0 11.8939 0.210166 13.3105 0.630499C14.7428 1.05083 15.9104 1.61906 16.8133 2.33518C18.588 3.72072 19.4754 5.51881 19.4754 7.72945C19.4754 9.92452 18.6737 11.746 17.0702 13.1938C18.9695 13.7854 20.4406 14.9062 21.4837 16.5564C22.4333 18.0354 22.9081 19.6778 22.9081 21.4837C22.9081 23.274 22.6435 24.8074 22.1142 26.084C21.6004 27.3605 20.7675 28.4581 19.6155 29.3766ZM6.18823 12.3298C6.84208 12.4387 7.65939 12.4932 8.64017 12.4932C9.62095 12.4932 10.4227 12.3687 11.0454 12.1196C11.6837 11.8549 12.1741 11.528 12.5166 11.1388C13.077 10.5005 13.3572 9.61316 13.3572 8.47671C13.3572 6.09482 11.9561 4.90388 9.15391 4.90388C7.97075 4.90388 6.98219 4.95058 6.18823 5.04399V12.3298ZM9.6443 17.327C8.3366 17.327 7.18457 17.4127 6.18823 17.5839V26.7612C7.27798 27.0414 8.42222 27.1815 9.62095 27.1815C10.8197 27.1815 11.8705 27.0414 12.7734 26.7612C13.6919 26.4654 14.4626 26.0684 15.0853 25.5702C16.3463 24.5428 16.9768 23.2351 16.9768 21.6471C16.9768 18.7671 14.5326 17.327 9.6443 17.327Z" fill="#CACACA"/>
<path d="M25.6169 19.5688C25.6169 17.8564 25.9049 16.2217 26.481 14.6649C27.0725 13.0926 27.9132 11.7226 29.0029 10.555C31.3848 8.03302 34.4751 6.77203 38.2736 6.77203C42.0566 6.77203 45.0612 7.96297 47.2874 10.3449C49.4202 12.6178 50.4866 15.5679 50.4866 19.1952C50.4866 22.8225 49.3891 25.8271 47.194 28.209C44.8744 30.731 41.7997 31.992 37.97 31.992C34.0158 31.992 30.9178 30.7543 28.676 28.279C26.6366 26.0217 25.6169 23.1183 25.6169 19.5688ZM31.2914 19.4287C31.2914 20.4095 31.4549 21.3591 31.7818 22.2776C32.1087 23.1961 32.5758 23.9823 33.1829 24.6362C34.4751 26.0528 36.172 26.7612 38.2736 26.7612C40.2196 26.7612 41.753 26.0684 42.8739 24.6829C43.9637 23.344 44.5085 21.6004 44.5085 19.4521C44.5085 17.2726 43.9481 15.5134 42.8272 14.1745C41.6285 12.7423 39.9861 12.0262 37.9 12.0262C35.7828 12.0262 34.1248 12.789 32.9261 14.3147C31.8363 15.7158 31.2914 17.4205 31.2914 19.4287Z" fill="#CACACA"/>
<path d="M53.5924 19.5688C53.5924 17.8564 53.8804 16.2217 54.4564 14.6649C55.048 13.0926 55.8887 11.7226 56.9784 10.555C59.3603 8.03302 62.4505 6.77203 66.2491 6.77203C70.0321 6.77203 73.0367 7.96297 75.2629 10.3449C77.3957 12.6178 78.4621 15.5679 78.4621 19.1952C78.4621 22.8225 77.3645 25.8271 75.1695 28.209C72.8499 30.731 69.7752 31.992 65.9455 31.992C61.9913 31.992 58.8933 30.7543 56.6515 28.279C54.6121 26.0217 53.5924 23.1183 53.5924 19.5688ZM59.2669 19.4287C59.2669 20.4095 59.4304 21.3591 59.7573 22.2776C60.0842 23.1961 60.5512 23.9823 61.1584 24.6362C62.4505 26.0528 64.1474 26.7612 66.2491 26.7612C68.1951 26.7612 69.7285 26.0684 70.8494 24.6829C71.9391 23.344 72.484 21.6004 72.484 19.4521C72.484 17.2726 71.9236 15.5134 70.8027 14.1745C69.604 12.7423 67.9616 12.0262 65.8755 12.0262C63.7582 12.0262 62.1002 12.789 60.9015 14.3147C59.8118 15.7158 59.2669 17.4205 59.2669 19.4287Z" fill="#CACACA"/>
<path d="M91.5624 31.992C87.1723 31.992 83.8641 31.1902 81.6379 29.5867C81.6691 29.1197 81.7158 28.5904 81.778 27.9988L81.9882 26.3175C82.1127 25.2122 82.1906 24.5272 82.2217 24.2625C82.2529 23.9823 82.2762 23.8344 82.2918 23.8188C82.3074 23.7877 82.4319 23.9123 82.6654 24.1925C82.8989 24.4571 83.3426 24.7841 83.9965 25.1733C84.6503 25.5624 85.4054 25.9049 86.2616 26.2007C88.1142 26.839 90.0446 27.1582 92.0528 27.1582C94.7461 27.1582 96.0927 26.263 96.0927 24.4727C96.0927 23.8967 95.8358 23.4686 95.3221 23.1883C94.4036 22.7213 93.0492 22.371 91.2589 22.1375C89.4841 21.8884 88.0285 21.5304 86.8921 21.0633C85.7556 20.5963 84.8293 20.0359 84.1132 19.382C82.79 18.1521 82.1283 16.5409 82.1283 14.5482C82.1283 12.1196 83.0624 10.2125 84.9305 8.82698C86.7831 7.45701 89.344 6.77203 92.6133 6.77203C95.8514 6.77203 98.6147 7.69053 100.903 9.52754C100.794 9.9323 100.677 10.3215 100.553 10.6951C100.195 11.7226 99.9302 12.4621 99.7589 12.9136L99.2218 14.2913C99.1907 14.4159 99.1674 14.4781 99.1518 14.4781C99.1207 14.4781 98.9961 14.3147 98.7782 13.9877C97.7974 12.8513 96.2717 12.104 94.2012 11.746C93.5629 11.6214 92.9091 11.5591 92.2397 11.5591C89.4063 11.5591 87.9896 12.4154 87.9896 14.1278C87.9896 14.7194 88.2854 15.1709 88.877 15.4823C89.9823 16.0738 91.4924 16.5097 93.4072 16.79C95.3377 17.0702 96.801 17.4516 97.7974 17.9342C98.7937 18.4012 99.5955 18.9695 100.203 19.6389C101.324 20.8532 101.884 22.4644 101.884 24.4727C101.884 26.6678 101.004 28.4503 99.2452 29.8203C97.4082 31.2681 94.8473 31.992 91.5624 31.992Z" fill="#CACACA"/>
<path d="M115.521 31.992C111.131 31.992 107.823 31.1902 105.597 29.5867C105.628 29.1197 105.675 28.5904 105.737 27.9988L105.947 26.3175C106.072 25.2122 106.15 24.5272 106.181 24.2625C106.212 23.9823 106.235 23.8344 106.251 23.8188C106.266 23.7877 106.391 23.9123 106.624 24.1925C106.858 24.4571 107.302 24.7841 107.955 25.1733C108.609 25.5624 109.364 25.9049 110.221 26.2007C112.073 26.839 114.004 27.1582 116.012 27.1582C118.705 27.1582 120.052 26.263 120.052 24.4727C120.052 23.8967 119.795 23.4686 119.281 23.1883C118.363 22.7213 117.008 22.371 115.218 22.1375C113.443 21.8884 111.987 21.5304 110.851 21.0633C109.715 20.5963 108.788 20.0359 108.072 19.382C106.749 18.1521 106.087 16.5409 106.087 14.5482C106.087 12.1196 107.021 10.2125 108.889 8.82698C110.742 7.45701 113.303 6.77203 116.572 6.77203C119.81 6.77203 122.574 7.69053 124.862 9.52754C124.753 9.9323 124.636 10.3215 124.512 10.6951C124.154 11.7226 123.889 12.4621 123.718 12.9136L123.181 14.2913C123.15 14.4159 123.126 14.4781 123.111 14.4781C123.08 14.4781 122.955 14.3147 122.737 13.9877C121.756 12.8513 120.231 12.104 118.16 11.746C117.522 11.6214 116.868 11.5591 116.199 11.5591C113.365 11.5591 111.949 12.4154 111.949 14.1278C111.949 14.7194 112.244 15.1709 112.836 15.4823C113.941 16.0738 115.451 16.5097 117.366 16.79C119.297 17.0702 120.76 17.4516 121.756 17.9342C122.753 18.4012 123.554 18.9695 124.162 19.6389C125.282 20.8532 125.843 22.4644 125.843 24.4727C125.843 26.6678 124.963 28.4503 123.204 29.8203C121.367 31.2681 118.806 31.992 115.521 31.992Z" fill="#CACACA"/>
<path d="M142.096 26.5043C144.104 26.5043 145.482 25.9828 146.229 24.9397H146.416L146.486 30.3574C145.723 31.1202 144.306 31.6261 142.236 31.8752C141.675 31.9531 140.975 31.992 140.134 31.992C139.309 31.992 138.406 31.8363 137.425 31.5249C136.46 31.2136 135.635 30.7076 134.95 30.0071C133.533 28.5593 132.825 26.2941 132.825 23.2117V12.61H129.299C129.283 12.1585 129.276 11.6993 129.276 11.2322V7.63604C129.276 7.37139 129.283 7.23906 129.299 7.23906H132.825V0.583795H138.546V7.23906H144.968V12.61H138.546V22.1375C138.546 24.5817 139.223 25.975 140.578 26.3175C141.014 26.442 141.52 26.5043 142.096 26.5043Z" fill="#CACACA"/>
</svg>
