<svg width="78" height="90" viewBox="0 0 78 90" fill="none" xmlns="http://www.w3.org/2000/svg">
<path d="M59.5299 33.0901V22.5C59.5313 18.7012 57.111 15.4174 53.6604 14.1977V2.93484C53.6604 1.31414 52.3464 0 50.7255 0C49.1046 0 47.7907 1.31396 47.7907 2.93484V13.6956H30.182V2.93484C30.182 1.31396 28.868 0 27.2473 0C25.6266 0 24.3125 1.31396 24.3125 2.93484V14.1994C20.803 15.4399 18.4421 18.7587 18.443 22.5V33.1204C6.59829 46.3001 0.28283 63.5572 0.849548 81.2893C0.888747 82.5115 1.67414 83.5752 2.83113 83.9718C26.2733 92.0092 51.7259 92.0097 75.1697 83.9718C76.3263 83.5752 77.1122 82.5112 77.1511 81.289C77.7153 63.5606 71.4069 46.2899 59.5299 33.0901ZM24.3125 22.5C24.3139 21.1569 25.2037 20.0607 26.3735 19.6966C26.8588 19.546 27.2897 19.5652 27.2473 19.5652C27.8374 19.5652 47.5908 19.5652 50.7255 19.5652C52.3522 19.5667 53.6595 20.8789 53.6604 22.5V31.3044C53.3426 31.3044 24.6301 31.3044 24.3127 31.3044V22.5H24.3125ZM6.68443 79.0662C6.69234 63.6205 12.3855 48.7044 22.69 37.174H25.7472C20.318 50.9024 18.139 67.104 18.4755 82.118C14.5042 81.3312 10.5673 80.3136 6.68443 79.0662ZM53.6259 83.1118C43.9177 84.4687 34.0977 84.4708 24.3747 83.1118C23.9038 68.0068 26.1054 51.0228 32.0982 37.1739H45.9023C51.8305 50.8741 54.1044 67.7663 53.6259 83.1118ZM59.525 82.118C59.8614 67.1055 57.6794 50.8955 52.2532 37.174H55.3104V37.1739C65.6149 48.7041 71.3081 63.6203 71.3157 79.0664C67.433 80.3139 63.496 81.3313 59.525 82.118Z" fill="#1B8271"/>
</svg>
