<svg width="20" height="16" viewBox="0 0 20 16" fill="none" xmlns="http://www.w3.org/2000/svg">
<path d="M19.5994 2.04672C18.8854 2.35992 18.1246 2.56752 17.3314 2.66832C18.1474 2.18112 18.7702 1.41552 19.063 0.49272C18.3022 0.94632 17.4622 1.26672 16.567 1.44552C15.8446 0.676321 14.815 0.199921 13.6918 0.199921C11.5126 0.199921 9.75821 1.96872 9.75821 4.13712C9.75821 4.44912 9.78461 4.74912 9.84941 5.03472C6.57701 4.87512 3.68141 3.30672 1.73621 0.917521C0.345174 3.42384 1.89941 5.47872 2.94581 6.17832C2.31341 6.16632 1.69301 5.98272 1.16741 5.69352C1.16741 7.64736 2.53181 9.23832 4.32101 9.60432C3.92981 9.73416 3.07517 9.80472 2.54381 9.66672C3.05381 11.2255 4.50101 12.3715 6.22181 12.4087C4.88261 13.4563 2.90909 14.3102 0.399414 14.0335C2.14301 15.1579 4.20941 15.7999 6.43781 15.7999C13.681 15.7999 17.641 9.79992 17.641 4.59912C17.641 4.42512 17.635 4.25712 17.6266 4.09032C18.4078 3.53592 19.0642 2.84352 19.5994 2.04672Z" fill="#1DA1F3"/>
</svg>
