<svg width="716" height="726" viewBox="0 0 716 726" fill="none" xmlns="http://www.w3.org/2000/svg">
<path d="M359.533 247.177C361.838 235.454 372.115 227 384.063 227L686.792 227C702.138 227 713.861 240.696 711.493 255.858L649.802 650.858C647.901 663.028 637.419 672 625.101 672H306.394C290.651 672 278.827 657.624 281.864 642.177L359.533 247.177Z" fill="url(#paint0_linear_409_88)"/>
<path d="M157.194 18.8112C160.022 7.74326 169.992 0 181.415 0L390.827 0C406.823 0 418.704 14.8146 415.231 30.429L375.854 207.429C373.31 218.865 363.166 227 351.451 227H136.191C119.873 227 107.929 211.621 111.969 195.811L157.194 18.8112Z" fill="url(#paint1_linear_409_88)"/>
<g filter="url(#filter0_d_409_88)">
<rect x="52" y="510" width="146" height="141" rx="24" fill="white"/>
</g>
<path d="M92.6692 616.347C86.3721 610.05 82.0836 602.027 80.3463 593.293C78.6089 584.558 79.5006 575.505 82.9086 567.277C86.3166 559.049 92.0878 552.017 99.4925 547.07C106.897 542.122 115.603 539.481 124.508 539.481C133.414 539.481 142.119 542.122 149.524 547.07C156.929 552.017 162.7 559.049 166.108 567.277C169.516 575.505 170.408 584.558 168.67 593.293C166.933 602.027 162.644 610.05 156.347 616.347L142.229 602.229C145.733 598.724 148.12 594.259 149.087 589.397C150.054 584.536 149.558 579.497 147.661 574.918C145.764 570.339 142.552 566.425 138.431 563.671C134.31 560.918 129.465 559.448 124.508 559.448C119.552 559.448 114.707 560.918 110.585 563.671C106.464 566.425 103.252 570.339 101.356 574.918C99.4588 579.497 98.9625 584.536 99.9294 589.397C100.896 594.259 103.283 598.724 106.788 602.229L92.6692 616.347Z" fill="#E8ECFF"/>
<path d="M92.6693 616.347C87.6733 611.351 83.9232 605.25 81.722 598.536C79.5209 591.823 78.9305 584.685 79.9986 577.701C81.0668 570.717 83.7634 564.082 87.8706 558.333C91.9778 552.584 97.3801 547.883 103.641 544.608C109.902 541.334 116.845 539.579 123.91 539.485C130.974 539.391 137.962 540.961 144.308 544.068C150.653 547.175 156.179 551.731 160.437 557.369C164.696 563.006 167.568 569.567 168.821 576.52L149.129 580.07C148.433 576.207 146.837 572.562 144.471 569.429C142.105 566.297 139.035 563.765 135.509 562.039C131.983 560.313 128.101 559.441 124.176 559.493C120.251 559.545 116.393 560.52 112.914 562.339C109.436 564.159 106.434 566.771 104.152 569.965C101.87 573.159 100.372 576.846 99.7782 580.726C99.1847 584.607 99.5127 588.572 100.736 592.302C101.959 596.033 104.042 599.423 106.818 602.198L92.6693 616.347Z" fill="url(#paint2_linear_409_88)"/>
<circle cx="124.643" cy="584.643" r="6.78891" fill="#FD5353"/>
<g filter="url(#filter1_d_409_88)">
<path fill-rule="evenodd" clip-rule="evenodd" d="M147.9 578.752L124.404 583.638L124.962 586.322L150.799 581.237L167.16 577.892L172.931 576.769C172.654 576.275 172.106 574.804 171.774 574.27C171.713 574.173 171.652 574.076 171.591 573.98L167.956 574.688L147.9 578.752Z" fill="#FD5353"/>
</g>
<circle cx="19.0993" cy="307" r="4" fill="#EEEEEE"/>
<circle cx="14.0662" cy="328.139" r="4" fill="#EEEEEE"/>
<circle cx="9.03308" cy="349.278" r="4" fill="#EEEEEE"/>
<circle cx="4" cy="370.417" r="4" fill="#EEEEEE"/>
<circle cx="42.2516" cy="307" r="4" fill="#EEEEEE"/>
<circle cx="37.2185" cy="328.139" r="4" fill="#EEEEEE"/>
<circle cx="32.1854" cy="349.278" r="4" fill="#EEEEEE"/>
<circle cx="27.1523" cy="370.417" r="4" fill="#EEEEEE"/>
<circle cx="65.404" cy="307" r="4" fill="#EEEEEE"/>
<circle cx="60.3708" cy="328.139" r="4" fill="#EEEEEE"/>
<circle cx="55.3378" cy="349.278" r="4" fill="#EEEEEE"/>
<circle cx="50.3046" cy="370.417" r="4" fill="#EEEEEE"/>
<circle cx="88.5563" cy="307" r="4" fill="#EEEEEE"/>
<circle cx="83.5231" cy="328.139" r="4" fill="#EEEEEE"/>
<circle cx="78.49" cy="349.278" r="4" fill="#EEEEEE"/>
<circle cx="73.4569" cy="370.417" r="4" fill="#EEEEEE"/>
<circle cx="532.883" cy="500.928" r="2.92793" fill="#F1E897"/>
<ellipse cx="529.369" cy="515.275" rx="2.92793" ry="2.63514" fill="#F1E897"/>
<circle cx="526.149" cy="529.914" r="2.63514" fill="#F1E897"/>
<circle cx="522.928" cy="544.261" r="2.92793" fill="#F1E897"/>
<ellipse cx="549.572" cy="500.928" rx="2.63514" ry="2.92793" fill="#F1E897"/>
<ellipse cx="546.351" cy="515.275" rx="2.92793" ry="2.63514" fill="#F1E897"/>
<ellipse cx="542.838" cy="529.914" rx="2.92793" ry="2.63514" fill="#F1E897"/>
<ellipse cx="538.446" cy="544.261" rx="2.63514" ry="2.92793" fill="#F1E897"/>
<ellipse cx="565.383" cy="500.928" rx="2.63514" ry="2.92793" fill="#F1E897"/>
<circle cx="561.869" cy="515.275" r="2.63514" fill="#F1E897"/>
<ellipse cx="558.649" cy="529.914" rx="2.92793" ry="2.63514" fill="#F1E897"/>
<circle cx="555.135" cy="544.261" r="2.92793" fill="#F1E897"/>
<circle cx="582.072" cy="500.928" r="2.92793" fill="#F1E897"/>
<circle cx="577.68" cy="515.275" r="2.63514" fill="#F1E897"/>
<circle cx="574.167" cy="529.914" r="2.63514" fill="#F1E897"/>
<circle cx="570.946" cy="544.261" r="2.92793" fill="#F1E897"/>
<defs>
<filter id="filter0_d_409_88" x="2" y="485" width="246" height="241" filterUnits="userSpaceOnUse" color-interpolation-filters="sRGB">
<feFlood flood-opacity="0" result="BackgroundImageFix"/>
<feColorMatrix in="SourceAlpha" type="matrix" values="0 0 0 0 0 0 0 0 0 0 0 0 0 0 0 0 0 0 127 0" result="hardAlpha"/>
<feOffset dy="25"/>
<feGaussianBlur stdDeviation="25"/>
<feColorMatrix type="matrix" values="0 0 0 0 0 0 0 0 0 0 0 0 0 0 0 0 0 0 0.1 0"/>
<feBlend mode="normal" in2="BackgroundImageFix" result="effect1_dropShadow_409_88"/>
<feBlend mode="normal" in="SourceGraphic" in2="effect1_dropShadow_409_88" result="shape"/>
</filter>
<filter id="filter1_d_409_88" x="77.4038" y="526.98" width="142.527" height="106.342" filterUnits="userSpaceOnUse" color-interpolation-filters="sRGB">
<feFlood flood-opacity="0" result="BackgroundImageFix"/>
<feColorMatrix in="SourceAlpha" type="matrix" values="0 0 0 0 0 0 0 0 0 0 0 0 0 0 0 0 0 0 127 0" result="hardAlpha"/>
<feOffset/>
<feGaussianBlur stdDeviation="23.5"/>
<feColorMatrix type="matrix" values="0 0 0 0 1 0 0 0 0 0.368627 0 0 0 0 0.294118 0 0 0 1 0"/>
<feBlend mode="normal" in2="BackgroundImageFix" result="effect1_dropShadow_409_88"/>
<feBlend mode="normal" in="SourceGraphic" in2="effect1_dropShadow_409_88" result="shape"/>
</filter>
<linearGradient id="paint0_linear_409_88" x1="536.5" y1="475.5" x2="829.5" y2="258.5" gradientUnits="userSpaceOnUse">
<stop stop-color="#1B8271"/>
<stop offset="1" stop-color="#23B39B"/>
</linearGradient>
<linearGradient id="paint1_linear_409_88" x1="88.5" y1="191" x2="422" y2="36" gradientUnits="userSpaceOnUse">
<stop stop-color="#1B8271"/>
<stop offset="1" stop-color="#16A471"/>
</linearGradient>
<linearGradient id="paint2_linear_409_88" x1="98.9972" y1="614.767" x2="162.775" y2="602.835" gradientUnits="userSpaceOnUse">
<stop stop-color="#1B8271"/>
<stop offset="1" stop-color="#41C294"/>
</linearGradient>
</defs>
</svg>
