<svg width="24" height="24" viewBox="0 0 24 24" fill="none" xmlns="http://www.w3.org/2000/svg">
<path d="M22.2366 3.06974C22.0809 2.915 21.8981 2.83716 21.6857 2.83716C21.5803 2.83716 21.3578 2.92375 21.0207 3.09461C20.6822 3.26593 20.3221 3.4566 19.9444 3.66937C19.5654 3.88076 19.1168 4.07235 18.5987 4.24367C18.0815 4.41454 17.603 4.50112 17.1623 4.50112C16.7547 4.50112 16.3964 4.42375 16.0864 4.26854C15.0599 3.78773 14.1664 3.42897 13.4088 3.19225C12.6507 2.95599 11.8356 2.83716 10.9628 2.83716C9.45593 2.83716 7.73947 3.32719 5.81531 4.30539C5.41832 4.50342 5.1337 4.65678 4.94948 4.76916L4.76664 3.42851C5.17976 3.06974 5.44641 2.54702 5.44641 1.95706C5.44641 0.876158 4.57045 0.000198364 3.48955 0.000198364C2.40865 0.000198364 1.53223 0.876158 1.53223 1.95706C1.53223 2.66216 1.90895 3.27514 2.46806 3.61963L5.11159 23.004C5.19035 23.5811 5.68405 23.9997 6.25099 23.9997C6.30257 23.9997 6.35507 23.9956 6.40803 23.9901C7.03806 23.9035 7.47926 23.3237 7.39314 22.6936L6.33066 14.903C8.25851 13.9465 9.92615 13.4643 11.329 13.4643C11.9245 13.4643 12.5052 13.5522 13.0712 13.7328C13.6377 13.9128 14.1093 14.1072 14.4837 14.3186C14.8577 14.5309 15.3003 14.7271 15.8101 14.9053C16.3199 15.0849 16.8233 15.1747 17.3202 15.1747C18.5757 15.1747 20.0784 14.7018 21.8317 13.7563C22.0519 13.642 22.2126 13.5297 22.3148 13.4201C22.4171 13.31 22.4677 13.1529 22.4677 12.9498V3.62009C22.4677 3.4087 22.3908 3.22495 22.2366 3.06974Z" fill="#717579"/>
</svg>
