<svg width="12" height="20" viewBox="0 0 12 20" fill="none" xmlns="http://www.w3.org/2000/svg">
<path d="M3.70466 11.2399C3.6293 11.2399 2.04842 11.2404 1.3193 11.2397C0.943945 11.2394 0.810025 11.1046 0.810025 10.7268C0.809545 9.75648 0.809305 8.78616 0.810025 7.81584C0.810265 7.44288 0.951865 7.30056 1.32242 7.30032C2.05154 7.29984 3.62378 7.30008 3.70466 7.30008C3.70466 7.2336 3.70442 5.83272 3.70466 5.1876C3.70514 4.23384 3.8753 3.32088 4.35986 2.48496C4.85594 1.62936 5.57786 1.04328 6.50306 0.704401C7.09562 0.487201 7.71074 0.400561 8.33954 0.400081C9.12626 0.399601 9.91298 0.400321 10.6999 0.401761C11.0381 0.402241 11.1881 0.551761 11.1888 0.892321C11.1903 1.80504 11.1903 2.71776 11.1888 3.63024C11.1883 3.9744 11.0446 4.11264 10.6987 4.11648C10.0539 4.12344 9.4085 4.11912 8.76434 4.14504C8.1137 4.14504 7.77146 4.4628 7.77146 5.13624C7.75586 5.84856 7.76498 6.5616 7.76498 7.29984C7.82594 7.29984 9.67754 7.2996 10.543 7.29984C10.9361 7.29984 11.0705 7.43496 11.0705 7.83024C11.0705 8.79528 11.0703 9.76056 11.0695 10.7256C11.0693 11.1151 10.9431 11.2394 10.5475 11.2397C9.6821 11.2402 7.8377 11.2399 7.75706 11.2399V19.0507C7.75706 19.4671 7.62602 19.5998 7.21514 19.5998C6.21338 19.5998 5.21138 19.6001 4.20962 19.5998C3.8465 19.5998 3.7049 19.4587 3.7049 19.0956C3.70466 16.5518 3.70466 11.3292 3.70466 11.2399Z" fill="#3D6AD6"/>
</svg>
