<svg width="24" height="22" viewBox="0 0 24 22" fill="none" xmlns="http://www.w3.org/2000/svg">
<path d="M23.8016 5.82544C23.4495 4.50148 22.7662 3.29298 21.8184 2.31777C20.8706 1.34257 19.6906 0.633947 18.3935 0.261015C17.2999 -0.0440222 16.151 -0.0822871 15.0401 0.149329C13.9292 0.380944 12.8876 0.87591 12 1.59403C11.1124 0.87591 10.0708 0.380944 8.95992 0.149329C7.84902 -0.0822871 6.70011 -0.0440222 5.60647 0.261015C4.30939 0.633947 3.12941 1.34257 2.18161 2.31777C1.23381 3.29298 0.550534 4.50148 0.198408 5.82544C-0.103999 7.09089 -0.0600205 8.41647 0.325571 9.65829C0.711163 10.9001 1.42364 12.0107 2.38567 12.8696L11.1948 21.6504C11.4194 21.8745 11.7215 22 12.0361 22C12.3506 22 12.6527 21.8745 12.8773 21.6504L21.6143 12.8696C22.5764 12.0107 23.2888 10.9001 23.6744 9.65829C24.06 8.41647 24.104 7.09089 23.8016 5.82544ZM19.9679 11.1208L12 19.07L4.03212 11.1208C3.37445 10.5599 2.8849 9.82226 2.61929 8.99194C2.35368 8.16162 2.3227 7.27206 2.52988 6.42468C2.78098 5.52023 3.25504 4.69608 3.90706 4.03044C4.55909 3.36479 5.36745 2.87974 6.25544 2.62131C6.64625 2.5061 7.0504 2.44441 7.45723 2.43787C8.82656 2.48013 10.1234 3.07397 11.0626 4.08885C11.2873 4.31293 11.5893 4.43844 11.9039 4.43844C12.2184 4.43844 12.5205 4.31293 12.7451 4.08885C13.3532 3.41247 14.1315 2.91821 14.9957 2.65954C15.86 2.40087 16.7773 2.38765 17.6484 2.62131C18.5364 2.87974 19.3448 3.36479 19.9968 4.03044C20.6488 4.69608 21.1229 5.52023 21.374 6.42468C21.5923 7.26306 21.5764 8.14681 21.328 8.97647C21.0796 9.80614 20.6085 10.5488 19.9679 11.1208Z" fill="#717579"/>
</svg>
