<svg width="150" height="31" viewBox="0 0 150 31" fill="none" xmlns="http://www.w3.org/2000/svg">
<path d="M58.2767 24.1351H54.2337V15.8791H46.658V24.1351H42.6019V5.00615H46.658V12.5034H54.2337V5.00615H58.2767V24.1351Z" fill="#CACACA"/>
<path d="M62.6337 5.72578C62.6337 4.42609 63.3577 3.77625 64.8057 3.77625C66.2537 3.77625 66.9777 4.42609 66.9777 5.72578C66.9777 6.3451 66.7945 6.82921 66.4281 7.17812C66.0705 7.51831 65.5297 7.6884 64.8057 7.6884C63.3577 7.6884 62.6337 7.03419 62.6337 5.72578ZM66.7945 24.1351H62.8038V9.50709H66.7945V24.1351Z" fill="#CACACA"/>
<path d="M83.7253 9.50709V11.5351L81.4356 12.1239C81.8543 12.7781 82.0637 13.5108 82.0637 14.3221C82.0637 15.8921 81.5141 17.1177 80.4151 17.9987C79.3247 18.871 77.807 19.3071 75.8618 19.3071L75.1421 19.2679L74.5534 19.2024C74.1434 19.5164 73.9384 19.8654 73.9384 20.2492C73.9384 20.8249 74.6711 21.1127 76.1365 21.1127H78.6225C80.2275 21.1127 81.4487 21.4573 82.2861 22.1464C83.1322 22.8355 83.5552 23.8473 83.5552 25.1819C83.5552 26.8915 82.84 28.2174 81.4094 29.1594C79.9876 30.1015 77.9422 30.5725 75.273 30.5725C73.2319 30.5725 71.6705 30.2149 70.5889 29.4996C69.516 28.7931 68.9795 27.7987 68.9795 26.5165C68.9795 25.6355 69.2543 24.8984 69.8038 24.3052C70.3534 23.7121 71.1602 23.289 72.2244 23.0361C71.8144 22.8616 71.4568 22.5781 71.1515 22.1856C70.8462 21.7844 70.6935 21.3613 70.6935 20.9165C70.6935 20.3582 70.8549 19.8959 71.1777 19.5295C71.5004 19.1545 71.9671 18.7881 72.5777 18.4305C71.8101 18.099 71.1995 17.5669 70.7459 16.8342C70.301 16.1015 70.0786 15.2379 70.0786 14.2435C70.0786 12.6473 70.5976 11.413 71.6356 10.5407C72.6736 9.66846 74.1565 9.23233 76.0842 9.23233C76.4942 9.23233 76.9783 9.27158 77.5365 9.35008C78.1035 9.41986 78.4655 9.4722 78.6225 9.50709H83.7253ZM72.4337 26.2024C72.4337 26.752 72.6954 27.1837 73.2188 27.4978C73.7509 27.8118 74.4923 27.9688 75.4431 27.9688C76.8736 27.9688 77.9945 27.7725 78.8057 27.38C79.6169 26.9875 80.0225 26.451 80.0225 25.7707C80.0225 25.2211 79.7827 24.8417 79.3029 24.6323C78.8232 24.423 78.0817 24.3183 77.0786 24.3183H75.0113C74.2786 24.3183 73.6636 24.4884 73.1664 24.8286C72.678 25.1775 72.4337 25.6355 72.4337 26.2024ZM73.8861 14.2959C73.8861 15.0897 74.0649 15.7177 74.4225 16.18C74.7889 16.6423 75.3428 16.8735 76.0842 16.8735C76.8344 16.8735 77.3839 16.6423 77.7328 16.18C78.0817 15.7177 78.2562 15.0897 78.2562 14.2959C78.2562 12.5339 77.5322 11.6529 76.0842 11.6529C74.6188 11.6529 73.8861 12.5339 73.8861 14.2959Z" fill="#CACACA"/>
<path d="M99.6487 24.1351H95.6581V15.5912C95.6581 13.4803 94.873 12.4249 93.3029 12.4249C92.1864 12.4249 91.3796 12.8043 90.8824 13.5632C90.3852 14.3221 90.1366 15.552 90.1366 17.2529V24.1351H86.1459V3.77625H90.1366V7.92391C90.1366 8.24665 90.106 9.00553 90.045 10.2006L89.9534 11.3781H90.1627C91.0524 9.94759 92.4655 9.23233 94.402 9.23233C96.1204 9.23233 97.4244 9.69463 98.3141 10.6192C99.2039 11.5439 99.6487 12.8697 99.6487 14.5968V24.1351Z" fill="#CACACA"/>
<path d="M107.748 24.1351H103.757V3.77625H107.748V24.1351Z" fill="#CACACA"/>
<path d="M115.127 16.795C115.127 18.2429 115.363 19.3376 115.834 20.0791C116.314 20.8205 117.09 21.1912 118.163 21.1912C119.227 21.1912 119.99 20.8249 120.452 20.0922C120.924 19.3507 121.159 18.2516 121.159 16.795C121.159 15.347 120.924 14.261 120.452 13.537C119.981 12.813 119.209 12.451 118.137 12.451C117.072 12.451 116.305 12.813 115.834 13.537C115.363 14.2523 115.127 15.3383 115.127 16.795ZM125.241 16.795C125.241 19.1763 124.613 21.0386 123.357 22.3819C122.101 23.7252 120.352 24.3968 118.11 24.3968C116.706 24.3968 115.467 24.0915 114.395 23.4809C113.322 22.8616 112.497 21.9763 111.922 20.8249C111.346 19.6735 111.058 18.3302 111.058 16.795C111.058 14.4049 111.682 12.547 112.929 11.2211C114.176 9.89525 115.93 9.23233 118.189 9.23233C119.593 9.23233 120.832 9.53762 121.905 10.1482C122.978 10.7588 123.802 11.6354 124.378 12.7781C124.953 13.9208 125.241 15.2597 125.241 16.795Z" fill="#CACACA"/>
<path d="M140.563 24.1351L139.438 19.0193L137.92 12.5557H137.828L135.159 24.1351H130.867L126.707 9.50709H130.684L132.372 15.9837C132.643 17.1439 132.917 18.7445 133.196 20.7856H133.275C133.31 20.1227 133.462 19.0716 133.733 17.6323L133.942 16.5202L135.748 9.50709H140.144L141.858 16.5202C141.893 16.7121 141.945 16.9956 142.015 17.3707C142.094 17.7457 142.168 18.147 142.238 18.5744C142.307 18.9931 142.368 19.4074 142.421 19.8174C142.482 20.2186 142.517 20.5414 142.525 20.7856H142.604C142.682 20.1576 142.822 19.2984 143.023 18.208C143.223 17.109 143.367 16.3675 143.454 15.9837L145.208 9.50709H149.12L144.907 24.1351H140.563Z" fill="#CACACA"/>
<path d="M13.9135 27.227C21.5976 27.227 27.8269 21.2284 27.8269 13.8288C27.8269 6.4292 21.5976 0.430668 13.9135 0.430668C6.2293 0.430667 2.48009e-07 6.42926 1.5977e-07 13.8288C7.1532e-08 21.2284 6.22925 27.227 13.9135 27.227ZM24.2363 13.8288L3.59057 13.8288C3.59057 8.33422 8.20844 3.88825 13.9135 3.88825C19.6194 3.88825 24.2363 8.33509 24.2363 13.8288Z" fill="#CACACA"/>
</svg>
