<svg width="28" height="28" viewBox="0 0 28 28" fill="none" xmlns="http://www.w3.org/2000/svg">
<path d="M23.3332 4.66675H21.9998V2.00008C21.9998 1.64646 21.8594 1.30732 21.6093 1.05727C21.3593 0.807224 21.0201 0.666748 20.6665 0.666748C20.3129 0.666748 19.9737 0.807224 19.7237 1.05727C19.4736 1.30732 19.3332 1.64646 19.3332 2.00008V4.66675H8.6665V2.00008C8.6665 1.64646 8.52603 1.30732 8.27598 1.05727C8.02593 0.807224 7.68679 0.666748 7.33317 0.666748C6.97955 0.666748 6.64041 0.807224 6.39036 1.05727C6.14031 1.30732 5.99984 1.64646 5.99984 2.00008V4.66675H4.6665C3.60564 4.66675 2.58822 5.08818 1.83808 5.83832C1.08793 6.58847 0.666504 7.60588 0.666504 8.66675V10.0001H27.3332V8.66675C27.3332 7.60588 26.9117 6.58847 26.1616 5.83832C25.4115 5.08818 24.394 4.66675 23.3332 4.66675Z" fill="#717579"/>
<path d="M0.666504 23.3334C0.666504 24.3943 1.08793 25.4117 1.83808 26.1618C2.58822 26.912 3.60564 27.3334 4.6665 27.3334H23.3332C24.394 27.3334 25.4115 26.912 26.1616 26.1618C26.9117 25.4117 27.3332 24.3943 27.3332 23.3334V12.6667H0.666504V23.3334Z" fill="#717579"/>
</svg>
