<svg width="65" height="65" viewBox="0 0 65 65" fill="none" xmlns="http://www.w3.org/2000/svg">
<circle cx="32.5" cy="32.5" r="32.5" fill="#F6FBFA"/>
<path d="M42.0467 24.4834C41.2884 22.9884 40.1664 21.708 38.784 20.7599C37.4015 19.8118 35.8029 19.2264 34.1351 19.0576C33.3806 18.9819 32.6204 18.9819 31.866 19.0576C30.1982 19.2265 28.5996 19.8119 27.2171 20.7598C25.8345 21.7078 24.7124 22.9881 23.9539 24.4829C22.9995 26.3903 22.6308 28.5374 22.8943 30.6539C23.1579 32.7703 24.0418 34.7615 25.4349 36.3765L32.2278 44.6353C32.3216 44.7494 32.4395 44.8414 32.5731 44.9045C32.7066 44.9676 32.8525 45.0003 33.0003 45.0003C33.148 45.0003 33.2939 44.9676 33.4275 44.9045C33.561 44.8414 33.679 44.7494 33.7728 44.6353L40.5657 36.3765C41.9587 34.7616 42.8426 32.7705 43.1062 30.6541C43.3697 28.5377 43.0011 26.3907 42.0467 24.4834ZM33.0003 33C32.2091 33 31.4358 32.7654 30.778 32.3259C30.1202 31.8864 29.6075 31.2617 29.3047 30.5308C29.002 29.7999 28.9228 28.9956 29.0771 28.2197C29.2315 27.4437 29.6124 26.731 30.1718 26.1716C30.7312 25.6122 31.444 25.2312 32.2199 25.0769C32.9958 24.9225 33.8001 25.0018 34.531 25.3045C35.2619 25.6073 35.8866 26.12 36.3261 26.7777C36.7657 27.4355 37.0003 28.2089 37.0003 29C36.999 30.0605 36.5772 31.0772 35.8273 31.8271C35.0774 32.577 34.0607 32.9988 33.0003 33Z" fill="#1B8271"/>
</svg>
