<svg width="22" height="18" viewBox="0 0 22 18" fill="none" xmlns="http://www.w3.org/2000/svg">
<path d="M20.4028 2.58865C19.8579 1.88133 19.1532 1.3132 18.3464 0.930789C17.5395 0.548381 16.6536 0.362589 15.7611 0.388636C14.8915 0.407598 14.0391 0.635309 13.2759 1.05258C12.5127 1.46986 11.8609 2.06447 11.3756 2.78631C11.2454 2.97857 11.1197 3.17762 10.9998 3.38177C10.8798 3.17762 10.7543 2.97857 10.6241 2.78631C10.1387 2.06445 9.48696 1.46983 8.72373 1.05254C7.9605 0.635254 7.10815 0.407532 6.23851 0.388561C5.34622 0.363879 4.46072 0.550286 3.65411 0.932603C2.84751 1.31492 2.1426 1.88234 1.59679 2.58865C0.0746302 4.57259 0.139468 7.32722 1.76179 9.6067C4.71481 13.7555 10.5551 17.4044 10.8021 17.5576C10.8614 17.5944 10.9299 17.6139 10.9998 17.6139C11.0697 17.6139 11.1382 17.5944 11.1975 17.5576C11.4446 17.4043 17.2847 13.7554 20.2377 9.60655C21.8601 7.32722 21.925 4.57259 20.4028 2.58865V2.58865Z" fill="white"/>
</svg>
