<svg width="178" height="61" viewBox="0 0 178 61" fill="none" xmlns="http://www.w3.org/2000/svg">
<path d="M80.1564 35.8685H76.1995V27.397C76.1995 26.3504 76.0222 25.5677 75.6676 25.0488C75.3217 24.5212 74.7725 24.2574 74.02 24.2574C73.0081 24.2574 72.273 24.6293 71.8146 25.3731C71.3562 26.1169 71.127 27.3407 71.127 29.0446V35.8685H67.1702V21.3644H70.1929L70.7248 23.2196H70.9454C71.3346 22.5536 71.8967 22.0347 72.6319 21.6628C73.367 21.2822 74.2103 21.092 75.1617 21.092C77.3325 21.092 78.8028 21.8012 79.5726 23.2196H79.9228C80.312 22.545 80.8829 22.0217 81.6353 21.6498C82.3964 21.2779 83.2526 21.092 84.204 21.092C85.8473 21.092 87.0884 21.5158 87.9273 22.3633C88.7749 23.2023 89.1987 24.5515 89.1987 26.411V35.8685H85.2289V27.397C85.2289 26.3504 85.0516 25.5677 84.697 25.0488C84.351 24.5212 83.8018 24.2574 83.0494 24.2574C82.0807 24.2574 81.3542 24.6034 80.8699 25.2953C80.3942 25.9872 80.1564 27.0856 80.1564 28.5905V35.8685Z" fill="#CACACA"/>
<path d="M102.483 35.8685L101.718 33.8965H101.614C100.948 34.7355 100.261 35.3193 99.5513 35.6479C98.8508 35.9679 97.934 36.1279 96.801 36.1279C95.4085 36.1279 94.3101 35.7301 93.5058 34.9344C92.7101 34.1387 92.3123 33.0057 92.3123 31.5354C92.3123 29.9959 92.8485 28.8629 93.9209 28.1364C95.002 27.4013 96.628 26.9948 98.7989 26.9169L101.316 26.8391V26.2034C101.316 24.7331 100.563 23.998 99.0583 23.998C97.8994 23.998 96.5372 24.3482 94.9718 25.0488L93.6615 22.3763C95.3307 21.5028 97.1815 21.066 99.214 21.066C101.16 21.066 102.652 21.4898 103.69 22.3374C104.728 23.185 105.247 24.4737 105.247 26.2034V35.8685H102.483ZM101.316 29.1483L99.7848 29.2002C98.6346 29.2348 97.7783 29.4424 97.2161 29.8229C96.654 30.2035 96.3729 30.783 96.3729 31.5614C96.3729 32.6771 97.0129 33.2349 98.2929 33.2349C99.2097 33.2349 99.9405 32.9711 100.485 32.4435C101.039 31.916 101.316 31.2154 101.316 30.3419V29.1483Z" fill="#CACACA"/>
<path d="M122.722 35.8685H118.765V27.397C118.765 26.3504 118.579 25.5677 118.207 25.0488C117.835 24.5212 117.242 24.2574 116.429 24.2574C115.322 24.2574 114.522 24.6293 114.029 25.3731C113.536 26.1083 113.29 27.3321 113.29 29.0446V35.8685H109.333V21.3644H112.356L112.888 23.2196H113.108C113.549 22.519 114.155 21.9914 114.925 21.6368C115.703 21.2736 116.585 21.092 117.571 21.092C119.258 21.092 120.538 21.5504 121.411 22.4671C122.285 23.3753 122.722 24.6899 122.722 26.411V35.8685Z" fill="#CACACA"/>
<path d="M132.905 32.9754C133.597 32.9754 134.428 32.8241 135.396 32.5214V35.4663C134.41 35.9074 133.2 36.1279 131.764 36.1279C130.181 36.1279 129.026 35.7301 128.3 34.9344C127.582 34.1301 127.223 32.9279 127.223 31.3278V24.3353H125.329V22.6617L127.509 21.3385L128.65 18.2768H131.18V21.3644H135.241V24.3353H131.18V31.3278C131.18 31.89 131.336 32.3052 131.647 32.5733C131.967 32.8414 132.387 32.9754 132.905 32.9754Z" fill="#CACACA"/>
<path d="M151.73 35.8685H147.773V27.397C147.773 25.3039 146.994 24.2574 145.438 24.2574C144.331 24.2574 143.531 24.6337 143.038 25.3861C142.545 26.1386 142.298 27.358 142.298 29.0446V35.8685H138.341V15.6821H142.298V19.7946C142.298 20.1146 142.268 20.8671 142.207 22.052L142.116 23.2196H142.324C143.206 21.8012 144.607 21.092 146.527 21.092C148.231 21.092 149.524 21.5504 150.406 22.4671C151.289 23.3839 151.73 24.6985 151.73 26.411V35.8685Z" fill="#CACACA"/>
<path d="M166.078 35.8685L165.546 34.0133H165.339C164.915 34.6879 164.314 35.2112 163.535 35.5831C162.757 35.9463 161.87 36.1279 160.876 36.1279C159.172 36.1279 157.888 35.6739 157.023 34.7657C156.158 33.849 155.725 32.5344 155.725 30.8219V21.3644H159.682V29.8359C159.682 30.8824 159.868 31.6695 160.24 32.197C160.612 32.716 161.204 32.9754 162.017 32.9754C163.124 32.9754 163.924 32.6079 164.417 31.8727C164.91 31.1289 165.157 29.9008 165.157 28.1883V21.3644H169.114V35.8685H166.078Z" fill="#CACACA"/>
<path d="M177.222 35.8685H173.265V15.6821H177.222V35.8685Z" fill="#CACACA"/>
<path d="M-3.8147e-06 25.2407C-3.52492e-06 21.9261 0.652867 18.6439 1.92133 15.5815C3.18979 12.5192 5.04901 9.73666 7.39283 7.39284C9.73665 5.04902 12.5192 3.1898 15.5815 1.92134C18.6439 0.652875 21.9261 5.13301e-06 25.2407 5.42278e-06C28.5554 5.71256e-06 31.8376 0.652876 34.8999 1.92134C37.9623 3.18981 40.7448 5.04902 43.0886 7.39284C45.4324 9.73666 47.2916 12.5192 48.5601 15.5815C49.8285 18.6439 50.4814 21.9261 50.4814 25.2407L37.8611 25.2407C37.8611 23.5834 37.5346 21.9423 36.9004 20.4111C36.2662 18.8799 35.3366 17.4887 34.1646 16.3168C32.9927 15.1449 31.6015 14.2153 30.0703 13.581C28.5391 12.9468 26.898 12.6204 25.2407 12.6204C23.5834 12.6204 21.9423 12.9468 20.4111 13.581C18.8799 14.2153 17.4887 15.1449 16.3168 16.3168C15.1449 17.4887 14.2152 18.8799 13.581 20.4111C12.9468 21.9423 12.6204 23.5834 12.6203 25.2407L-3.8147e-06 25.2407Z" fill="#CACACA"/>
<path fill-rule="evenodd" clip-rule="evenodd" d="M16.5983 46.1054C14.6803 45.311 12.885 44.2575 11.2612 42.9777L16.4814 37.7575C17.3893 38.3928 18.3657 38.929 19.3943 39.3551C21.2479 40.1228 23.2345 40.518 25.2407 40.518C27.2469 40.518 29.2335 40.1228 31.0871 39.3551C32.1157 38.929 33.0922 38.3928 34 37.7575L39.2202 42.9777C37.5964 44.2575 35.8011 45.311 33.8832 46.1054C31.1432 47.2404 28.2065 47.8245 25.2407 47.8245C22.275 47.8245 19.3383 47.2404 16.5983 46.1054ZM41.1107 44.8682C41.7995 44.3112 42.4598 43.7173 43.0886 43.0886L34.1646 34.1647C32.9927 35.3366 31.6015 36.2662 30.0703 36.9004C28.5391 37.5346 26.898 37.8611 25.2407 37.8611C23.5834 37.8611 21.9423 37.5346 20.4111 36.9004C18.8799 36.2662 17.4887 35.3366 16.3168 34.1647L7.39283 43.0886C8.02158 43.7173 8.68189 44.3112 9.37071 44.8682C11.2496 46.3874 13.3407 47.6319 15.5815 48.5601C18.6438 49.8286 21.9261 50.4814 25.2407 50.4814C28.5554 50.4814 31.8376 49.8286 34.8999 48.5601C37.1408 47.6319 39.2318 46.3874 41.1107 44.8682Z" fill="#CACACA"/>
</svg>
