<svg width="32" height="26" viewBox="0 0 32 26" fill="none" xmlns="http://www.w3.org/2000/svg">
<path d="M16.0002 3.99512C11.8408 3.99512 8.46875 5.29145 8.46875 6.89067V10.4052C8.46875 12.0044 11.8408 13.3007 16.0002 13.3007C20.1596 13.3007 23.5315 12.0044 23.5315 10.4052V6.89067C23.5315 5.29145 20.1596 3.99512 16.0002 3.99512Z" fill="#717579"/>
<path d="M16.0002 14.5142C12.5382 14.5142 9.62206 13.616 8.74151 12.3928C8.564 12.6391 8.46875 12.8988 8.46875 13.1669V16.6814C8.46875 18.2806 11.8408 19.5769 16.0002 19.5769C20.1596 19.5769 23.5315 18.2806 23.5315 16.6814V13.1669C23.5315 12.8988 23.4364 12.6391 23.2589 12.3928C22.3784 13.6161 19.4622 14.5142 16.0002 14.5142Z" fill="#717579"/>
<path d="M16.0002 20.7862C12.5382 20.7862 9.62206 19.888 8.74151 18.6648C8.564 18.9112 8.46875 19.1707 8.46875 19.4388V22.9535C8.46875 24.5526 11.8408 25.8491 16.0002 25.8491C20.1596 25.8491 23.5315 24.5526 23.5315 22.9535V19.4388C23.5315 19.1708 23.4364 18.9113 23.2589 18.6648C22.3784 19.8881 19.4622 20.7862 16.0002 20.7862Z" fill="#717579"/>
<path d="M24.9147 0.151123C21.5011 0.151123 18.6515 1.07922 17.98 2.31508C19.366 2.45376 20.6514 2.73718 21.716 3.14651C24.6195 4.2627 25.0529 5.98331 25.0529 6.90968V8.90478C28.902 8.87646 31.9999 7.66809 31.9999 6.1814V2.8751C31.9998 1.37061 28.8277 0.151123 24.9147 0.151123Z" fill="#717579"/>
<path d="M25.0532 10.0457V14.8088C28.9023 14.7805 32.0002 13.5721 32.0002 12.0856V8.77916C32.0002 8.52698 31.9107 8.28284 31.7437 8.05103C30.9269 9.18548 28.2492 10.0222 25.0532 10.0457Z" fill="#717579"/>
<path d="M25.0532 15.9461V20.7092C28.9023 20.6809 32.0002 19.4727 32.0002 17.986V14.6795C32.0002 14.4274 31.9107 14.1832 31.7437 13.9514C30.9269 15.0859 28.2492 15.9225 25.0532 15.9461Z" fill="#717579"/>
<path d="M14.0208 2.31509C13.3493 1.0793 10.4997 0.151123 7.08608 0.151123C3.17311 0.151123 0.000976562 1.37061 0.000976562 2.8751V6.1814C0.000976562 7.66809 3.09875 8.87646 6.94778 8.90478V6.90968C6.94778 5.98331 7.3813 4.26278 10.2849 3.14651C11.3495 2.73718 12.6347 2.45376 14.0208 2.31509Z" fill="#717579"/>
<path d="M0.256457 8.05127C0.0894671 8.28309 0 8.52723 0 8.7794V12.0859C0 13.5724 3.09777 14.7808 6.94681 14.8091V10.0459C3.75093 10.0224 1.07308 9.18565 0.256457 8.05127Z" fill="#717579"/>
<path d="M0.256457 13.9514C0.0894671 14.1832 0 14.4274 0 14.6795V17.9861C0 19.4728 3.09777 20.681 6.94681 20.7093V15.9461C3.75093 15.9225 1.07308 15.0858 0.256457 13.9514Z" fill="#717579"/>
</svg>
