<svg width="21" height="22" viewBox="0 0 21 22" fill="none" xmlns="http://www.w3.org/2000/svg">
<path d="M16.9999 14C16.3708 14.0015 15.7509 14.1517 15.1909 14.4385C14.631 14.7252 14.1468 15.1404 13.7779 15.65L8.76288 12.307C9.07892 11.4643 9.07892 10.5357 8.76288 9.693L13.7779 6.35C14.3408 7.11313 15.1574 7.65053 16.0809 7.86563C17.0045 8.08073 17.9745 7.95944 18.8166 7.52356C19.6588 7.08767 20.3179 6.36576 20.6755 5.48752C21.0332 4.60928 21.066 3.63229 20.7679 2.73207C20.4699 1.83185 19.8606 1.06741 19.0495 0.576092C18.2385 0.0847775 17.2788 -0.101207 16.3429 0.0515522C15.407 0.204312 14.5563 0.685803 13.9435 1.40952C13.3308 2.13323 12.9962 3.05174 12.9999 4C13.0064 4.14571 13.0211 4.29094 13.0439 4.435L7.65288 8.029C7.07837 7.51109 6.36602 7.17087 5.60209 7.04953C4.83817 6.92819 4.05546 7.03094 3.34874 7.34534C2.64202 7.65974 2.04162 8.1723 1.62025 8.82095C1.19888 9.4696 0.974609 10.2265 0.974609 11C0.974609 11.7735 1.19888 12.5304 1.62025 13.1791C2.04162 13.8277 2.64202 14.3403 3.34874 14.6547C4.05546 14.9691 4.83817 15.0718 5.60209 14.9505C6.36602 14.8291 7.07837 14.4889 7.65288 13.971L13.0439 17.565C13.0211 17.7091 13.0064 17.8543 12.9999 18C12.9999 18.7911 13.2345 19.5645 13.674 20.2223C14.1135 20.8801 14.7382 21.3928 15.4692 21.6955C16.2001 21.9983 17.0043 22.0775 17.7802 21.9231C18.5562 21.7688 19.2689 21.3878 19.8283 20.8284C20.3877 20.269 20.7687 19.5563 20.923 18.7804C21.0774 18.0044 20.9982 17.2002 20.6954 16.4693C20.3927 15.7384 19.88 15.1136 19.2222 14.6741C18.5644 14.2346 17.791 14 16.9999 14Z" fill="#717579"/>
</svg>
