<svg width="161" height="64" viewBox="0 0 161 64" fill="none" xmlns="http://www.w3.org/2000/svg">
<path d="M26.3366 62.3455L48.7603 23.3137C48.7603 23.1633 48.6851 23.0881 48.5346 23.0881C34.1372 36.3243 24.33 46.0008 19.1128 52.1175C18.4105 52.9197 16.6548 54.6996 13.8455 57.4571C11.0864 60.2147 9.40592 61.819 8.80394 62.2703C8.25213 62.7215 7.24883 63.0725 5.79405 63.3231C5.49306 63.3231 5.34256 63.1477 5.34256 62.7967C5.34256 62.4458 7.32408 59.8888 11.2871 55.1257C15.3003 50.3126 19.6897 44.998 24.4554 39.1821C29.2211 33.3161 33.5854 27.074 37.5484 20.4559C41.5616 13.8378 43.5682 8.72385 43.5682 5.11398C43.5682 3.00822 42.4897 1.95534 40.3326 1.95534C36.6706 1.95534 32.4818 3.43439 27.7663 6.39248C23.1009 9.35057 18.8871 12.81 15.1247 16.7709C11.4125 20.7317 8.25213 24.7677 5.64355 28.879C3.03498 32.9401 1.73069 36.0987 1.73069 38.3549C1.73069 39.7587 2.55841 40.4606 4.21385 40.4606C5.8693 40.4606 7.77556 39.9091 9.93265 38.8061C12.1399 37.7031 14.2218 36.3494 16.1782 34.745C20.1412 31.4861 23.3769 28.528 25.8851 25.8707L27.39 24.2162C27.5907 24.0658 27.7663 23.9906 27.9168 23.9906C28.0673 23.9906 28.1425 24.141 28.1425 24.4418C21.8719 31.5112 15.7518 36.575 9.78216 39.6334C7.37424 40.8367 5.24223 41.4383 3.38613 41.4383C1.12871 41.4383 0 40.1849 0 37.678C0 35.6725 0.702309 33.1406 2.10693 30.0823C3.56171 27.0239 5.59339 23.8653 8.20196 20.6063C10.8607 17.2973 13.7954 14.2139 17.0059 11.356C20.2666 8.4481 23.9287 6.06659 27.992 4.21152C32.1055 2.30631 36.1187 1.3537 40.0316 1.3537C43.493 1.3537 45.2237 3.05836 45.2237 6.46768C45.2237 8.87426 44.396 11.9577 42.7405 15.718C41.0851 19.4783 39.0785 23.1884 36.7207 26.8484C32.0554 34.1183 27.7161 40.235 23.7029 45.1986L21.2198 48.2068L55.0811 15.2667C56.4355 14.0133 57.188 13.3866 57.3385 13.3866C57.6897 13.3866 57.8652 13.6122 57.8652 14.0635C57.8652 14.4646 57.3887 15.1665 56.4355 16.1692C48.2085 29.2049 41.1352 41.0623 35.2158 51.7415L34.99 52.5687C38.7524 48.1065 44.421 42.1904 51.9959 34.8202C59.5708 27.4501 65.9669 21.4587 71.184 16.8461C76.4012 12.2334 81.518 8.27262 86.5345 4.96357C91.551 1.65452 95.3384 0 97.8969 0C98.6493 0 99.0256 0.401096 99.0256 1.20329C99.0256 1.40384 98.85 1.60439 98.4988 1.80493C98.1978 2.00548 97.1945 2.73247 95.4889 3.9859C90.5226 7.49549 88.0144 9.22522 87.9642 9.17509C87.8137 9.17509 87.7384 9.12495 87.7384 9.02468L87.8889 8.57344C87.8889 8.37289 87.7635 8.27262 87.5127 8.27262C85.5563 8.27262 81.7187 10.5037 75.9999 14.9659C70.3312 19.4281 64.3365 24.6925 58.0157 30.7591C51.7451 36.8257 45.7002 42.9174 39.8811 49.0341C34.1121 55.1508 29.9986 59.8637 27.5405 63.1727C27.0891 63.7242 26.6877 64 26.3366 64C25.9854 64 25.8099 63.8747 25.8099 63.624C25.8099 63.4234 25.9854 62.9973 26.3366 62.3455Z" fill="black"/>
<path d="M67.4581 32.6392C66.6053 32.6392 66.1789 32.2632 66.1789 31.5112C66.1789 30.709 66.5551 29.9569 67.3076 29.255C68.0601 28.5531 68.6871 28.2021 69.1888 28.2021C69.7406 28.2021 70.1419 28.3525 70.3927 28.6533C70.6937 28.9542 70.8442 29.3051 70.8442 29.7062C70.8442 30.1073 70.4931 30.709 69.7908 31.5112C69.0885 32.2632 68.3109 32.6392 67.4581 32.6392ZM48.4205 56.4042C48.9723 55.1508 51.1796 52.293 55.0423 47.8308C58.9551 43.3686 61.9149 40.1347 63.9215 38.1293C64.2225 37.7282 64.373 37.4524 64.373 37.302C64.373 37.1014 64.1723 36.9761 63.771 36.926L62.0403 36.7756C61.639 36.7756 61.2627 36.9761 60.9116 37.3772C57.5004 40.8367 54.2647 44.622 51.2047 48.7333C48.1948 52.7944 46.6898 55.3263 46.6898 56.329C46.6898 57.2816 46.9908 57.7579 47.5928 57.7579C48.3954 57.7579 50.0258 57.1061 52.4839 55.8026C54.942 54.4489 57.1994 53.0952 59.2561 51.7415L62.3413 49.7109L62.266 48.7333C54.1895 54.0478 49.6997 56.7051 48.7968 56.7051C48.5459 56.7051 48.4205 56.6048 48.4205 56.4042Z" fill="black"/>
<path d="M103.008 8.19741C101.503 8.19741 95.9596 13.0106 86.3781 22.6369C76.7966 32.2632 69.5227 40.5108 64.5564 47.3796C69.1715 43.87 76.7464 37.0012 87.2811 26.7732C97.8659 16.4951 103.158 10.3784 103.158 8.42303C103.158 8.32276 103.108 8.24755 103.008 8.19741ZM104.437 6.84371C104.889 6.84371 105.115 7.11947 105.115 7.67098C105.115 10.0776 99.722 16.4951 88.9365 26.9236C78.2012 37.302 69.6732 44.6972 63.3524 49.1093C61.1452 52.2679 60.0415 54.5492 60.0415 55.953C60.0415 56.4042 60.1419 56.6298 60.3425 56.6298C62.3993 56.6298 66.0864 54.9753 71.4039 51.6663L75.9187 48.7333L75.994 49.7109C74.7399 50.5131 73.3101 51.4156 71.7049 52.4183C65.8857 56.0282 61.8475 57.8331 59.59 57.8331C58.9881 57.8331 58.6871 57.3568 58.6871 56.4042C58.6871 53.4963 60.7188 49.2096 64.7821 43.5441C68.8455 37.8284 73.4857 32.3134 78.7029 26.9988C83.9702 21.6342 89.1121 16.9463 94.1286 12.9354C99.1952 8.87426 102.632 6.84371 104.437 6.84371Z" fill="black"/>
<path d="M116.602 8.19741C115.097 8.19741 109.554 13.0106 99.9726 22.6369C90.3911 32.2632 83.1172 40.5108 78.1509 47.3796C82.766 43.87 90.3409 37.0012 100.876 26.7732C111.46 16.4951 116.753 10.3784 116.753 8.42303C116.753 8.32276 116.703 8.24755 116.602 8.19741ZM118.032 6.84371C118.483 6.84371 118.709 7.11947 118.709 7.67098C118.709 10.0776 113.316 16.4951 102.531 26.9236C91.7957 37.302 83.2677 44.6972 76.9469 49.1093C74.7397 52.2679 73.636 54.5492 73.636 55.953C73.636 56.4042 73.7364 56.6298 73.937 56.6298C75.9938 56.6298 79.6809 54.9753 84.9984 51.6663L89.5132 48.7333L89.5885 49.7109C88.3344 50.5131 86.9046 51.4156 85.2994 52.4183C79.4802 56.0282 75.442 57.8331 73.1845 57.8331C72.5826 57.8331 72.2816 57.3568 72.2816 56.4042C72.2816 53.4963 74.3133 49.2096 78.3766 43.5441C82.44 37.8284 87.0802 32.3134 92.2974 26.9988C97.5647 21.6342 102.707 16.9463 107.723 12.9354C112.79 8.87426 116.226 6.84371 118.032 6.84371Z" fill="black"/>
<path d="M105.817 32.6392C104.964 32.6392 104.537 32.2632 104.537 31.5112C104.537 30.709 104.914 29.9569 105.666 29.255C106.419 28.5531 107.046 28.2021 107.547 28.2021C108.099 28.2021 108.5 28.3525 108.751 28.6533C109.052 28.9542 109.203 29.3051 109.203 29.7062C109.203 30.1073 108.852 30.709 108.149 31.5112C107.447 32.2632 106.669 32.6392 105.817 32.6392ZM86.779 56.4042C87.3308 55.1508 89.5381 52.293 93.4008 47.8308C97.3137 43.3686 100.273 40.1347 102.28 38.1293C102.581 37.7282 102.731 37.4524 102.731 37.302C102.731 37.1014 102.531 36.9761 102.13 36.926L100.399 36.7756C99.9975 36.7756 99.6213 36.9761 99.2701 37.3772C95.8589 40.8367 92.6233 44.622 89.5632 48.7333C86.5533 52.7944 85.0483 55.3263 85.0483 56.329C85.0483 57.2816 85.3493 57.7579 85.9513 57.7579C86.754 57.7579 88.3843 57.1061 90.8424 55.8026C93.3005 54.4489 95.5579 53.0952 97.6147 51.7415L100.7 49.7109L100.625 48.7333C92.548 54.0478 88.0582 56.7051 87.1553 56.7051C86.9044 56.7051 86.779 56.6048 86.779 56.4042Z" fill="black"/>
<path d="M122.931 48.7333L123.006 49.7109C114.929 55.0756 110.013 57.7579 108.257 57.7579C107.956 57.7579 107.806 57.5825 107.806 57.2315C107.806 56.1786 108.207 54.6745 109.01 52.7192L109.386 51.6663C109.386 51.566 109.286 51.5159 109.085 51.5159C108.935 51.5159 107.48 52.5186 104.721 54.5241C102.012 56.5296 100.231 57.5323 99.3783 57.5323C98.5756 57.5323 98.1743 56.7803 98.1743 55.2761C98.1743 51.1148 100.532 47.0537 105.248 43.0928C110.013 39.132 115.732 37.1516 122.404 37.1516C123.006 37.1516 123.307 37.4023 123.307 37.9036C123.307 38.405 120.949 41.338 116.234 46.7027C111.518 52.0172 109.16 55.226 109.16 56.329C109.16 56.5296 109.311 56.6298 109.612 56.6298C109.913 56.6298 111.192 55.9781 113.45 54.6745C115.707 53.3709 117.839 52.0674 119.846 50.7638L122.931 48.7333ZM110.966 48.8085C111.819 48.1567 113.475 46.4269 115.933 43.6193C118.391 40.8116 119.62 39.1821 119.62 38.7309C119.62 38.5304 119.419 38.4301 119.018 38.4301C116.71 38.4301 114.026 39.508 110.966 41.6639C107.906 43.7697 105.298 46.1763 103.141 48.8837C101.034 51.5911 99.9802 53.772 99.9802 55.4266C99.9802 55.7274 100.131 55.8778 100.432 55.8778C100.733 55.8778 101.209 55.7023 101.861 55.3514C102.564 54.9503 103.391 54.4238 104.345 53.772C105.348 53.0701 106.201 52.4685 106.903 51.9671C109.311 50.1622 110.665 49.1093 110.966 48.8085Z" fill="black"/>
<path d="M122.097 50.2374L121.871 49.4101L125.032 47.2291C127.289 45.725 128.844 44.5969 129.697 43.8449C130.55 43.0928 131.152 42.5915 131.503 42.3408C131.904 42.04 132.331 41.6138 132.782 41.0623C133.284 40.5108 133.585 40.1849 133.685 40.0846C133.685 40.0846 133.986 39.6835 134.588 38.8813C135.09 38.2797 135.366 37.9287 135.416 37.8284C136.219 38.029 136.62 38.6306 136.62 39.6334C135.215 41.7391 133.158 44.3463 130.45 47.4548C127.741 50.5633 126.386 52.1927 126.386 52.3431C126.386 52.4434 126.411 52.4935 126.461 52.4935C126.562 52.4935 126.938 52.2428 127.59 51.7415C128.292 51.19 130.149 49.8613 133.158 47.7556C139.279 43.5441 143.417 40.7113 145.574 39.2573C146.427 38.5554 147.004 38.2045 147.305 38.2045C147.656 38.2045 147.932 38.3298 148.133 38.5805C148.384 38.781 148.509 39.0819 148.509 39.483C148.509 39.8841 148.108 40.7113 147.305 41.9647C146.502 43.2182 145.65 44.4215 144.747 45.5746C142.389 48.5828 140.934 50.3627 140.382 50.9142C140.131 51.3153 140.006 51.566 140.006 51.6663C140.006 51.7164 140.031 51.7415 140.081 51.7415C140.432 51.7415 146.001 47.8057 156.786 39.9342C158.542 38.6808 159.721 38.0541 160.323 38.0541C160.774 38.0541 161 38.5554 161 39.5582C161 40.5108 160.248 41.9647 158.743 43.9201C157.238 45.8754 155.582 47.6804 153.776 49.3349C148.96 53.747 146.552 56.1786 146.552 56.6298C146.552 56.68 146.653 56.7051 146.853 56.7051C147.455 56.7051 150.842 54.7246 157.012 50.7638L160.097 48.7333L160.172 49.7109C152.096 55.0756 147.18 57.7579 145.424 57.7579C145.123 57.7579 144.972 57.6075 144.972 57.3067C144.972 55.4516 146.126 53.2707 148.434 50.7638C150.791 48.2068 153.124 45.9256 155.432 43.9201C157.739 41.8645 158.893 40.5108 158.893 39.859C158.893 39.7587 158.843 39.7086 158.743 39.7086C158.692 39.7086 158.542 39.7838 158.291 39.9342C158.04 40.0846 154.88 42.2906 148.81 46.5523C142.79 50.8139 139.279 53.3208 138.275 54.0729C137.272 54.7748 136.043 55.8527 134.588 57.3067C134.087 57.7078 133.309 57.9083 132.255 57.9083C131.202 57.9083 130.675 57.8081 130.675 57.6075C130.675 57.3568 130.876 57.0309 131.277 56.6298C134.287 53.6216 137.498 50.2123 140.909 46.4019C144.37 42.5915 146.176 40.5358 146.327 40.235C146.327 40.0846 146.252 40.0094 146.101 40.0094C145.599 40.0094 142.514 42.0149 136.846 46.0259C131.177 49.9867 127.891 52.293 126.988 52.9448C124.63 54.6996 123.376 55.6271 123.226 55.7274C123.125 55.7775 122.875 56.0282 122.473 56.4794C121.57 57.432 120.743 57.9083 119.99 57.9083C119.238 57.7078 118.836 57.5574 118.786 57.4571C119.94 56.1535 122.799 52.669 127.364 47.0035L122.097 50.2374Z" fill="black"/>
</svg>
