<svg width="81" height="81" viewBox="0 0 81 81" fill="none" xmlns="http://www.w3.org/2000/svg">
<rect width="81" height="81" rx="14" fill="#F6FBFA"/>
<path d="M56.9898 23.3749C56.9898 23.3749 56.6301 23.1373 56.5249 23.1049C56.3725 23.058 55.8949 22.9999 55.8949 22.9999C50.1492 22.9322 44.6783 25.4554 40.9999 29.8699C37.3216 25.4554 31.8507 22.9322 26.1049 22.9999C26.1049 22.9999 25.6287 22.9661 25.4749 22.9999C25.3675 23.0233 25.0099 23.2699 25.0099 23.2699L20.5099 27.2299C20.1573 27.5377 19.9686 27.9928 19.9999 28.4599V52.2199C19.9999 53.0482 20.6716 53.7199 21.4999 53.7199C33.7399 53.7199 39.9893 58.6335 40.0549 58.6699C40.2738 58.7912 40.6836 59.0135 41.2463 59.0134C41.6112 59.0132 42.0229 58.7516 42.2547 58.5964C43.8816 57.5077 49.9594 53.9597 60.3649 53.9597C61.1935 53.9597 61.8649 53.288 61.8649 52.4597V28.4597C61.8646 28.0288 61.6788 27.6191 61.3551 27.3347L56.9898 23.3749ZM54.4999 25.9999V46.8199C49.8762 47.1988 45.5772 49.3481 42.4999 52.8199V32.8549C45.2611 28.8765 49.6707 26.3576 54.4999 25.9999V25.9999ZM27.4999 25.9999C32.3245 26.3242 36.7399 28.8244 39.4999 32.7949V52.8199C36.4225 49.3481 32.1237 47.1988 27.4999 46.8199V25.9999ZM22.9999 29.1349L24.4999 27.8149V48.26C24.4999 49.0884 25.1716 49.76 25.9999 49.76C29.3268 49.7347 32.5634 50.8402 35.1799 52.8949C31.2543 51.5582 27.1459 50.8348 22.9999 50.7499V29.1349ZM58.9999 50.7499C54.8539 50.8348 50.7456 51.5582 46.8199 52.8947C49.4365 50.84 52.6733 49.7345 55.9999 49.7599C56.8283 49.7599 57.4999 49.0882 57.4999 48.2599V27.8149L58.9999 29.1349V50.7499Z" fill="#1B8271"/>
</svg>
