<svg width="32" height="26" viewBox="0 0 32 26" fill="none" xmlns="http://www.w3.org/2000/svg">
<path d="M16.0001 3.99512C11.8407 3.99512 8.46863 5.29145 8.46863 6.89067V10.4052C8.46863 12.0044 11.8407 13.3007 16.0001 13.3007C20.1595 13.3007 23.5314 12.0044 23.5314 10.4052V6.89067C23.5314 5.29145 20.1595 3.99512 16.0001 3.99512Z" fill="#717579"/>
<path d="M16.0001 14.5139C12.5381 14.5139 9.62193 13.6157 8.74139 12.3926C8.56388 12.6388 8.46863 12.8985 8.46863 13.1666V16.6811C8.46863 18.2804 11.8407 19.5767 16.0001 19.5767C20.1595 19.5767 23.5314 18.2804 23.5314 16.6811V13.1666C23.5314 12.8985 23.4363 12.6389 23.2588 12.3926C22.3782 13.6158 19.4621 14.5139 16.0001 14.5139Z" fill="#717579"/>
<path d="M16.0001 20.7865C12.5381 20.7865 9.62193 19.8883 8.74139 18.665C8.56388 18.9114 8.46863 19.171 8.46863 19.4391V22.9538C8.46863 24.5528 11.8407 25.8494 16.0001 25.8494C20.1595 25.8494 23.5314 24.5528 23.5314 22.9538V19.4391C23.5314 19.171 23.4363 18.9115 23.2588 18.665C22.3782 19.8884 19.4621 20.7865 16.0001 20.7865Z" fill="#717579"/>
<path d="M24.9149 0.150879C21.5013 0.150879 18.6517 1.07898 17.9802 2.31484C19.3662 2.45351 20.6516 2.73694 21.7161 3.14626C24.6197 4.26246 25.0531 5.98307 25.0531 6.90944V8.90453C28.9022 8.87621 32.0001 7.66784 32.0001 6.18116V2.87486C32 1.37037 28.8278 0.150879 24.9149 0.150879Z" fill="#717579"/>
<path d="M25.053 10.0454V14.8086C28.9022 14.7803 32 13.5719 32 12.0854V8.77891C32 8.52674 31.9105 8.2826 31.7435 8.05078C30.9267 9.18523 28.249 10.022 25.053 10.0454Z" fill="#717579"/>
<path d="M25.053 15.9458V20.709C28.9022 20.6807 32 19.4724 32 17.9858V14.6793C32 14.4271 31.9105 14.183 31.7435 13.9512C30.9267 15.0856 28.249 15.9223 25.053 15.9458Z" fill="#717579"/>
<path d="M14.0208 2.31484C13.3493 1.07905 10.4997 0.150879 7.08608 0.150879C3.17311 0.150879 0.000976562 1.37037 0.000976562 2.87486V6.18116C0.000976562 7.66785 3.09875 8.87621 6.94778 8.90454V6.90944C6.94778 5.98307 7.3813 4.26254 10.2849 3.14626C11.3495 2.73694 12.6347 2.45351 14.0208 2.31484Z" fill="#717579"/>
<path d="M0.256457 8.05078C0.0894671 8.2826 0 8.52674 0 8.77891V12.0854C0 13.5719 3.09777 14.7803 6.94681 14.8086V10.0454C3.75093 10.0219 1.07308 9.18516 0.256457 8.05078Z" fill="#717579"/>
<path d="M0.256457 13.9512C0.0894671 14.183 0 14.4271 0 14.6793V17.9858C0 19.4725 3.09777 20.6807 6.94681 20.7091V15.9459C3.75093 15.9222 1.07308 15.0855 0.256457 13.9512Z" fill="#717579"/>
</svg>
