<svg width="18" height="18" viewBox="0 0 18 18" fill="none" xmlns="http://www.w3.org/2000/svg">
<path d="M17.2106 6.99149C17.1666 6.86048 17.0873 6.74415 16.9815 6.65534C16.8756 6.56654 16.7472 6.50871 16.6106 6.48824L11.8241 5.75699L9.67605 1.18199C9.61549 1.05315 9.5195 0.9442 9.3993 0.867889C9.27911 0.791577 9.13968 0.751053 8.9973 0.751053C8.85493 0.751053 8.7155 0.791577 8.5953 0.867889C8.47511 0.9442 8.37912 1.05315 8.31855 1.18199L6.17055 5.75699L1.38405 6.48824C1.24772 6.50903 1.11975 6.567 1.01423 6.65578C0.908698 6.74457 0.829693 6.86073 0.785896 6.9915C0.742099 7.12227 0.735207 7.26258 0.765976 7.39702C0.796745 7.53145 0.863985 7.65479 0.960303 7.7535L4.44855 11.325L3.62355 16.3785C3.60104 16.5172 3.61794 16.6594 3.67232 16.789C3.7267 16.9185 3.81638 17.0302 3.93114 17.1112C4.0459 17.1923 4.18112 17.2395 4.3214 17.2475C4.46167 17.2554 4.60137 17.2238 4.72455 17.1562L8.99955 14.7952L13.2746 17.1562C13.3977 17.2244 13.5376 17.2565 13.6782 17.2489C13.8188 17.2412 13.9543 17.1942 14.0694 17.1131C14.1845 17.0321 14.2745 16.9203 14.329 16.7905C14.3836 16.6607 14.4005 16.5182 14.3778 16.3792L13.5528 11.3257L17.0388 7.7535C17.1347 7.65452 17.2014 7.53104 17.2317 7.39662C17.262 7.2622 17.2547 7.12203 17.2106 6.99149Z" fill="url(#paint0_linear_429_308)"/>
<defs>
<linearGradient id="paint0_linear_429_308" x1="14.362" y1="0.0553156" x2="0.301996" y2="16.1396" gradientUnits="userSpaceOnUse">
<stop stop-color="#FF827A"/>
<stop offset="1" stop-color="#FFA825"/>
</linearGradient>
</defs>
</svg>
