<svg width="84" height="58" viewBox="0 0 84 58" fill="none" xmlns="http://www.w3.org/2000/svg">
	<path d="M79.7625 6.00875C78.7089 5.44589 77.5225 5.179 76.3293 5.23644C75.1362 5.29389 73.9809 5.67352 72.9862 6.335L60.75 14.4912V10.3213C60.747 7.81686 59.7508 5.4159 57.98 3.64503C56.2091 1.87416 53.8081 0.877977 51.3037 0.875H10.1962C7.69186 0.877977 5.2909 1.87416 3.52003 3.64503C1.74916 5.4159 0.752977 7.81686 0.75 10.3213V47.6788C0.752977 50.1831 1.74916 52.5841 3.52003 54.355C5.2909 56.1258 7.69186 57.122 10.1962 57.125H51.3037C53.8081 57.122 56.2091 56.1258 57.98 54.355C59.7508 52.5841 60.747 50.1831 60.75 47.6788V43.5088L72.9862 51.665C73.9807 52.3271 75.1361 52.7071 76.3294 52.7644C77.5228 52.8217 78.7093 52.5543 79.7626 51.9905C80.8159 51.4267 81.6965 50.5877 82.3107 49.5629C82.9248 48.5381 83.2494 47.366 83.25 46.1713V11.8288C83.2492 10.634 82.9244 9.46179 82.3103 8.43693C81.6962 7.41207 80.8157 6.57291 79.7625 6.00875V6.00875ZM53.25 47.6788C53.25 48.1949 53.0449 48.69 52.6799 49.055C52.315 49.4199 51.8199 49.625 51.3037 49.625H10.1962C9.68007 49.625 9.18503 49.4199 8.82004 49.055C8.45505 48.69 8.25 48.1949 8.25 47.6788V10.3213C8.25 9.80507 8.45505 9.31004 8.82004 8.94504C9.18503 8.58005 9.68007 8.375 10.1962 8.375H51.3037C51.8199 8.375 52.315 8.58005 52.6799 8.94504C53.0449 9.31004 53.25 9.80507 53.25 10.3213V47.6788ZM75.75 44.495L60.75 34.4938V23.5062L75.75 13.505V44.495Z" fill="#1B8271"/>
</svg>
