<svg width="28" height="28" viewBox="0 0 28 28" fill="none" xmlns="http://www.w3.org/2000/svg">
<path d="M23.3327 4.66667H21.9993V2.00001C21.9993 1.64638 21.8589 1.30724 21.6088 1.0572C21.3588 0.807147 21.0196 0.666672 20.666 0.666672C20.3124 0.666672 19.9733 0.807147 19.7232 1.0572C19.4732 1.30724 19.3327 1.64638 19.3327 2.00001V4.66667H8.66602V2.00001C8.66602 1.64638 8.52554 1.30724 8.27549 1.0572C8.02544 0.807147 7.6863 0.666672 7.33268 0.666672C6.97906 0.666672 6.63992 0.807147 6.38987 1.0572C6.13983 1.30724 5.99935 1.64638 5.99935 2.00001V4.66667H4.66602C3.60515 4.66667 2.58773 5.0881 1.83759 5.83824C1.08744 6.58839 0.666016 7.60581 0.666016 8.66667V10H27.3327V8.66667C27.3327 7.60581 26.9113 6.58839 26.1611 5.83824C25.411 5.0881 24.3935 4.66667 23.3327 4.66667Z" fill="#717579"/>
<path d="M0.666016 23.3333C0.666016 24.3942 1.08744 25.4116 1.83759 26.1618C2.58773 26.9119 3.60515 27.3333 4.66602 27.3333H23.3327C24.3935 27.3333 25.411 26.9119 26.1611 26.1618C26.9113 25.4116 27.3327 24.3942 27.3327 23.3333V12.6667H0.666016V23.3333Z" fill="#717579"/>
</svg>
