<svg width="173" height="54" viewBox="0 0 173 54" fill="none" xmlns="http://www.w3.org/2000/svg">
<path d="M35.6582 29.7502C35.6582 33.253 35.7205 35.5025 35.845 36.4989H29.7502V12.0962H35.6582V14.1979C37.791 12.4854 39.9783 11.6292 42.2201 11.6292C44.8666 11.6292 46.7892 12.7734 47.988 15.0619C49.1867 13.8321 50.183 13.0225 50.977 12.6333C52.3003 11.9639 53.6235 11.6292 54.9468 11.6292C56.2856 11.6292 57.4221 11.8549 58.3562 12.3064C59.2902 12.7579 60.0608 13.3962 60.668 14.2213C61.8979 15.887 62.5128 18.1755 62.5128 21.0867V30.3807C62.5128 33.0117 62.5517 34.5918 62.6295 35.1211C62.7074 35.6504 62.8086 35.9929 62.9331 36.1486C63.0732 36.3043 63.19 36.4444 63.2834 36.5689L63.2367 36.6623C61.9913 36.5534 61.0728 36.4989 60.4812 36.4989H58.7298C58.1538 36.4989 57.4454 36.5222 56.6048 36.5689V23.9356C56.6048 20.2927 56.0443 18.1288 54.9235 17.4438C54.5498 17.2259 54.1061 17.1169 53.5924 17.1169C53.0942 17.1169 52.6505 17.1791 52.2613 17.3037C51.8721 17.4127 51.5063 17.5995 51.1638 17.8641C50.5878 18.2845 49.9339 19.1096 49.2023 20.3394C49.2178 20.464 49.2256 20.5885 49.2256 20.7131C49.2256 20.8376 49.2256 22.8926 49.2256 26.8779C49.2256 30.8633 49.319 34.0703 49.5058 36.4989C48.1826 36.4989 47.0539 36.4989 46.1198 36.4989C45.2013 36.4989 44.3217 36.5222 43.4811 36.5689V23.9123C43.4811 21.3747 43.3254 19.7245 43.014 18.9617C42.7182 18.1988 42.3991 17.7007 42.0566 17.4672C41.7141 17.2336 41.2938 17.1169 40.7956 17.1169C38.7406 17.1169 37.0282 18.1054 35.6582 20.0826V29.7502Z" fill="#CACACA"/>
<path d="M85.3976 35.0511C83.1869 36.2498 81.1865 36.8492 79.3961 36.8492C77.6058 36.8492 76.0724 36.6857 74.7958 36.3588C73.5193 36.0163 72.4373 35.5181 71.5499 34.8643C69.7441 33.541 68.8411 31.6261 68.8411 29.1197C68.8411 26.8779 69.9464 25.0098 72.1571 23.5153C74.5545 21.8962 77.8082 21.0867 81.9181 21.0867L82.8522 21.11C83.039 21.1256 83.2492 21.1412 83.4827 21.1567C83.7162 21.1567 83.9264 21.1723 84.1132 21.2034C83.9887 18.7126 82.9145 17.257 80.8907 16.8367C80.2212 16.6965 79.5051 16.6265 78.7423 16.6265C77.995 16.6265 77.2556 16.6965 76.5239 16.8367C75.8078 16.9612 75.1072 17.1324 74.4222 17.3504C72.9121 17.833 71.8302 18.3857 71.1763 19.0084L71.1063 18.9617L70.4057 13.8009C73.1612 12.3531 76.1736 11.6292 79.4429 11.6292C84.518 11.6292 87.7639 13.4584 89.1806 17.1169C89.632 18.2845 89.8578 19.6 89.8578 21.0633V29.5167C89.8578 31.3226 90.496 32.5524 91.7726 33.2063L87.5459 37.0827C86.6586 36.6156 85.9424 35.9384 85.3976 35.0511ZM84.1366 25.4068C83.7162 25.3289 83.2803 25.29 82.8289 25.29H81.8948C78.4543 25.29 76.267 26.0528 75.3329 27.5785C75.0527 28.03 74.9126 28.5048 74.9126 29.0029C74.9126 29.5011 74.9982 29.9448 75.1695 30.334C75.3563 30.7076 75.6599 31.019 76.0802 31.2681C76.8897 31.7351 78.0884 31.9686 79.6764 31.9686C81.2799 31.9686 82.7744 31.5872 84.1599 30.8244C84.1443 30.6531 84.1366 30.4741 84.1366 30.2873V25.4068Z" fill="#CACACA"/>
<path d="M95.9526 5.30086C96.9645 3.6818 98.1243 2.15615 99.432 0.723906L103.892 4.25003C103.114 5.24637 102.584 5.93136 102.304 6.30499L101.487 7.44923C101.222 7.80729 100.942 8.21205 100.646 8.66352L95.9526 5.30086ZM93.3605 40.1184C95.6646 40.1184 96.8166 38.4059 96.8166 34.981V12.0962H102.491V33.2997C102.491 39.8382 100.631 43.7068 96.91 44.9055C95.6957 45.2947 94.318 45.4893 92.7767 45.4893L90.3481 39.3478L90.3949 39.231C91.2822 39.8226 92.2708 40.1184 93.3605 40.1184Z" fill="#CACACA"/>
<path d="M108.422 5.1374C109.668 3.19141 110.968 1.47895 112.322 0L117.343 3.94646C116.673 4.77155 116.051 5.58108 115.475 6.37504C115.475 6.37504 114.875 7.22349 113.677 8.92039L108.422 5.1374ZM114.564 33.8835C114.564 35.2223 114.595 36.0941 114.657 36.4989H108.726V12.0962H114.564V33.8835Z" fill="#CACACA"/>
<path d="M127.314 33.5098C127.314 34.8798 127.376 35.8762 127.501 36.4989H121.64V12.0962H127.314V14.1745C129.369 12.4777 131.564 11.6292 133.899 11.6292C136.452 11.6292 138.492 12.501 140.017 14.2446C141.543 15.9726 142.306 18.2533 142.306 21.0867V30.3807C142.306 33.0117 142.345 34.5918 142.423 35.1211C142.501 35.6504 142.602 35.9929 142.726 36.1486C142.866 36.3043 142.983 36.4444 143.077 36.5689L143.03 36.6623C141.769 36.5534 140.85 36.4989 140.274 36.4989H138.64C138.142 36.4989 137.472 36.5222 136.631 36.5689V23.8422C136.631 19.2808 135.246 17.0001 132.475 17.0001C130.42 17.0001 128.7 18.0587 127.314 20.176V33.5098Z" fill="#CACACA"/>
<path d="M147.98 24.496C147.98 22.6746 148.292 20.9855 148.914 19.4287C149.537 17.8719 150.417 16.5097 151.553 15.3421C153.982 12.8668 157.158 11.6292 161.081 11.6292C164.397 11.6292 167.059 12.7267 169.067 14.9218C171.044 17.039 172.033 19.7011 172.033 22.9081C172.033 24.138 171.939 24.9787 171.753 25.4301C170.196 25.866 167.028 26.084 162.248 26.084H154.029C154.433 27.7497 155.375 29.0497 156.854 29.9837C158.333 30.9022 160.256 31.3615 162.622 31.3615C165.097 31.3615 167.222 30.9178 168.997 30.0304C169.464 29.7969 169.814 29.579 170.048 29.3766C170.017 30.0304 169.978 30.6998 169.931 31.3848L169.674 35.0277C168.491 35.8372 166.576 36.3977 163.93 36.709C163.151 36.8025 162.404 36.8492 161.688 36.8492C157.734 36.8492 154.464 35.6971 151.88 33.3931C149.28 31.0735 147.98 28.1078 147.98 24.496ZM165.821 21.5537C165.183 18.2066 163.361 16.5331 160.357 16.5331C157.991 16.5331 156.192 17.5528 154.963 19.5922C154.589 20.2149 154.301 20.8999 154.099 21.6471C154.472 21.6627 154.931 21.6783 155.476 21.6938H157.204C157.78 21.7094 158.333 21.7172 158.862 21.7172H160.193C160.987 21.7172 161.766 21.7094 162.529 21.6938L164.443 21.6238C164.957 21.6082 165.416 21.5849 165.821 21.5537Z" fill="#CACACA"/>
<path d="M6.37504 12.7061C8.58568 11.5073 10.5862 10.908 12.3765 10.908C14.1668 10.908 15.7002 11.0714 16.9768 11.3984C18.2533 11.7409 19.3353 12.239 20.2227 12.8929C22.0285 14.2162 22.9315 16.131 22.9315 18.6374C22.9315 20.8792 21.8262 22.7473 19.6155 24.2419C17.2181 25.8609 13.9644 26.6704 9.85446 26.6704L8.92039 26.6471C8.73357 26.6315 8.52341 26.616 8.28989 26.6004C8.05637 26.6004 7.8462 26.5848 7.65939 26.5537C7.78393 29.0445 8.85812 30.5001 10.8819 30.9205C11.5514 31.0606 12.2675 31.1306 13.0303 31.1306C13.7776 31.1306 14.517 31.0606 15.2487 30.9205C15.9648 30.7959 16.6654 30.6247 17.3504 30.4067C18.8605 29.9241 19.9424 29.3715 20.5963 28.7488L20.6663 28.7955L21.3669 33.9562C18.6114 35.404 15.599 36.1279 12.3298 36.1279C7.25463 36.1279 4.00872 34.2987 2.59205 30.6403C2.14058 29.4727 1.91484 28.1572 1.91484 26.6938V18.2404C1.91484 16.4346 1.27656 15.2047 -3.8147e-06 14.5509L4.22668 10.6745C5.11404 11.1415 5.83017 11.8187 6.37504 12.7061ZM7.63604 22.3504C8.05637 22.4282 8.49227 22.4671 8.94374 22.4671H9.87781C13.3183 22.4671 15.5056 21.7043 16.4397 20.1786C16.7199 19.7272 16.86 19.2524 16.86 18.7542C16.86 18.256 16.7744 17.8123 16.6031 17.4231C16.4163 17.0495 16.1127 16.7381 15.6924 16.4891C14.8829 16.022 13.6842 15.7885 12.0962 15.7885C10.4927 15.7885 8.99823 16.1699 7.61269 16.9327C7.62825 17.104 7.63604 17.283 7.63604 17.4698V22.3504Z" fill="#CACACA"/>
<path d="M7.16077 49.6224C6.12319 48.5848 6.12319 46.9025 7.16077 45.8649L9.42858 43.5971C10.4662 42.5595 12.1484 42.5595 13.186 43.5971L15.4538 45.8649C16.4914 46.9025 16.4914 48.5848 15.4538 49.6224L13.186 51.8902C12.1484 52.9278 10.4662 52.9278 9.42858 51.8902L7.16077 49.6224Z" fill="#CACACA"/>
</svg>
