<svg width="28" height="28" viewBox="0 0 28 28" fill="none" xmlns="http://www.w3.org/2000/svg">
<path d="M23.333 4.6665H21.9997V1.99984C21.9997 1.64622 21.8592 1.30708 21.6092 1.05703C21.3591 0.80698 21.02 0.666504 20.6664 0.666504C20.3128 0.666504 19.9736 0.80698 19.7236 1.05703C19.4735 1.30708 19.333 1.64622 19.333 1.99984V4.6665H8.66638V1.99984C8.66638 1.64622 8.52591 1.30708 8.27586 1.05703C8.02581 0.80698 7.68667 0.666504 7.33305 0.666504C6.97943 0.666504 6.64029 0.80698 6.39024 1.05703C6.14019 1.30708 5.99972 1.64622 5.99972 1.99984V4.6665H4.66638C3.60552 4.6665 2.5881 5.08793 1.83795 5.83808C1.08781 6.58822 0.666382 7.60564 0.666382 8.6665V9.99984H27.333V8.6665C27.333 7.60564 26.9116 6.58822 26.1615 5.83808C25.4113 5.08793 24.3939 4.6665 23.333 4.6665Z" fill="#717579"/>
<path d="M0.666382 23.3332C0.666382 24.394 1.08781 25.4115 1.83795 26.1616C2.5881 26.9117 3.60552 27.3332 4.66638 27.3332H23.333C24.3939 27.3332 25.4113 26.9117 26.1615 26.1616C26.9116 25.4115 27.333 24.394 27.333 23.3332V12.6665H0.666382V23.3332Z" fill="#717579"/>
</svg>
