<svg width="18" height="18" viewBox="0 0 18 18" fill="none" xmlns="http://www.w3.org/2000/svg">
<path d="M17.2106 6.99154C17.1666 6.86052 17.0873 6.74419 16.9815 6.65539C16.8756 6.56658 16.7472 6.50876 16.6106 6.48829L11.8241 5.75704L9.67605 1.18204C9.61549 1.05319 9.5195 0.944246 9.3993 0.867934C9.27911 0.791623 9.13968 0.751099 8.9973 0.751099C8.85493 0.751099 8.7155 0.791623 8.5953 0.867934C8.47511 0.944246 8.37912 1.05319 8.31855 1.18204L6.17055 5.75704L1.38405 6.48829C1.24772 6.50907 1.11975 6.56704 1.01423 6.65583C0.908698 6.74461 0.829693 6.86077 0.785896 6.99154C0.742099 7.12231 0.735207 7.26263 0.765976 7.39706C0.796745 7.53149 0.863985 7.65484 0.960303 7.75354L4.44855 11.325L3.62355 16.3785C3.60104 16.5172 3.61794 16.6595 3.67232 16.789C3.7267 16.9186 3.81638 17.0302 3.93114 17.1113C4.0459 17.1924 4.18112 17.2396 4.3214 17.2475C4.46167 17.2555 4.60137 17.2239 4.72455 17.1563L8.99955 14.7953L13.2746 17.1563C13.3977 17.2244 13.5376 17.2565 13.6782 17.2489C13.8188 17.2413 13.9543 17.1943 14.0694 17.1132C14.1845 17.0321 14.2745 16.9203 14.329 16.7905C14.3836 16.6607 14.4005 16.5182 14.3778 16.3793L13.5528 11.3258L17.0388 7.75354C17.1347 7.65456 17.2014 7.53109 17.2317 7.39666C17.262 7.26224 17.2547 7.12207 17.2106 6.99154V6.99154Z" fill="url(#paint0_linear_429_377)"/>
<defs>
<linearGradient id="paint0_linear_429_377" x1="14.362" y1="0.0553614" x2="0.301996" y2="16.1396" gradientUnits="userSpaceOnUse">
<stop stop-color="#FF827A"/>
<stop offset="1" stop-color="#FFA825"/>
</linearGradient>
</defs>
</svg>
