<svg width="81" height="81" viewBox="0 0 81 81" fill="none" xmlns="http://www.w3.org/2000/svg">
<rect width="81" height="81" rx="14" fill="#F6FBFA"/>
<path d="M28.9969 56.963H24.9971V52.961H28.9969V56.963ZM24.9971 24.9688H28.9969V28.9685H24.9971V24.9688ZM52.9894 24.9688H56.9914V28.9685H52.9894V24.9688ZM20.9951 52.961V56.963C20.9951 59.1425 22.8146 60.9628 24.9971 60.9628H28.9969C31.1786 60.9628 32.9989 59.1425 32.9989 56.963H42.9949C44.0906 56.963 44.9951 56.0585 44.9951 54.9605C44.9951 53.8648 44.0906 52.961 42.9949 52.961H32.9989C32.9989 50.7785 31.1786 48.9605 28.9969 48.9605V32.9705C31.1786 32.9705 32.9989 31.151 32.9989 28.9685H48.9889C48.9889 31.151 50.8069 32.9705 52.9894 32.9705V42.9666C52.9894 44.0631 53.8931 44.9668 54.9889 44.9668C56.0869 44.9668 56.9914 44.0631 56.9914 42.9666V32.9705C59.1709 32.9705 60.9911 31.151 60.9911 28.9685V24.9688C60.9911 22.787 59.1709 20.9668 56.9914 20.9668H52.9894C50.8069 20.9668 48.9889 22.787 48.9889 24.9688H32.9989C32.9989 22.787 31.1786 20.9668 28.9969 20.9668H24.9971C22.8146 20.9668 20.9951 22.787 20.9951 24.9688V28.9685C20.9951 31.151 22.8146 32.9705 24.9971 32.9705V48.9605C22.8146 48.9605 20.9951 50.7785 20.9951 52.961" fill="#1B8271"/>
<path d="M53.2991 52.3851C52.9166 52.5786 52.6061 52.8891 52.4126 53.2709L51.9993 54.0966L50.5833 50.5551L54.1248 51.9711L53.2991 52.3851ZM47.7326 45.1071C47.4821 45.0111 47.2173 44.9646 46.9503 44.9729C45.8711 44.9991 44.9966 45.8931 44.9966 46.9731C44.9966 47.2229 45.0416 47.4726 45.1338 47.7051L49.9331 59.7089C50.2368 60.4649 50.9726 60.9629 51.7886 60.9629C52.5468 60.9629 53.2413 60.5331 53.5781 59.8551L55.6901 55.6626L59.8826 53.5506C60.5613 53.2131 60.9911 52.5186 60.9911 51.7611C60.9911 50.9451 60.4931 50.2086 59.7371 49.9049L47.7326 45.1071Z" fill="#1B8271"/>
</svg>
