<svg width="79" height="68" viewBox="0 0 79 68" fill="none" xmlns="http://www.w3.org/2000/svg">
<path d="M69.6474 0.953136C69.6474 0.953136 68.9731 0.507706 68.7758 0.446886C68.49 0.358996 67.5946 0.250011 67.5946 0.250011C56.8213 0.123097 46.5634 4.85407 39.6665 13.1313C32.7695 4.85407 22.5116 0.123097 11.7383 0.250011C11.7383 0.250011 10.8454 0.186729 10.5571 0.250011C10.3556 0.293956 9.68521 0.75626 9.68521 0.75626L1.24771 8.18126C0.586424 8.75853 0.232753 9.61177 0.291464 10.4875V55.0375C0.291464 56.5907 1.55076 57.85 3.10396 57.85C26.054 57.85 37.7715 67.0631 37.8946 67.1313C38.3049 67.3587 39.0734 67.7757 40.1284 67.7753C40.8126 67.775 41.5846 67.2845 42.0191 66.9934C45.0696 64.9523 56.4655 58.2997 75.9758 58.2997C77.5294 58.2997 78.7883 57.0404 78.7883 55.4872V10.4872C78.7876 9.67927 78.4392 8.9111 77.8324 8.37778L69.6474 0.953136ZM64.979 5.87501V44.9125C56.3094 45.623 48.2488 49.653 42.479 56.1625V18.7281C47.6561 11.2687 55.9241 6.54579 64.979 5.87501ZM14.354 5.87501C23.4 6.48321 31.679 11.1709 36.854 18.6156V56.1625C31.0838 49.653 23.0235 45.623 14.354 44.9125V5.87501ZM5.91646 11.7531L8.72896 9.27814V47.6129C8.72896 49.1661 9.98826 50.4254 11.5415 50.4254C17.7792 50.3779 23.8479 52.4507 28.754 56.3031C21.3933 53.7968 13.6902 52.4405 5.91646 52.2813V11.7531ZM73.4165 52.2813C65.6427 52.4405 57.9396 53.7968 50.579 56.3028C55.485 52.4504 61.554 50.3775 67.7915 50.425C69.3447 50.425 70.604 49.1657 70.604 47.6125V9.27814L73.4165 11.7531V52.2813Z" fill="#1B8271"/>
</svg>
