<svg width="24" height="24" viewBox="0 0 24 24" fill="none" xmlns="http://www.w3.org/2000/svg">
<path d="M12.0004 2.39993C6.69879 2.39993 2.40039 6.69833 2.40039 11.9999C2.40039 14.1023 3.07719 16.0487 4.22679 17.6303L2.90679 21.1007L6.71559 20.0159C8.22999 21.0167 10.0468 21.5999 12.0004 21.5999C17.302 21.5999 21.6004 17.3015 21.6004 11.9999C21.6004 6.69833 17.302 2.39993 12.0004 2.39993ZM17.1028 15.9767L16.0804 16.9991C15.0052 18.0743 12.154 16.8911 9.62679 14.3639C7.09719 11.8343 5.96679 8.98313 6.98919 7.90793L8.01159 6.88553C8.38839 6.50873 9.03399 6.50873 9.46359 6.88553L10.9708 8.39273C11.5084 8.93033 11.2924 9.84473 10.594 10.0583C10.1092 10.2215 9.78759 10.7591 9.94839 11.2439C10.2172 12.3719 11.6692 13.7711 12.7468 14.0399C13.2292 14.1479 13.7692 13.8791 13.93 13.3943C14.1436 12.6959 15.0604 12.4799 15.598 13.0175L17.1028 14.5247C17.4796 14.9015 17.4796 15.5471 17.1028 15.9767Z" fill="white"/>
</svg>
