<svg width="32" height="26" viewBox="0 0 32 26" fill="none" xmlns="http://www.w3.org/2000/svg">
<path d="M16.0002 3.99504C11.8408 3.99504 8.46875 5.29137 8.46875 6.89059V10.4051C8.46875 12.0043 11.8408 13.3007 16.0002 13.3007C20.1596 13.3007 23.5315 12.0043 23.5315 10.4051V6.89059C23.5315 5.29137 20.1596 3.99504 16.0002 3.99504Z" fill="#717579"/>
<path d="M16.0002 14.5141C12.5382 14.5141 9.62206 13.6159 8.74151 12.3927C8.564 12.6389 8.46875 12.8986 8.46875 13.1667V16.6813C8.46875 18.2805 11.8408 19.5768 16.0002 19.5768C20.1596 19.5768 23.5315 18.2805 23.5315 16.6813V13.1667C23.5315 12.8986 23.4364 12.639 23.2589 12.3927C22.3784 13.6159 19.4622 14.5141 16.0002 14.5141Z" fill="#717579"/>
<path d="M16.0002 20.7862C12.5382 20.7862 9.62206 19.888 8.74151 18.6647C8.564 18.9111 8.46875 19.1706 8.46875 19.4387V22.9534C8.46875 24.5525 11.8408 25.8491 16.0002 25.8491C20.1596 25.8491 23.5315 24.5525 23.5315 22.9534V19.4387C23.5315 19.1707 23.4364 18.9112 23.2589 18.6647C22.3784 19.888 19.4622 20.7862 16.0002 20.7862Z" fill="#717579"/>
<path d="M24.9152 0.151108C21.5016 0.151108 18.652 1.07921 17.9805 2.31507C19.3665 2.45374 20.6519 2.73717 21.7165 3.14649C24.62 4.26269 25.0534 5.9833 25.0534 6.90967V8.90476C28.9025 8.87644 32.0004 7.66807 32.0004 6.18139V2.87508C32.0003 1.37059 28.8281 0.151108 24.9152 0.151108Z" fill="#717579"/>
<path d="M25.0527 10.0457V14.8088C28.9018 14.7805 31.9997 13.5722 31.9997 12.0856V8.77917C31.9997 8.527 31.9102 8.28286 31.7432 8.05104C30.9264 9.18549 28.2487 10.0222 25.0527 10.0457Z" fill="#717579"/>
<path d="M25.0527 15.9459V20.7091C28.9018 20.6808 31.9997 19.4725 31.9997 17.9858V14.6794C31.9997 14.4272 31.9102 14.1831 31.7432 13.9513C30.9264 15.0857 28.2487 15.9224 25.0527 15.9459Z" fill="#717579"/>
<path d="M14.0208 2.31499C13.3493 1.07921 10.4997 0.151031 7.08608 0.151031C3.17311 0.151031 0.000976562 1.37052 0.000976562 2.87501V6.18131C0.000976562 7.668 3.09875 8.87637 6.94778 8.90469V6.90959C6.94778 5.98322 7.3813 4.26269 10.2849 3.14641C11.3495 2.73709 12.6347 2.45366 14.0208 2.31499Z" fill="#717579"/>
<path d="M0.256457 8.0511C0.0894671 8.28292 0 8.52706 0 8.77923V12.0857C0 13.5722 3.09777 14.7806 6.94681 14.8089V10.0457C3.75093 10.0222 1.07308 9.18548 0.256457 8.0511Z" fill="#717579"/>
<path d="M0.256457 13.9514C0.0894671 14.1832 0 14.4273 0 14.6795V17.986C0 19.4727 3.09777 20.6809 6.94681 20.7092V15.9461C3.75093 15.9224 1.07308 15.0857 0.256457 13.9514Z" fill="#717579"/>
</svg>
