<svg width="20" height="20" viewBox="0 0 20 20" fill="none" xmlns="http://www.w3.org/2000/svg">
<path d="M19.5944 19.6001V19.5994H19.5991V12.5578C19.5991 9.11306 18.8575 6.45938 14.8303 6.45938C12.8943 6.45938 11.5951 7.52186 11.0647 8.5289H11.0088V6.78098H7.19043V19.5994H11.1665V13.2521C11.1665 11.581 11.4833 9.96482 13.5528 9.96482C15.5921 9.96482 15.6223 11.8721 15.6223 13.3591V19.6001H19.5944Z" fill="#0073B1"/>
<path d="M0.71582 6.78165H4.69669V19.6H0.71582V6.78165Z" fill="#0073B1"/>
<path d="M2.7051 0.400116C1.43214 0.400116 0.399414 1.43283 0.399414 2.70579C0.399414 3.97875 1.43214 5.03307 2.7051 5.03307C3.97806 5.03307 5.01078 3.97875 5.01078 2.70579C5.00982 1.43283 3.9771 0.400116 2.7051 0.400116Z" fill="#0073B1"/>
</svg>
