<svg width="132" height="26" viewBox="0 0 132 26" fill="none" xmlns="http://www.w3.org/2000/svg">
<path d="M44.46 13.2752H51.8264L49.7068 23.2453C48.5379 23.6466 47.4519 23.917 46.4488 24.0565C45.4544 24.2048 44.399 24.279 43.2825 24.279C41.0233 24.279 39.2787 23.6378 38.0488 22.3556C36.8189 21.0733 36.2039 19.2328 36.2039 16.8341C36.2039 14.4964 36.6706 12.3855 37.604 10.5014C38.5373 8.60853 39.8501 7.15183 41.5423 6.13127C43.2345 5.10199 45.1884 4.58734 47.404 4.58734C49.3055 4.58734 51.0937 5.01912 52.7685 5.88267L51.2638 9.16679C50.6183 8.81788 49.9728 8.53875 49.3273 8.3294C48.6818 8.12006 47.9797 8.01538 47.2208 8.01538C45.8862 8.01538 44.6912 8.37738 43.6357 9.10137C42.589 9.82536 41.7647 10.859 41.1628 12.2023C40.5697 13.5369 40.2731 14.9761 40.2731 16.5201C40.2731 18.0204 40.5871 19.1238 41.2152 19.8304C41.8519 20.5282 42.8245 20.8771 44.1329 20.8771C44.7959 20.8771 45.5373 20.7724 46.3572 20.5631L47.2208 16.6509H43.7273L44.46 13.2752Z" fill="#CACACA"/>
<path d="M57.518 24.0173H53.5797L57.8974 3.65837H61.8358L57.518 24.0173Z" fill="#CACACA"/>
<path d="M71.5834 14.9107C71.5834 13.1923 70.9597 12.3331 69.7124 12.3331C69.0582 12.3331 68.4694 12.5992 67.946 13.1313C67.4314 13.6634 67.0083 14.4441 66.6769 15.4733C66.3541 16.5026 66.1928 17.5624 66.1928 18.6528C66.1928 20.2665 66.847 21.0733 68.1554 21.0733C68.8096 21.0733 69.3984 20.8073 69.9217 20.2752C70.4451 19.7344 70.8507 18.9886 71.1386 18.0378C71.4351 17.0783 71.5834 16.036 71.5834 14.9107ZM75.5479 14.9107C75.5479 16.7512 75.2383 18.3824 74.6189 19.8042C74.0084 21.226 73.123 22.3294 71.9629 23.1145C70.8027 23.8908 69.4245 24.279 67.8283 24.279C66.1273 24.279 64.7666 23.7687 63.746 22.7481C62.7342 21.7188 62.2283 20.3537 62.2283 18.6528C62.2283 16.7948 62.5379 15.1419 63.1572 13.6939C63.7853 12.2372 64.6881 11.112 65.8657 10.3182C67.0432 9.5157 68.4214 9.11445 70.0002 9.11445C71.7099 9.11445 73.0619 9.62909 74.0563 10.6584C75.0507 11.6877 75.5479 13.1051 75.5479 14.9107Z" fill="#CACACA"/>
<path d="M87.9255 12.7649C87.3847 14.3176 86.8482 15.7089 86.3162 16.9388L83.2676 24.0173H79.0283L78.361 9.38922H82.0376L82.09 15.8659L82.0376 18.0509L81.9461 20.2883H81.9984C82.0507 20.1138 82.1118 19.935 82.1816 19.7518C82.2514 19.5599 82.4738 18.9624 82.8489 17.9593C83.2239 16.9562 83.4246 16.4372 83.4507 16.4023L86.4732 9.38922H90.7648V16.4023C90.7648 17.6409 90.7211 18.9363 90.6339 20.2883H90.7124L91.0788 19.2416C91.7155 17.4272 92.1299 16.302 92.3218 15.8659L95.1872 9.38922H99.204L92.2694 24.0173H87.9517L87.8732 17.2135C87.8732 15.8615 87.9168 14.3786 88.004 12.7649H87.9255Z" fill="#CACACA"/>
<path d="M116.606 4.88828L113.976 17.2659C113.479 19.5861 112.528 21.335 111.124 22.5126C109.719 23.6902 107.892 24.279 105.641 24.279C103.792 24.279 102.335 23.7861 101.271 22.8004C100.216 21.8061 99.6881 20.4627 99.6881 18.7705C99.6881 18.1425 99.7535 17.5406 99.8844 16.9649L102.449 4.88828H106.44L103.901 16.9126C103.753 17.5581 103.679 18.1032 103.679 18.5481C103.679 20.1008 104.503 20.8771 106.152 20.8771C107.225 20.8771 108.075 20.5456 108.703 19.8827C109.331 19.211 109.785 18.2123 110.064 16.8864L112.602 4.88828H116.606Z" fill="#CACACA"/>
<path d="M123.2 13.8902H123.933C125.172 13.8902 126.144 13.5892 126.851 12.9874C127.566 12.3855 127.924 11.5786 127.924 10.5668C127.924 8.99669 127.073 8.21165 125.372 8.21165H124.404L123.2 13.8902ZM131.94 10.4621C131.94 12.5643 131.199 14.2173 129.716 15.421C128.242 16.616 126.205 17.2135 123.606 17.2135H122.481L121.055 24.0173H117.064L121.107 4.88828H125.529C127.64 4.88828 129.236 5.35495 130.318 6.28828C131.4 7.21289 131.94 8.60417 131.94 10.4621Z" fill="#CACACA"/>
<path d="M21.5578 8.48751H13.3811L16.3996 2.21679C16.683 1.48247 15.8681 0.757812 14.7557 0.757812H4.55252C3.70225 0.757812 2.97953 1.18778 2.86616 1.76267L0.598783 13.3572C0.464157 14.0529 1.25774 14.6713 2.28514 14.6713H10.6957L7.42926 24.0677C7.17418 24.802 7.9961 25.4928 9.08019 25.4928C9.67537 25.4928 10.2422 25.2803 10.554 24.9131L23.0246 10.2267C23.6835 9.45856 22.8687 8.48751 21.5578 8.48751Z" fill="#CACACA"/>
</svg>
