<svg width="134" height="42" viewBox="0 0 134 42" fill="none" xmlns="http://www.w3.org/2000/svg">
<path d="M27.7836 23.0804C27.7836 25.7979 27.8319 27.5431 27.9285 28.3161H23.2001V9.38434H27.7836V11.0148C29.4382 9.68628 31.1352 9.02201 32.8743 9.02201C34.9275 9.02201 36.4191 9.90972 37.3491 11.6851C38.2791 10.731 39.0521 10.103 39.668 9.80102C40.6946 9.28168 41.7212 9.02201 42.7478 9.02201C43.7865 9.02201 44.6682 9.19713 45.3928 9.54739C46.1175 9.89764 46.7153 10.3928 47.1864 11.0329C48.1405 12.3252 48.6176 14.1007 48.6176 16.3592V23.5695C48.6176 25.6107 48.6478 26.8365 48.7081 27.2472C48.7685 27.6578 48.847 27.9235 48.9437 28.0443C49.0524 28.1651 49.1429 28.2738 49.2154 28.3704L49.1792 28.4429C48.213 28.3583 47.5004 28.3161 47.0414 28.3161H45.6827C45.2358 28.3161 44.6863 28.3342 44.0341 28.3704V18.5694C44.0341 15.7432 43.5993 14.0644 42.7297 13.533C42.4398 13.3639 42.0956 13.2794 41.6971 13.2794C41.3106 13.2794 40.9664 13.3277 40.6644 13.4243C40.3625 13.5089 40.0787 13.6538 39.8129 13.8591C39.3661 14.1852 38.8588 14.8253 38.2912 15.7795C38.3032 15.8761 38.3093 15.9727 38.3093 16.0693C38.3093 16.1659 38.3093 17.7602 38.3093 20.8521C38.3093 23.944 38.3817 26.4319 38.5267 28.3161C37.5001 28.3161 36.6244 28.3161 35.8998 28.3161C35.1872 28.3161 34.5048 28.3342 33.8526 28.3704V18.5513C33.8526 16.5826 33.7318 15.3024 33.4903 14.7106C33.2608 14.1188 33.0132 13.7323 32.7475 13.5511C32.4818 13.37 32.1557 13.2794 31.7692 13.2794C30.175 13.2794 28.8464 14.0463 27.7836 15.5802V23.0804Z" fill="#CACACA"/>
<path d="M66.3717 27.1928C64.6567 28.1228 63.1047 28.5878 61.7158 28.5878C60.3268 28.5878 59.1372 28.461 58.1468 28.2074C57.1565 27.9417 56.3171 27.5552 55.6286 27.0479C54.2276 26.0213 53.5271 24.5358 53.5271 22.5913C53.5271 20.8521 54.3846 19.4028 56.0997 18.2433C57.9596 16.9872 60.4839 16.3592 63.6724 16.3592L64.397 16.3773C64.5419 16.3894 64.705 16.4015 64.8862 16.4135C65.0673 16.4135 65.2304 16.4256 65.3753 16.4498C65.2787 14.5173 64.4453 13.3881 62.8752 13.062C62.3559 12.9533 61.8003 12.8989 61.2085 12.8989C60.6288 12.8989 60.0551 12.9533 59.4874 13.062C58.9319 13.1586 58.3884 13.2915 57.857 13.4605C56.6854 13.835 55.846 14.2637 55.3388 14.7468L55.2844 14.7106L54.7409 10.7068C56.8787 9.58362 59.2157 9.02201 61.752 9.02201C65.6893 9.02201 68.2075 10.4411 69.3066 13.2794C69.6568 14.1852 69.832 15.2058 69.832 16.3411V22.8992C69.832 24.3002 70.3271 25.2544 71.3175 25.7616L68.0384 28.769C67.35 28.4066 66.7944 27.8813 66.3717 27.1928ZM65.3934 19.7107C65.0673 19.6503 64.7291 19.6201 64.3789 19.6201H63.6542C60.9851 19.6201 59.2882 20.212 58.5635 21.3956C58.3461 21.7458 58.2374 22.1142 58.2374 22.5007C58.2374 22.8872 58.3038 23.2314 58.4367 23.5333C58.5816 23.8232 58.8171 24.0647 59.1432 24.258C59.7713 24.6203 60.7013 24.8015 61.9332 24.8015C63.1772 24.8015 64.3366 24.5056 65.4115 23.9138C65.3995 23.7809 65.3934 23.642 65.3934 23.4971V19.7107Z" fill="#CACACA"/>
<path d="M74.5604 4.11244C75.3454 2.85637 76.2452 1.67276 77.2597 0.561611L80.72 3.2972C80.1161 4.07017 79.7054 4.60159 79.488 4.89145L78.854 5.77916C78.6486 6.05694 78.4312 6.37096 78.2018 6.72121L74.5604 4.11244ZM72.5494 31.1241C74.3369 31.1241 75.2307 29.7956 75.2307 27.1385V9.38434H79.633V25.8341C79.633 30.9067 78.1897 33.908 75.3031 34.838C74.3611 35.1399 73.2922 35.2909 72.0965 35.2909L70.2124 30.5263L70.2486 30.4357C70.9371 30.8946 71.704 31.1241 72.5494 31.1241Z" fill="#CACACA"/>
<path d="M84.2346 3.98563C85.2008 2.47592 86.2093 1.14738 87.26 0L91.1551 3.06169C90.6357 3.7018 90.1526 4.32984 89.7057 4.9458C89.7057 4.9458 89.2408 5.60403 88.3108 6.9205L84.2346 3.98563ZM88.9992 26.287C88.9992 27.3257 89.0234 28.002 89.0717 28.3161H84.4701V9.38434H88.9992V26.287Z" fill="#CACACA"/>
<path d="M98.8908 25.9972C98.8908 27.06 98.9391 27.833 99.0357 28.3161H94.4885V9.38434H98.8908V10.9967C100.485 9.68024 102.188 9.02201 104 9.02201C105.98 9.02201 107.563 9.69836 108.746 11.0511C109.93 12.3917 110.522 14.161 110.522 16.3592V23.5695C110.522 25.6107 110.552 26.8365 110.612 27.2472C110.673 27.6578 110.751 27.9235 110.848 28.0443C110.956 28.1651 111.047 28.2738 111.119 28.3704L111.083 28.4429C110.105 28.3583 109.392 28.3161 108.945 28.3161H107.677C107.291 28.3161 106.771 28.3342 106.119 28.3704V18.4969C106.119 14.9582 105.044 13.1888 102.895 13.1888C101.3 13.1888 99.9657 14.0101 98.8908 15.6526V25.9972Z" fill="#CACACA"/>
<path d="M114.924 19.0042C114.924 17.5911 115.165 16.2807 115.649 15.0729C116.132 13.8651 116.814 12.8084 117.696 11.9025C119.58 9.98218 122.044 9.02201 125.087 9.02201C127.66 9.02201 129.725 9.87348 131.283 11.5764C132.817 13.219 133.584 15.2843 133.584 17.7723C133.584 18.7264 133.511 19.3786 133.366 19.7288C132.159 20.067 129.701 20.2361 125.993 20.2361H119.616C119.93 21.5284 120.661 22.5369 121.808 23.2616C122.956 23.9741 124.447 24.3304 126.283 24.3304C128.203 24.3304 129.852 23.9862 131.229 23.2978C131.591 23.1166 131.863 22.9475 132.044 22.7905C132.02 23.2978 131.99 23.8171 131.953 24.3486L131.754 27.1747C130.836 27.8028 129.351 28.2376 127.297 28.4791C126.694 28.5516 126.114 28.5878 125.558 28.5878C122.491 28.5878 119.954 27.6941 117.949 25.9066C115.932 24.107 114.924 21.8062 114.924 19.0042ZM128.765 16.7215C128.27 14.1248 126.857 12.8265 124.526 12.8265C122.69 12.8265 121.295 13.6176 120.341 15.1997C120.051 15.6828 119.827 16.2143 119.67 16.794C119.96 16.8061 120.317 16.8181 120.739 16.8302H122.08C122.527 16.8423 122.956 16.8483 123.366 16.8483H124.399C125.015 16.8483 125.619 16.8423 126.21 16.8302L127.696 16.7759C128.095 16.7638 128.451 16.7457 128.765 16.7215Z" fill="#CACACA"/>
<path d="M5.06557 9.85744C6.7806 8.92746 8.33258 8.46247 9.72151 8.46247C11.1104 8.46247 12.3001 8.58929 13.2905 8.84292C14.2808 9.10863 15.1202 9.49511 15.8086 10.0024C17.2097 11.029 17.9102 12.5145 17.9102 14.459C17.9102 16.1982 17.0526 17.6475 15.3376 18.807C13.4777 20.0631 10.9534 20.6911 7.76493 20.6911L7.04027 20.673C6.89534 20.6609 6.73229 20.6488 6.55112 20.6367C6.36996 20.6367 6.20691 20.6247 6.06198 20.6005C6.1586 22.5329 6.99196 23.6622 8.56205 23.9883C9.08139 24.097 9.63696 24.1513 10.2288 24.1513C10.8085 24.1513 11.3822 24.097 11.9498 23.9883C12.5054 23.8917 13.0489 23.7588 13.5803 23.5897C14.7518 23.2153 15.5912 22.7866 16.0985 22.3035L16.1529 22.3397L16.6964 26.3434C14.5586 27.4667 12.2216 28.0283 9.68527 28.0283C5.74796 28.0283 3.22977 26.6092 2.1307 23.7709C1.78045 22.8651 1.60532 21.8445 1.60532 20.7092V14.151C1.60532 12.75 1.11014 11.7959 0.119774 11.2886L3.39886 8.28131C4.08728 8.64364 4.64285 9.16902 5.06557 9.85744ZM6.04386 17.3396C6.36996 17.3999 6.70813 17.4301 7.05838 17.4301H7.78304C10.4522 17.4301 12.1491 16.8383 12.8738 15.6547C13.0912 15.3045 13.1999 14.9361 13.1999 14.5496C13.1999 14.1631 13.1334 13.8189 13.0006 13.517C12.8557 13.2271 12.6201 12.9856 12.294 12.7923C11.666 12.43 10.736 12.2488 9.50411 12.2488C8.26011 12.2488 7.10066 12.5447 6.02575 13.1365C6.03782 13.2694 6.04386 13.4083 6.04386 13.5532V17.3396Z" fill="#CACACA"/>
<path d="M5.67511 38.4974C4.87014 37.6924 4.87014 36.3873 5.67511 35.5823L7.43449 33.8229C8.23946 33.0179 9.54456 33.0179 10.3495 33.8229L12.1089 35.5823C12.9139 36.3873 12.9139 37.6924 12.1089 38.4974L10.3495 40.2568C9.54456 41.0617 8.23945 41.0617 7.43449 40.2568L5.67511 38.4974Z" fill="#CACACA"/>
</svg>
