<svg width="193" height="200" viewBox="0 0 193 200" fill="none" xmlns="http://www.w3.org/2000/svg">
<path d="M47.4385 86.5263C45.2858 84.3803 42.7533 82.7741 39.9875 81.7878V46.6521C39.9875 35.6289 31.017 26.6583 19.9938 26.6583C8.97053 26.6583 0 35.6289 0 46.6521V119.962C0 125.421 2.79913 132.192 6.66458 136.051L37.2284 166.615H33.3229V199.938H93.3042V179.944V166.615V146.621C93.3042 137.397 88.2791 125.641 81.6212 119.263L47.4385 86.5263ZM13.3292 46.6521C13.3292 42.9732 16.3216 39.9875 19.9938 39.9875C23.6659 39.9875 26.6583 42.9732 26.6583 46.6521V81.7811C23.8992 82.7675 21.3733 84.367 19.2473 86.493C15.6218 90.0718 13.5424 94.7637 13.3292 99.7955V46.6521ZM53.3167 166.615V163.855L16.0883 126.627C14.7487 125.287 13.3292 121.862 13.3292 119.962V101.495C13.5424 106.507 15.6085 111.205 19.1607 114.757L46.5521 142.709L56.0758 133.385L28.6311 105.374C27.3381 104.087 26.6317 102.401 26.6383 100.622C26.6383 98.8691 27.3381 97.2229 28.6377 95.95C31.1903 93.3841 35.3423 93.2842 38.1081 96.0566L72.3974 128.893C76.3628 132.685 79.975 141.136 79.975 146.621V166.615H53.3167Z" fill="#202D42"/>
<path d="M179.944 26.6583C168.92 26.6583 159.95 35.6289 159.95 46.6521V81.7811C157.197 82.7541 154.692 84.3336 152.606 86.4196L118.31 119.256C111.652 125.641 106.633 137.397 106.633 146.621V166.615V179.944V199.938H166.615V166.615H162.709L193.273 136.051C197.138 132.192 199.937 125.421 199.937 119.962V46.6521C199.937 35.6289 190.967 26.6583 179.944 26.6583ZM186.608 119.962C186.608 121.862 185.189 125.287 183.849 126.627L146.621 163.855V166.615H119.962V146.621C119.962 141.136 123.575 132.679 127.533 128.893L161.936 95.95C164.475 93.3975 168.701 93.3508 171.333 95.99C172.593 97.2363 173.292 98.8824 173.292 100.629C173.299 102.408 172.593 104.094 171.246 105.434L143.855 133.392L153.379 142.715L180.717 114.811C184.322 111.205 186.395 106.507 186.602 101.495V119.962H186.608ZM186.608 99.7955C186.395 94.7637 184.316 90.0718 180.723 86.5329C178.577 84.387 176.038 82.7808 173.279 81.7944V46.6521C173.279 42.9732 176.272 39.9875 179.944 39.9875C183.616 39.9875 186.608 42.9732 186.608 46.6521V99.7955Z" fill="#202D42"/>
<path d="M153.286 34.0094C153.286 24.9455 149.747 16.4015 143.335 9.99021C136.957 3.55889 128.433 0.026658 119.316 0.026658C112.285 0.026658 105.587 2.126 99.949 6.03811C94.2975 2.15266 87.5196 0 80.6351 0C71.5646 0 63.0273 3.53889 56.6226 9.94356C50.2113 16.3016 46.6724 24.8122 46.6524 33.8961C46.6391 43.0266 50.1713 51.5972 56.6026 58.0285L99.9624 101.388L143.315 58.0285C149.653 51.6838 153.286 42.9266 153.286 34.0094Z" fill="#202D42"/>
</svg>
