<svg width="170" height="32" viewBox="0 0 170 32" fill="none" xmlns="http://www.w3.org/2000/svg">
<path d="M56.5556 16.1347H66.0507L63.3185 28.986C61.8119 29.5032 60.4121 29.8517 59.1191 30.0316C57.8373 30.2227 56.4769 30.3183 55.0377 30.3183C52.1256 30.3183 49.877 29.4919 48.2916 27.8391C46.7063 26.1863 45.9136 23.814 45.9136 20.722C45.9136 17.7088 46.5152 14.9879 47.7182 12.5593C48.9213 10.1194 50.6134 8.24178 52.7946 6.92629C54.9759 5.59956 57.4944 4.9362 60.3502 4.9362C62.8013 4.9362 65.1062 5.49275 67.265 6.60585L65.3255 10.839C64.4935 10.3893 63.6614 10.0295 62.8294 9.75964C61.9974 9.4898 61.0923 9.35488 60.1141 9.35488C58.3939 9.35488 56.8535 9.82148 55.4931 10.7547C54.1439 11.6879 53.0813 13.0202 52.3055 14.7517C51.541 16.472 51.1587 18.3272 51.1587 20.3173C51.1587 22.2511 51.5635 23.6734 52.373 24.5842C53.1938 25.4836 54.4474 25.9334 56.1339 25.9334C56.9884 25.9334 57.9441 25.7984 59.001 25.5286L60.1141 20.4859H55.6111L56.5556 16.1347Z" fill="#CACACA"/>
<path d="M73.387 29.981H68.3106L73.8761 3.73877H78.9526L73.387 29.981Z" fill="#CACACA"/>
<path d="M91.5171 18.2428C91.5171 16.0279 90.7132 14.9204 89.1054 14.9204C88.2621 14.9204 87.5032 15.2633 86.8286 15.9492C86.1652 16.635 85.6199 17.6413 85.1927 18.968C84.7767 20.2948 84.5687 21.6609 84.5687 23.0663C84.5687 25.1463 85.4119 26.1863 87.0984 26.1863C87.9417 26.1863 88.7006 25.8434 89.3752 25.1576C90.0499 24.4605 90.5727 23.4992 90.9437 22.2736C91.326 21.0368 91.5171 19.6932 91.5171 18.2428ZM96.6273 18.2428C96.6273 20.6152 96.2281 22.7177 95.4299 24.5504C94.6428 26.3831 93.5016 27.8054 92.0062 28.8173C90.5108 29.818 88.7344 30.3183 86.6768 30.3183C84.4843 30.3183 82.7304 29.6606 81.4149 28.3451C80.1106 27.0184 79.4585 25.2588 79.4585 23.0663C79.4585 20.6714 79.8577 18.5408 80.6559 16.6744C81.4655 14.7967 82.6292 13.3463 84.147 12.3232C85.6649 11.2888 87.4414 10.7716 89.4764 10.7716C91.6802 10.7716 93.4229 11.4349 94.7046 12.7616C95.9864 14.0884 96.6273 15.9154 96.6273 18.2428Z" fill="#CACACA"/>
<path d="M112.582 15.4769C111.885 17.4783 111.193 19.2716 110.507 20.8569L106.578 29.981H101.113L100.253 11.1257H104.992L105.06 19.474L104.992 22.2905L104.874 25.1744H104.942C105.009 24.9496 105.088 24.7191 105.178 24.483C105.268 24.2356 105.555 23.4654 106.038 22.1724C106.522 20.8794 106.78 20.2104 106.814 20.1655L110.71 11.1257H116.242V20.1655C116.242 21.762 116.185 23.4317 116.073 25.1744H116.174L116.646 23.8252C117.467 21.4866 118.001 20.0362 118.248 19.474L121.942 11.1257H127.12L118.181 29.981H112.615L112.514 21.2111C112.514 19.4684 112.571 17.557 112.683 15.4769H112.582Z" fill="#CACACA"/>
<path d="M149.55 5.3241L146.16 21.2786C145.519 24.2693 144.294 26.5236 142.484 28.0415C140.674 29.5594 138.318 30.3183 135.417 30.3183C133.034 30.3183 131.156 29.6831 129.784 28.4125C128.424 27.1308 127.744 25.3993 127.744 23.2181C127.744 22.4085 127.828 21.6327 127.997 20.8907L131.302 5.3241H136.446L133.174 20.8232C132.983 21.6552 132.887 22.3579 132.887 22.9314C132.887 24.9327 133.95 25.9334 136.075 25.9334C137.458 25.9334 138.554 25.5061 139.364 24.6516C140.173 23.7859 140.758 22.4985 141.118 20.7895L144.39 5.3241H149.55Z" fill="#CACACA"/>
<path d="M158.05 16.9274H158.995C160.591 16.9274 161.845 16.5395 162.756 15.7637C163.678 14.9879 164.139 13.9478 164.139 12.6436C164.139 10.6198 163.042 9.60786 160.85 9.60786H159.602L158.05 16.9274ZM169.316 12.5087C169.316 15.2183 168.361 17.349 166.449 18.9006C164.549 20.4409 161.924 21.2111 158.573 21.2111H157.123L155.284 29.981H150.141L155.352 5.3241H161.052C163.773 5.3241 165.831 5.92562 167.225 7.12867C168.619 8.32048 169.316 10.1138 169.316 12.5087Z" fill="#CACACA"/>
<path d="M27.0351 9.96344H16.4954L20.3861 1.8806C20.7515 0.934072 19.7012 0 18.2673 0H5.11553C4.01955 0 3.08797 0.554216 2.94184 1.29525L0.0192324 16.2404C-0.154297 17.1371 0.868615 17.9342 2.19292 17.9342H13.034L8.82358 30.046C8.49479 30.9925 9.55424 31.883 10.9516 31.883C11.7188 31.883 12.4494 31.609 12.8513 31.1357L28.9256 12.2052C29.775 11.2151 28.7247 9.96344 27.0351 9.96344Z" fill="#CACACA"/>
</svg>
