<svg width="18" height="18" viewBox="0 0 18 18" fill="none" xmlns="http://www.w3.org/2000/svg">
<path d="M17.2108 6.99142C17.1669 6.8604 17.0876 6.74407 16.9817 6.65527C16.8758 6.56646 16.7475 6.50863 16.6108 6.48817L11.8243 5.75692L9.6763 1.18192C9.61573 1.05307 9.51974 0.944124 9.39955 0.867812C9.27935 0.791501 9.13992 0.750977 8.99755 0.750977C8.85518 0.750977 8.71574 0.791501 8.59555 0.867812C8.47536 0.944124 8.37936 1.05307 8.3188 1.18192L6.1708 5.75692L1.3843 6.48817C1.24796 6.50895 1.12 6.56692 1.01447 6.6557C0.908942 6.74449 0.829937 6.86065 0.78614 6.99142C0.742343 7.12219 0.735451 7.26251 0.76622 7.39694C0.796989 7.53137 0.864229 7.65472 0.960548 7.75342L4.4488 11.3249L3.6238 16.3784C3.60128 16.5171 3.61818 16.6593 3.67256 16.7889C3.72694 16.9184 3.81662 17.0301 3.93138 17.1112C4.04614 17.1922 4.18136 17.2394 4.32164 17.2474C4.46192 17.2553 4.60161 17.2237 4.7248 17.1562L8.9998 14.7952L13.2748 17.1562C13.398 17.2243 13.5379 17.2564 13.6784 17.2488C13.819 17.2412 13.9546 17.1941 14.0697 17.1131C14.1848 17.032 14.2747 16.9202 14.3293 16.7904C14.3838 16.6606 14.4007 16.5181 14.378 16.3792L13.553 11.3257L17.039 7.75342C17.1349 7.65444 17.2017 7.53096 17.232 7.39654C17.2623 7.26212 17.2549 7.12195 17.2108 6.99142Z" fill="url(#paint0_linear_438_2810)"/>
<defs>
<linearGradient id="paint0_linear_438_2810" x1="14.3623" y1="0.0552394" x2="0.30224" y2="16.1395" gradientUnits="userSpaceOnUse">
<stop stop-color="#FF827A"/>
<stop offset="1" stop-color="#FFA825"/>
</linearGradient>
</defs>
</svg>
