<svg width="81" height="81" viewBox="0 0 81 81" fill="none" xmlns="http://www.w3.org/2000/svg">
<rect width="81" height="81" rx="14" fill="#F6FBFA"/>
<path d="M45 21H37C35.4087 21 33.8826 21.6321 32.7574 22.7574C31.6321 23.8826 31 25.4087 31 27V29H27C25.4087 29 23.8826 29.6321 22.7574 30.7574C21.6321 31.8826 21 33.4087 21 35V55C21 56.5913 21.6321 58.1174 22.7574 59.2426C23.8826 60.3679 25.4087 61 27 61H55C56.5913 61 58.1174 60.3679 59.2426 59.2426C60.3679 58.1174 61 56.5913 61 55V35C61 33.4087 60.3679 31.8826 59.2426 30.7574C58.1174 29.6321 56.5913 29 55 29H51V27C51 25.4087 50.3679 23.8826 49.2426 22.7574C48.1174 21.6321 46.5913 21 45 21V21ZM35 27C35 26.4696 35.2107 25.9609 35.5858 25.5858C35.9609 25.2107 36.4696 25 37 25H45C45.5304 25 46.0391 25.2107 46.4142 25.5858C46.7893 25.9609 47 26.4696 47 27V29H35V27ZM57 35V55C57 55.5304 56.7893 56.0391 56.4142 56.4142C56.0391 56.7893 55.5304 57 55 57H27C26.4696 57 25.9609 56.7893 25.5858 56.4142C25.2107 56.0391 25 55.5304 25 55V35C25 34.4696 25.2107 33.9609 25.5858 33.5858C25.9609 33.2107 26.4696 33 27 33H55C55.5304 33 56.0391 33.2107 56.4142 33.5858C56.7893 33.9609 57 34.4696 57 35Z" fill="#1B8271"/>
<path d="M43 39H39V43H35V47H39V51H43V47H47V43H43V39Z" fill="#1B8271"/>
</svg>
