<svg width="81" height="83" viewBox="0 0 81 83" fill="none" xmlns="http://www.w3.org/2000/svg">
<rect y="0.133606" width="81" height="82.1392" rx="40.5" fill="#F6FBFA"/>
<path d="M57.287 28.6268L40.746 18.5958C40.2864 18.3171 39.7138 18.3171 39.2541 18.5958L22.7131 28.6268C22.271 28.8949 22 29.3807 22 29.905V35.6311C22 47.6917 28.8359 58.7071 39.4732 62.9053C39.8119 63.039 40.1879 63.0392 40.5268 62.9053C51.1384 58.7176 58 47.726 58 35.6311V29.905C58.0001 29.3806 57.7292 28.8949 57.287 28.6268ZM47.2084 37.3541L38.0638 46.6758C37.494 47.2566 36.5702 47.2566 36.0004 46.6758L32.7911 43.4044C32.2213 42.8237 32.2213 41.8819 32.7911 41.3011C33.3609 40.7203 34.2848 40.7203 34.8545 41.3011L37.0321 43.5208L45.145 35.2508C45.7147 34.67 46.6386 34.67 47.2084 35.2508C47.7783 35.8317 47.7783 36.7734 47.2084 37.3541Z" fill="#1B8271"/>
</svg>
