<svg width="65" height="65" viewBox="0 0 65 65" fill="none" xmlns="http://www.w3.org/2000/svg">
<circle cx="32.5" cy="32.5" r="32.5" fill="#F6FBFA"/>
<path d="M47.0475 39.7759C47.0219 39.551 46.9456 39.3349 46.8242 39.1438C46.7028 38.9528 46.5396 38.7919 46.3468 38.6733L41.3429 35.575C40.8641 35.2769 40.2984 35.15 39.7382 35.2151C39.1781 35.2802 38.6565 35.5334 38.2589 35.9334L36.5978 37.595C36.5361 37.6578 36.4582 37.7022 36.3728 37.7234C36.2874 37.7446 36.1977 37.7417 36.1139 37.715C35.2052 37.4083 33.3189 36.5314 30.8939 34.1066C28.4689 31.6818 27.5921 29.7946 27.2852 28.8859C27.2586 28.8021 27.2558 28.7126 27.2769 28.6272C27.2981 28.5419 27.3425 28.4641 27.4052 28.4025L29.0664 26.7413C29.4665 26.3438 29.7198 25.8222 29.7848 25.262C29.8498 24.7017 29.7227 24.136 29.4243 23.6574L26.3265 18.6533C26.2075 18.4609 26.0465 18.2979 25.8556 18.1766C25.6647 18.0553 25.4488 17.9787 25.2241 17.9526C24.9994 17.9265 24.7717 17.9517 24.5581 18.0261C24.3445 18.1005 24.1505 18.2223 23.9906 18.3823L20.848 21.525C19.8366 22.5374 19.1873 23.8551 19.0008 25.274C18.8143 26.6928 19.1009 28.1336 19.8163 29.373C21.6729 32.6637 23.9728 35.6838 26.6513 38.3486C29.3162 41.0272 32.3363 43.327 35.6271 45.1836C36.8664 45.8994 38.3073 46.1862 39.7262 45.9997C41.1452 45.8131 42.4629 45.1636 43.4751 44.1518L46.6177 41.0093C46.7781 40.8497 46.9001 40.6557 46.9746 40.4421C47.049 40.2284 47.074 40.0006 47.0475 39.7759Z" fill="#1B8271"/>
</svg>
