<svg width="76" height="76" viewBox="0 0 76 76" fill="none" xmlns="http://www.w3.org/2000/svg">
<path d="M15.4935 67.9306H7.99398V60.4269H15.4935V67.9306ZM7.99398 7.9414H15.4935V15.4409H7.99398V7.9414ZM60.4795 7.9414H67.9832V15.4409H60.4795V7.9414ZM0.490234 60.4269V67.9306C0.490234 72.0172 3.9018 75.4302 7.99398 75.4302H15.4935C19.5843 75.4302 22.9973 72.0172 22.9973 67.9306H41.7398C43.7943 67.9306 45.4902 66.2347 45.4902 64.1759C45.4902 62.1214 43.7943 60.4269 41.7398 60.4269H22.9973C22.9973 56.3347 19.5843 52.9259 15.4935 52.9259V22.9447C19.5843 22.9447 22.9973 19.5331 22.9973 15.4409H52.9785C52.9785 19.5331 56.3873 22.9447 60.4795 22.9447V41.6872C60.4795 43.7431 62.174 45.4377 64.2285 45.4377C66.2873 45.4377 67.9832 43.7431 67.9832 41.6872V22.9447C72.0698 22.9447 75.4827 19.5331 75.4827 15.4409V7.9414C75.4827 3.85062 72.0698 0.437653 67.9832 0.437653H60.4795C56.3873 0.437653 52.9785 3.85062 52.9785 7.9414H22.9973C22.9973 3.85062 19.5843 0.437653 15.4935 0.437653H7.99398C3.9018 0.437653 0.490234 3.85062 0.490234 7.9414V15.4409C0.490234 19.5331 3.9018 22.9447 7.99398 22.9447V52.9259C3.9018 52.9259 0.490234 56.3347 0.490234 60.4269Z" fill="#1B8271"/>
<path d="M61.0594 59.3469C60.3422 59.7097 59.76 60.2919 59.3972 61.0077L58.6223 62.556L55.9673 55.9157L62.6077 58.5707L61.0594 59.3469ZM50.6222 45.7007C50.1525 45.5207 49.6561 45.4335 49.1555 45.449C47.1319 45.4982 45.4922 47.1744 45.4922 49.1994C45.4922 49.6677 45.5766 50.136 45.7495 50.5719L54.7481 73.079C55.3177 74.4965 56.6972 75.4302 58.2272 75.4302C59.6489 75.4302 60.9511 74.6244 61.5825 73.3532L65.5425 65.4922L73.4034 61.5322C74.6761 60.8994 75.4819 59.5972 75.4819 58.1769C75.4819 56.6469 74.5481 55.266 73.1306 54.6965L50.6222 45.7007Z" fill="#1B8271"/>
</svg>
