<svg width="76" height="76" viewBox="0 0 76 76" fill="none" xmlns="http://www.w3.org/2000/svg">
	<svg width="76" height="76" viewBox="0 0 76 76" fill="none" xmlns="http://www.w3.org/2000/svg">
		<path d="M15.4944 67.9306H7.99484V60.4268H15.4944V67.9306ZM7.99484 7.94137H15.4944V15.4409H7.99484V7.94137ZM60.4803 7.94137H67.9841V15.4409H60.4803V7.94137ZM0.491089 60.4268V67.9306C0.491089 72.0172 3.90265 75.4301 7.99484 75.4301H15.4944C19.5852 75.4301 22.9981 72.0172 22.9981 67.9306H41.7406C43.7952 67.9306 45.4911 66.2346 45.4911 64.1759C45.4911 62.1214 43.7952 60.4268 41.7406 60.4268H22.9981C22.9981 56.3347 19.5852 52.9259 15.4944 52.9259V22.9447C19.5852 22.9447 22.9981 19.5331 22.9981 15.4409H52.9794C52.9794 19.5331 56.3881 22.9447 60.4803 22.9447V41.6872C60.4803 43.7431 62.1748 45.4376 64.2294 45.4376C66.2881 45.4376 67.9841 43.7431 67.9841 41.6872V22.9447C72.0706 22.9447 75.4836 19.5331 75.4836 15.4409V7.94137C75.4836 3.85059 72.0706 0.437622 67.9841 0.437622H60.4803C56.3881 0.437622 52.9794 3.85059 52.9794 7.94137H22.9981C22.9981 3.85059 19.5852 0.437622 15.4944 0.437622H7.99484C3.90265 0.437622 0.491089 3.85059 0.491089 7.94137V15.4409C0.491089 19.5331 3.90265 22.9447 7.99484 22.9447V52.9259C3.90265 52.9259 0.491089 56.3347 0.491089 60.4268" fill="#1B8271"/>
	</svg>
	<svg width="31" height="31" x="45px" y="45px" viewBox="0 0 31 31" fill="none" xmlns="http://www.w3.org/2000/svg">
		<path d="M16.0611 14.3469C15.3439 14.7097 14.7617 15.2919 14.3989 16.0077L13.6241 17.5559L10.9691 10.9156L17.6094 13.5706L16.0611 14.3469ZM5.6239 0.700616C5.15421 0.520616 4.6578 0.433427 4.15718 0.448896C2.13358 0.498115 0.493896 2.17437 0.493896 4.19937C0.493896 4.66765 0.578275 5.13593 0.751244 5.57186L9.74984 28.0789C10.3194 29.4964 11.6989 30.4302 13.2289 30.4302C14.6506 30.4302 15.9528 29.6244 16.5842 28.3531L20.5442 20.4922L28.4052 16.5322C29.6778 15.8994 30.4836 14.5972 30.4836 13.1769C30.4836 11.6469 29.5498 10.2659 28.1323 9.6964L5.6239 0.700616Z" fill="#1B8271"/>
	</svg>
</svg>
