<svg width="80" height="68" viewBox="0 0 80 68" fill="none" xmlns="http://www.w3.org/2000/svg">
<path d="M69.9809 0.953113C69.9809 0.953113 69.3066 0.507684 69.1094 0.446863C68.8235 0.358973 67.9281 0.249988 67.9281 0.249988C57.1548 0.123074 46.8969 4.85405 40 13.1312C33.103 4.85405 22.8451 0.123074 12.0719 0.249988C12.0719 0.249988 11.1789 0.186707 10.8906 0.249988C10.6892 0.293933 10.0187 0.756237 10.0187 0.756237L1.58124 8.18124C0.919951 8.7585 0.566279 9.61174 0.62499 10.4875V55.0375C0.62499 56.5907 1.88429 57.85 3.43749 57.85C26.3875 57.85 38.1051 67.063 38.2281 67.1312C38.6384 67.3587 39.4069 67.7757 40.4619 67.7753C41.1461 67.7749 41.9181 67.2845 42.3526 66.9934C45.4032 64.9522 56.799 58.2996 76.3094 58.2996C77.8629 58.2996 79.1219 57.0403 79.1219 55.4871V10.4871C79.1212 9.67924 78.7728 8.91108 78.166 8.37776L69.9809 0.953113ZM65.3125 5.87499V44.9125C56.643 45.623 48.5823 49.653 42.8125 56.1625V18.7281C47.9896 11.2687 56.2576 6.54577 65.3125 5.87499ZM14.6875 5.87499C23.7335 6.48319 32.0125 11.1709 37.1875 18.6156V56.1625C31.4173 49.653 23.357 45.623 14.6875 44.9125V5.87499ZM6.24999 11.7531L9.06249 9.27811V47.6128C9.06249 49.166 10.3218 50.4253 11.875 50.4253C18.1128 50.3779 24.1814 52.4507 29.0875 56.3031C21.7268 53.7968 14.0237 52.4405 6.24999 52.2812V11.7531ZM73.75 52.2812C65.9762 52.4405 58.2731 53.7968 50.9125 56.3028C55.8185 52.4503 61.8876 50.3775 68.125 50.425C69.6782 50.425 70.9375 49.1657 70.9375 47.6125V9.27811L73.75 11.7531V52.2812Z" fill="#1B8271"/>
</svg>
