<svg width="78" height="90" viewBox="0 0 78 90" fill="none" xmlns="http://www.w3.org/2000/svg">
<path d="M59.5298 33.0901V22.5C59.5312 18.7012 57.1109 15.4174 53.6603 14.1977V2.93484C53.6603 1.31414 52.3463 0 50.7255 0C49.1046 0 47.7906 1.31396 47.7906 2.93484V13.6956H30.1819V2.93484C30.1819 1.31396 28.868 0 27.2473 0C25.6266 0 24.3124 1.31396 24.3124 2.93484V14.1994C20.8029 15.4399 18.442 18.7587 18.4429 22.5V33.1203C6.59823 46.3001 0.282769 63.5572 0.849487 81.2893C0.888686 82.5115 1.67408 83.5752 2.83107 83.9718C26.2733 92.0092 51.7258 92.0097 75.1696 83.9718C76.3262 83.5752 77.1122 82.5112 77.151 81.289C77.7153 63.5606 71.4068 46.2899 59.5298 33.0901ZM24.3124 22.5C24.3138 21.1569 25.2036 20.0607 26.3734 19.6966C26.8588 19.546 27.2896 19.5652 27.2473 19.5652C27.8374 19.5652 47.5908 19.5652 50.7255 19.5652C52.3521 19.5667 53.6594 20.8789 53.6603 22.5V31.3044C53.3425 31.3044 24.6301 31.3044 24.3126 31.3044V22.5H24.3124ZM6.68437 79.0662C6.69228 63.6205 12.3855 48.7044 22.69 37.174H25.7471C20.318 50.9024 18.139 67.104 18.4754 82.118C14.5042 81.3312 10.5672 80.3136 6.68437 79.0662ZM53.6259 83.1118C43.9176 84.4687 34.0976 84.4708 24.3746 83.1118C23.9037 68.0068 26.1054 51.0228 32.0981 37.1739H45.9022C51.8304 50.8741 54.1043 67.7663 53.6259 83.1118ZM59.5249 82.118C59.8613 67.1055 57.6794 50.8955 52.2532 37.174H55.3104V37.1739C65.6148 48.7041 71.308 63.6203 71.3156 79.0664C67.4329 80.3139 63.496 81.3313 59.5249 82.118Z" fill="#1B8271"/>
</svg>
