<svg width="76" height="76" viewBox="0 0 76 76" fill="none" xmlns="http://www.w3.org/2000/svg">
<path d="M45.5 0.5H30.5C27.5163 0.5 24.6548 1.68526 22.545 3.79505C20.4353 5.90483 19.25 8.76632 19.25 11.75V15.5H11.75C8.76631 15.5 5.90483 16.6853 3.79505 18.7951C1.68526 20.9048 0.5 23.7663 0.5 26.75V64.25C0.5 67.2337 1.68526 70.0952 3.79505 72.205C5.90483 74.3147 8.76631 75.5 11.75 75.5H64.25C67.2337 75.5 70.0952 74.3147 72.205 72.205C74.3147 70.0952 75.5 67.2337 75.5 64.25V26.75C75.5 23.7663 74.3147 20.9048 72.205 18.7951C70.0952 16.6853 67.2337 15.5 64.25 15.5H56.75V11.75C56.75 8.76632 55.5647 5.90483 53.455 3.79505C51.3452 1.68526 48.4837 0.5 45.5 0.5ZM26.75 11.75C26.75 10.7554 27.1451 9.80161 27.8484 9.09835C28.5516 8.39509 29.5054 8 30.5 8H45.5C46.4946 8 47.4484 8.39509 48.1516 9.09835C48.8549 9.80161 49.25 10.7554 49.25 11.75V15.5H26.75V11.75ZM68 26.75V64.25C68 65.2446 67.6049 66.1984 66.9017 66.9017C66.1984 67.6049 65.2446 68 64.25 68H11.75C10.7554 68 9.80161 67.6049 9.09835 66.9017C8.39509 66.1984 8 65.2446 8 64.25V26.75C8 25.7554 8.39509 24.8016 9.09835 24.0984C9.80161 23.3951 10.7554 23 11.75 23H64.25C65.2446 23 66.1984 23.3951 66.9017 24.0984C67.6049 24.8016 68 25.7554 68 26.75Z" fill="#1B8271"/>
</svg>
